<mxfile host="app.diagrams.net" agent="Mozilla/5.0 (Windows NT 10.0; Win64; x64) AppleWebKit/537.36 (KHTML, like Gecko) Chrome/131.0.0.0 Safari/537.36" version="26.0.8" pages="2">
  <diagram name="Page-1" id="vDul_YqK_dcnpiFwpa7n">
    <mxGraphModel dx="2474" dy="2046" grid="0" gridSize="10" guides="1" tooltips="1" connect="1" arrows="1" fold="1" page="1" pageScale="1" pageWidth="827" pageHeight="1169" math="0" shadow="0">
      <root>
        <mxCell id="0" />
        <mxCell id="1" parent="0" />
        <mxCell id="_SJh_2kdL77l0nsIWq_a-96" value="" style="shape=process;whiteSpace=wrap;html=1;backgroundOutline=1;rounded=0;" parent="1" vertex="1">
          <mxGeometry x="-792" y="315" width="749" height="215" as="geometry" />
        </mxCell>
        <mxCell id="k8KEBQ3MooANIXH4T0-9-83" value="&lt;h2 style=&quot;box-sizing: border-box; margin-top: 1.75rem; margin-bottom: 0.5rem; line-height: 1.2; font-size: 20px; padding-bottom: 1rem; font-family: &amp;quot;Source Sans Pro&amp;quot;, HelveticaNeue-Light, &amp;quot;Helvetica Neue Light&amp;quot;, &amp;quot;Helvetica Neue&amp;quot;, Helvetica, Arial, &amp;quot;Lucida Grande&amp;quot;, sans-serif; background-color: rgb(255, 255, 255);&quot;&gt;ISETAN Stocktake Process Flow&lt;/h2&gt;" style="text;html=1;align=left;verticalAlign=middle;whiteSpace=wrap;rounded=0;fontSize=20;fontStyle=1;fontColor=#000066;" parent="1" vertex="1">
          <mxGeometry x="-788" y="-1130" width="478" height="36" as="geometry" />
        </mxCell>
        <mxCell id="_SJh_2kdL77l0nsIWq_a-2" value="" style="shape=process;whiteSpace=wrap;html=1;backgroundOutline=1;rounded=0;" parent="1" vertex="1">
          <mxGeometry x="-784" y="-990" width="749" height="189" as="geometry" />
        </mxCell>
        <mxCell id="_SJh_2kdL77l0nsIWq_a-3" value="" style="shape=process;whiteSpace=wrap;html=1;backgroundOutline=1;rounded=0;" parent="1" vertex="1">
          <mxGeometry x="-784" y="-794" width="749" height="214" as="geometry" />
        </mxCell>
        <mxCell id="_SJh_2kdL77l0nsIWq_a-4" value="" style="shape=process;whiteSpace=wrap;html=1;backgroundOutline=1;rounded=0;" parent="1" vertex="1">
          <mxGeometry x="-784" y="-568" width="749" height="164" as="geometry" />
        </mxCell>
        <mxCell id="_SJh_2kdL77l0nsIWq_a-5" value="Store&amp;nbsp;" style="rounded=0;whiteSpace=wrap;html=1;rotation=-90;strokeColor=#FFD966;fillColor=#fff2cc;fontColor=#CC6600;labelBorderColor=none;" parent="1" vertex="1">
          <mxGeometry x="-840" y="-934" width="186" height="75.13" as="geometry" />
        </mxCell>
        <mxCell id="_SJh_2kdL77l0nsIWq_a-7" value="&lt;h2 style=&quot;box-sizing: border-box; margin-top: 1.75rem; margin-bottom: 0.5rem; line-height: 1.2; font-size: 16px; color: rgb(3, 155, 229); padding-bottom: 1rem; font-family: &amp;quot;Source Sans Pro&amp;quot;, HelveticaNeue-Light, &amp;quot;Helvetica Neue Light&amp;quot;, &amp;quot;Helvetica Neue&amp;quot;, Helvetica, Arial, &amp;quot;Lucida Grande&amp;quot;, sans-serif; background-color: rgb(255, 255, 255);&quot;&gt;Monthly | Department Stocktake&lt;/h2&gt;" style="text;html=1;align=left;verticalAlign=middle;whiteSpace=wrap;rounded=0;fontSize=16;fontStyle=1" parent="1" vertex="1">
          <mxGeometry x="-788" y="-1094" width="478" height="30" as="geometry" />
        </mxCell>
        <mxCell id="_SJh_2kdL77l0nsIWq_a-8" value="Finance" style="rounded=0;whiteSpace=wrap;html=1;rotation=-90;strokeColor=#82b366;fillColor=#d5e8d4;labelBorderColor=none;fontColor=#006600;" parent="1" vertex="1">
          <mxGeometry x="-826.75" y="-525" width="163.5" height="75.13" as="geometry" />
        </mxCell>
        <mxCell id="_SJh_2kdL77l0nsIWq_a-9" value="Business Central" style="rounded=0;whiteSpace=wrap;html=1;rotation=-90;strokeColor=#d79b00;fillColor=#ffe6cc;labelBorderColor=none;fontColor=#CC6600;" parent="1" vertex="1">
          <mxGeometry x="-850" y="-723.57" width="210" height="75.13" as="geometry" />
        </mxCell>
        <mxCell id="_SJh_2kdL77l0nsIWq_a-12" value="" style="edgeStyle=orthogonalEdgeStyle;rounded=0;orthogonalLoop=1;jettySize=auto;html=1;" parent="1" source="_SJh_2kdL77l0nsIWq_a-10" target="_SJh_2kdL77l0nsIWq_a-11" edge="1">
          <mxGeometry relative="1" as="geometry" />
        </mxCell>
        <mxCell id="_SJh_2kdL77l0nsIWq_a-10" value="" style="ellipse;whiteSpace=wrap;html=1;aspect=fixed;" parent="1" vertex="1">
          <mxGeometry x="-643" y="-975" width="32" height="32" as="geometry" />
        </mxCell>
        <mxCell id="_SJh_2kdL77l0nsIWq_a-21" value="" style="edgeStyle=orthogonalEdgeStyle;rounded=0;orthogonalLoop=1;jettySize=auto;html=1;" parent="1" source="_SJh_2kdL77l0nsIWq_a-11" target="_SJh_2kdL77l0nsIWq_a-19" edge="1">
          <mxGeometry relative="1" as="geometry" />
        </mxCell>
        <mxCell id="_SJh_2kdL77l0nsIWq_a-11" value="Selected Retail Product Groups" style="rounded=1;whiteSpace=wrap;html=1;" parent="1" vertex="1">
          <mxGeometry x="-683" y="-879" width="112" height="42" as="geometry" />
        </mxCell>
        <mxCell id="_SJh_2kdL77l0nsIWq_a-15" value="" style="edgeStyle=orthogonalEdgeStyle;rounded=0;orthogonalLoop=1;jettySize=auto;html=1;" parent="1" source="_SJh_2kdL77l0nsIWq_a-13" target="_SJh_2kdL77l0nsIWq_a-14" edge="1">
          <mxGeometry relative="1" as="geometry" />
        </mxCell>
        <mxCell id="_SJh_2kdL77l0nsIWq_a-16" value="No" style="edgeLabel;html=1;align=center;verticalAlign=middle;resizable=0;points=[];" parent="_SJh_2kdL77l0nsIWq_a-15" vertex="1" connectable="0">
          <mxGeometry x="-0.0575" relative="1" as="geometry">
            <mxPoint as="offset" />
          </mxGeometry>
        </mxCell>
        <mxCell id="_SJh_2kdL77l0nsIWq_a-23" style="edgeStyle=orthogonalEdgeStyle;rounded=0;orthogonalLoop=1;jettySize=auto;html=1;" parent="1" source="_SJh_2kdL77l0nsIWq_a-13" target="_SJh_2kdL77l0nsIWq_a-18" edge="1">
          <mxGeometry relative="1" as="geometry">
            <Array as="points">
              <mxPoint x="-419" y="-692" />
            </Array>
          </mxGeometry>
        </mxCell>
        <mxCell id="_SJh_2kdL77l0nsIWq_a-24" value="Yes" style="edgeLabel;html=1;align=center;verticalAlign=middle;resizable=0;points=[];" parent="_SJh_2kdL77l0nsIWq_a-23" vertex="1" connectable="0">
          <mxGeometry x="-0.6467" y="1" relative="1" as="geometry">
            <mxPoint as="offset" />
          </mxGeometry>
        </mxCell>
        <mxCell id="_SJh_2kdL77l0nsIWq_a-13" value="Inventory posting" style="rhombus;whiteSpace=wrap;html=1;" parent="1" vertex="1">
          <mxGeometry x="-678.5" y="-719" width="103" height="53" as="geometry" />
        </mxCell>
        <mxCell id="_SJh_2kdL77l0nsIWq_a-14" value="Abort" style="strokeWidth=1;html=1;shape=mxgraph.flowchart.terminator;whiteSpace=wrap;" parent="1" vertex="1">
          <mxGeometry x="-660" y="-636" width="66" height="39" as="geometry" />
        </mxCell>
        <mxCell id="_SJh_2kdL77l0nsIWq_a-18" value="Stock Count" style="rounded=1;whiteSpace=wrap;html=1;absoluteArcSize=1;arcSize=14;strokeWidth=1;" parent="1" vertex="1">
          <mxGeometry x="-438" y="-940" width="109" height="43" as="geometry" />
        </mxCell>
        <mxCell id="_SJh_2kdL77l0nsIWq_a-22" style="edgeStyle=orthogonalEdgeStyle;rounded=0;orthogonalLoop=1;jettySize=auto;html=1;entryX=0.5;entryY=0;entryDx=0;entryDy=0;" parent="1" source="_SJh_2kdL77l0nsIWq_a-19" target="_SJh_2kdL77l0nsIWq_a-13" edge="1">
          <mxGeometry relative="1" as="geometry" />
        </mxCell>
        <mxCell id="_SJh_2kdL77l0nsIWq_a-19" value="Stocktake Date" style="rounded=1;whiteSpace=wrap;html=1;absoluteArcSize=1;arcSize=14;strokeWidth=1;" parent="1" vertex="1">
          <mxGeometry x="-681.5" y="-782" width="109" height="31" as="geometry" />
        </mxCell>
        <mxCell id="_SJh_2kdL77l0nsIWq_a-32" style="edgeStyle=orthogonalEdgeStyle;rounded=0;orthogonalLoop=1;jettySize=auto;html=1;" parent="1" source="_SJh_2kdL77l0nsIWq_a-26" edge="1">
          <mxGeometry relative="1" as="geometry">
            <mxPoint x="-383.1076202392578" y="-637.5" as="targetPoint" />
          </mxGeometry>
        </mxCell>
        <mxCell id="_SJh_2kdL77l0nsIWq_a-26" value="Stock take Day Sales" style="html=1;strokeWidth=1;shape=manualInput;whiteSpace=wrap;rounded=1;size=26;arcSize=11;" parent="1" vertex="1">
          <mxGeometry x="-521" y="-673" width="76" height="71" as="geometry" />
        </mxCell>
        <mxCell id="_SJh_2kdL77l0nsIWq_a-28" style="edgeStyle=orthogonalEdgeStyle;rounded=0;orthogonalLoop=1;jettySize=auto;html=1;entryX=0.347;entryY=0.093;entryDx=0;entryDy=0;entryPerimeter=0;" parent="1" source="_SJh_2kdL77l0nsIWq_a-18" edge="1">
          <mxGeometry relative="1" as="geometry">
            <mxPoint x="-384.17700000000013" y="-510.001" as="targetPoint" />
          </mxGeometry>
        </mxCell>
        <mxCell id="_SJh_2kdL77l0nsIWq_a-33" value="Stocktake Report" style="shape=parallelogram;html=1;strokeWidth=1;perimeter=parallelogramPerimeter;whiteSpace=wrap;rounded=1;arcSize=12;size=0.23;" parent="1" vertex="1">
          <mxGeometry x="-372" y="-648.44" width="125" height="41" as="geometry" />
        </mxCell>
        <mxCell id="_SJh_2kdL77l0nsIWq_a-39" value="" style="edgeStyle=orthogonalEdgeStyle;rounded=0;orthogonalLoop=1;jettySize=auto;html=1;" parent="1" source="_SJh_2kdL77l0nsIWq_a-36" target="_SJh_2kdL77l0nsIWq_a-33" edge="1">
          <mxGeometry relative="1" as="geometry">
            <Array as="points">
              <mxPoint x="-281" y="-498" />
            </Array>
          </mxGeometry>
        </mxCell>
        <mxCell id="_SJh_2kdL77l0nsIWq_a-40" value="Yes" style="edgeLabel;html=1;align=center;verticalAlign=middle;resizable=0;points=[];" parent="_SJh_2kdL77l0nsIWq_a-39" vertex="1" connectable="0">
          <mxGeometry x="-0.7697" y="-1" relative="1" as="geometry">
            <mxPoint as="offset" />
          </mxGeometry>
        </mxCell>
        <mxCell id="_SJh_2kdL77l0nsIWq_a-42" value="" style="edgeStyle=orthogonalEdgeStyle;rounded=0;orthogonalLoop=1;jettySize=auto;html=1;" parent="1" source="_SJh_2kdL77l0nsIWq_a-36" edge="1">
          <mxGeometry relative="1" as="geometry">
            <mxPoint x="-383.5" y="-443" as="targetPoint" />
          </mxGeometry>
        </mxCell>
        <mxCell id="_SJh_2kdL77l0nsIWq_a-36" value="Process Report" style="rhombus;whiteSpace=wrap;html=1;" parent="1" vertex="1">
          <mxGeometry x="-435" y="-525" width="103" height="53" as="geometry" />
        </mxCell>
        <mxCell id="_SJh_2kdL77l0nsIWq_a-43" value="Approval Request" style="rounded=1;whiteSpace=wrap;html=1;absoluteArcSize=1;arcSize=14;strokeWidth=1;" parent="1" vertex="1">
          <mxGeometry x="-315" y="-940" width="109" height="43" as="geometry" />
        </mxCell>
        <mxCell id="_SJh_2kdL77l0nsIWq_a-44" style="edgeStyle=orthogonalEdgeStyle;rounded=0;orthogonalLoop=1;jettySize=auto;html=1;entryX=0.191;entryY=0.982;entryDx=0;entryDy=0;entryPerimeter=0;" parent="1" source="_SJh_2kdL77l0nsIWq_a-33" target="_SJh_2kdL77l0nsIWq_a-43" edge="1">
          <mxGeometry relative="1" as="geometry">
            <mxPoint x="-274" y="-891" as="targetPoint" />
            <Array as="points">
              <mxPoint x="-294" y="-726" />
              <mxPoint x="-294" y="-726" />
            </Array>
          </mxGeometry>
        </mxCell>
        <mxCell id="_SJh_2kdL77l0nsIWq_a-51" style="edgeStyle=orthogonalEdgeStyle;rounded=0;orthogonalLoop=1;jettySize=auto;html=1;entryX=0.5;entryY=0;entryDx=0;entryDy=0;" parent="1" source="_SJh_2kdL77l0nsIWq_a-45" target="_SJh_2kdL77l0nsIWq_a-50" edge="1">
          <mxGeometry relative="1" as="geometry" />
        </mxCell>
        <mxCell id="_SJh_2kdL77l0nsIWq_a-45" value="Approval" style="strokeWidth=1;html=1;shape=mxgraph.flowchart.decision;whiteSpace=wrap;" parent="1" vertex="1">
          <mxGeometry x="-268" y="-870" width="86" height="49" as="geometry" />
        </mxCell>
        <mxCell id="_SJh_2kdL77l0nsIWq_a-46" value="" style="endArrow=classic;html=1;rounded=0;entryX=0.5;entryY=0;entryDx=0;entryDy=0;entryPerimeter=0;exitX=0.833;exitY=0.982;exitDx=0;exitDy=0;exitPerimeter=0;" parent="1" source="_SJh_2kdL77l0nsIWq_a-43" target="_SJh_2kdL77l0nsIWq_a-45" edge="1">
          <mxGeometry width="50" height="50" relative="1" as="geometry">
            <mxPoint x="-239" y="-894" as="sourcePoint" />
            <mxPoint x="-189" y="-944" as="targetPoint" />
          </mxGeometry>
        </mxCell>
        <mxCell id="_SJh_2kdL77l0nsIWq_a-47" value="Abort" style="strokeWidth=1;html=1;shape=mxgraph.flowchart.terminator;whiteSpace=wrap;" parent="1" vertex="1">
          <mxGeometry x="-121" y="-865" width="64" height="39" as="geometry" />
        </mxCell>
        <mxCell id="_SJh_2kdL77l0nsIWq_a-48" style="edgeStyle=orthogonalEdgeStyle;rounded=0;orthogonalLoop=1;jettySize=auto;html=1;entryX=0;entryY=0.5;entryDx=0;entryDy=0;entryPerimeter=0;" parent="1" source="_SJh_2kdL77l0nsIWq_a-45" target="_SJh_2kdL77l0nsIWq_a-47" edge="1">
          <mxGeometry relative="1" as="geometry" />
        </mxCell>
        <mxCell id="_SJh_2kdL77l0nsIWq_a-49" value="No" style="edgeLabel;html=1;align=center;verticalAlign=middle;resizable=0;points=[];" parent="_SJh_2kdL77l0nsIWq_a-48" vertex="1" connectable="0">
          <mxGeometry x="0.5483" y="3" relative="1" as="geometry">
            <mxPoint as="offset" />
          </mxGeometry>
        </mxCell>
        <mxCell id="_SJh_2kdL77l0nsIWq_a-54" style="edgeStyle=orthogonalEdgeStyle;rounded=0;orthogonalLoop=1;jettySize=auto;html=1;entryX=0.5;entryY=0;entryDx=0;entryDy=0;" parent="1" source="_SJh_2kdL77l0nsIWq_a-50" target="_SJh_2kdL77l0nsIWq_a-53" edge="1">
          <mxGeometry relative="1" as="geometry" />
        </mxCell>
        <mxCell id="_SJh_2kdL77l0nsIWq_a-50" value="Stocktake Adjustment" style="shape=parallelogram;html=1;strokeWidth=1;perimeter=parallelogramPerimeter;whiteSpace=wrap;rounded=1;arcSize=12;size=0.23;" parent="1" vertex="1">
          <mxGeometry x="-287" y="-723.57" width="125" height="41" as="geometry" />
        </mxCell>
        <mxCell id="_SJh_2kdL77l0nsIWq_a-53" value="" style="ellipse;whiteSpace=wrap;html=1;aspect=fixed;" parent="1" vertex="1">
          <mxGeometry x="-241" y="-489" width="32" height="32" as="geometry" />
        </mxCell>
        <mxCell id="_SJh_2kdL77l0nsIWq_a-55" value="&lt;h2 style=&quot;box-sizing: border-box; margin-top: 1.75rem; margin-bottom: 0.5rem; line-height: 1.2; font-size: 20px; padding-bottom: 1rem; font-family: &amp;quot;Source Sans Pro&amp;quot;, HelveticaNeue-Light, &amp;quot;Helvetica Neue Light&amp;quot;, &amp;quot;Helvetica Neue&amp;quot;, Helvetica, Arial, &amp;quot;Lucida Grande&amp;quot;, sans-serif; background-color: rgb(255, 255, 255);&quot;&gt;ISETAN Stocktake Process Flow&lt;/h2&gt;" style="text;html=1;align=left;verticalAlign=middle;whiteSpace=wrap;rounded=0;fontSize=20;fontStyle=1;fontColor=#000066;" parent="1" vertex="1">
          <mxGeometry x="-792.0049999999999" y="30" width="478" height="36" as="geometry" />
        </mxCell>
        <mxCell id="_SJh_2kdL77l0nsIWq_a-56" value="" style="shape=process;whiteSpace=wrap;html=1;backgroundOutline=1;rounded=0;" parent="1" vertex="1">
          <mxGeometry x="-792.0049999999999" y="111" width="749" height="189" as="geometry" />
        </mxCell>
        <mxCell id="_SJh_2kdL77l0nsIWq_a-57" value="" style="shape=process;whiteSpace=wrap;html=1;backgroundOutline=1;rounded=0;" parent="1" vertex="1">
          <mxGeometry x="-792" y="541" width="749" height="190" as="geometry" />
        </mxCell>
        <mxCell id="_SJh_2kdL77l0nsIWq_a-58" value="" style="shape=process;whiteSpace=wrap;html=1;backgroundOutline=1;rounded=0;" parent="1" vertex="1">
          <mxGeometry x="-792.0049999999999" y="748.5" width="749" height="164" as="geometry" />
        </mxCell>
        <mxCell id="_SJh_2kdL77l0nsIWq_a-59" value="&lt;font style=&quot;font-size: 14px;&quot;&gt;STORE&lt;/font&gt;" style="rounded=0;whiteSpace=wrap;html=1;rotation=-90;strokeColor=#FFD966;fillColor=#fff2cc;fontColor=#CC6600;labelBorderColor=none;" parent="1" vertex="1">
          <mxGeometry x="-848.0049999999999" y="167" width="186" height="75.13" as="geometry" />
        </mxCell>
        <mxCell id="_SJh_2kdL77l0nsIWq_a-60" value="&lt;h2 style=&quot;box-sizing: border-box; margin-top: 1.75rem; margin-bottom: 0.5rem; line-height: 1.2; font-size: 16px; color: rgb(3, 155, 229); padding-bottom: 1rem; font-family: &amp;quot;Source Sans Pro&amp;quot;, HelveticaNeue-Light, &amp;quot;Helvetica Neue Light&amp;quot;, &amp;quot;Helvetica Neue&amp;quot;, Helvetica, Arial, &amp;quot;Lucida Grande&amp;quot;, sans-serif; background-color: rgb(255, 255, 255);&quot;&gt;Annual Stocktake&lt;/h2&gt;" style="text;html=1;align=left;verticalAlign=middle;whiteSpace=wrap;rounded=0;fontSize=16;fontStyle=1" parent="1" vertex="1">
          <mxGeometry x="-792.0049999999999" y="66" width="478" height="30" as="geometry" />
        </mxCell>
        <mxCell id="_SJh_2kdL77l0nsIWq_a-61" value="&lt;font style=&quot;font-size: 14px;&quot;&gt;Finance&lt;/font&gt;" style="rounded=0;whiteSpace=wrap;html=1;rotation=-90;strokeColor=#82b366;fillColor=#d5e8d4;labelBorderColor=none;fontColor=#006600;" parent="1" vertex="1">
          <mxGeometry x="-834.7549999999999" y="791.5" width="163.5" height="75.13" as="geometry" />
        </mxCell>
        <mxCell id="_SJh_2kdL77l0nsIWq_a-62" value="&lt;font style=&quot;font-size: 14px;&quot;&gt;Business Central&lt;/font&gt;" style="rounded=0;whiteSpace=wrap;html=1;rotation=-90;strokeColor=#d79b00;fillColor=#ffe6cc;labelBorderColor=none;fontColor=#CC6600;" parent="1" vertex="1">
          <mxGeometry x="-849.26" y="598.19" width="188.51" height="75.13" as="geometry" />
        </mxCell>
        <mxCell id="_SJh_2kdL77l0nsIWq_a-63" value="" style="edgeStyle=orthogonalEdgeStyle;rounded=0;orthogonalLoop=1;jettySize=auto;html=1;" parent="1" source="_SJh_2kdL77l0nsIWq_a-64" target="_SJh_2kdL77l0nsIWq_a-66" edge="1">
          <mxGeometry relative="1" as="geometry" />
        </mxCell>
        <mxCell id="_SJh_2kdL77l0nsIWq_a-64" value="" style="ellipse;whiteSpace=wrap;html=1;aspect=fixed;" parent="1" vertex="1">
          <mxGeometry x="-651.0049999999999" y="126" width="32" height="32" as="geometry" />
        </mxCell>
        <mxCell id="_SJh_2kdL77l0nsIWq_a-108" value="" style="edgeStyle=orthogonalEdgeStyle;rounded=0;orthogonalLoop=1;jettySize=auto;html=1;" parent="1" source="_SJh_2kdL77l0nsIWq_a-66" target="_SJh_2kdL77l0nsIWq_a-75" edge="1">
          <mxGeometry relative="1" as="geometry" />
        </mxCell>
        <mxCell id="_SJh_2kdL77l0nsIWq_a-66" value="Store Counting&lt;br&gt;Map&amp;nbsp;" style="rounded=1;whiteSpace=wrap;html=1;" parent="1" vertex="1">
          <mxGeometry x="-691.0049999999999" y="222" width="112" height="42" as="geometry" />
        </mxCell>
        <mxCell id="_SJh_2kdL77l0nsIWq_a-67" value="" style="edgeStyle=orthogonalEdgeStyle;rounded=0;orthogonalLoop=1;jettySize=auto;html=1;exitX=0.5;exitY=1;exitDx=0;exitDy=0;" parent="1" source="_SJh_2kdL77l0nsIWq_a-71" target="_SJh_2kdL77l0nsIWq_a-72" edge="1">
          <mxGeometry relative="1" as="geometry">
            <mxPoint x="-635" y="650.4974271844662" as="sourcePoint" />
          </mxGeometry>
        </mxCell>
        <mxCell id="_SJh_2kdL77l0nsIWq_a-68" value="No" style="edgeLabel;html=1;align=center;verticalAlign=middle;resizable=0;points=[];" parent="_SJh_2kdL77l0nsIWq_a-67" vertex="1" connectable="0">
          <mxGeometry x="-0.0575" relative="1" as="geometry">
            <mxPoint as="offset" />
          </mxGeometry>
        </mxCell>
        <mxCell id="_SJh_2kdL77l0nsIWq_a-136" style="edgeStyle=orthogonalEdgeStyle;rounded=0;orthogonalLoop=1;jettySize=auto;html=1;entryX=0.5;entryY=1;entryDx=0;entryDy=0;" parent="1" source="_SJh_2kdL77l0nsIWq_a-71" target="_SJh_2kdL77l0nsIWq_a-99" edge="1">
          <mxGeometry relative="1" as="geometry" />
        </mxCell>
        <mxCell id="_SJh_2kdL77l0nsIWq_a-71" value="Inventory posting" style="rhombus;whiteSpace=wrap;html=1;" parent="1" vertex="1">
          <mxGeometry x="-686.5049999999999" y="563" width="103" height="53" as="geometry" />
        </mxCell>
        <mxCell id="_SJh_2kdL77l0nsIWq_a-72" value="Abort" style="strokeWidth=1;html=1;shape=mxgraph.flowchart.terminator;whiteSpace=wrap;" parent="1" vertex="1">
          <mxGeometry x="-668.0049999999999" y="673.32" width="66" height="39" as="geometry" />
        </mxCell>
        <mxCell id="_SJh_2kdL77l0nsIWq_a-73" value="Stock Count Check" style="rounded=1;whiteSpace=wrap;html=1;absoluteArcSize=1;arcSize=14;strokeWidth=1;" parent="1" vertex="1">
          <mxGeometry x="-499.00499999999994" y="161" width="109" height="43" as="geometry" />
        </mxCell>
        <mxCell id="_SJh_2kdL77l0nsIWq_a-106" style="edgeStyle=orthogonalEdgeStyle;rounded=0;orthogonalLoop=1;jettySize=auto;html=1;entryX=0.5;entryY=0;entryDx=0;entryDy=0;" parent="1" source="_SJh_2kdL77l0nsIWq_a-75" target="_SJh_2kdL77l0nsIWq_a-99" edge="1">
          <mxGeometry relative="1" as="geometry" />
        </mxCell>
        <mxCell id="_SJh_2kdL77l0nsIWq_a-75" value="Stocktake Date" style="rounded=1;whiteSpace=wrap;html=1;absoluteArcSize=1;arcSize=14;strokeWidth=1;" parent="1" vertex="1">
          <mxGeometry x="-689.5" y="328" width="109" height="33" as="geometry" />
        </mxCell>
        <mxCell id="_SJh_2kdL77l0nsIWq_a-135" style="edgeStyle=orthogonalEdgeStyle;rounded=0;orthogonalLoop=1;jettySize=auto;html=1;" parent="1" source="_SJh_2kdL77l0nsIWq_a-77" edge="1">
          <mxGeometry relative="1" as="geometry">
            <mxPoint x="-438.2187042236328" y="594.5" as="targetPoint" />
          </mxGeometry>
        </mxCell>
        <mxCell id="_SJh_2kdL77l0nsIWq_a-77" value="Stocktake Date Sales" style="html=1;strokeWidth=2;shape=manualInput;whiteSpace=wrap;rounded=1;size=26;arcSize=11;" parent="1" vertex="1">
          <mxGeometry x="-558" y="559" width="72" height="71" as="geometry" />
        </mxCell>
        <mxCell id="_SJh_2kdL77l0nsIWq_a-79" value="Stocktake Report" style="shape=parallelogram;html=1;strokeWidth=1;perimeter=parallelogramPerimeter;whiteSpace=wrap;rounded=1;arcSize=12;size=0.23;" parent="1" vertex="1">
          <mxGeometry x="-397.00499999999994" y="650.9999999999999" width="125" height="41" as="geometry" />
        </mxCell>
        <mxCell id="_SJh_2kdL77l0nsIWq_a-129" value="" style="edgeStyle=orthogonalEdgeStyle;rounded=0;orthogonalLoop=1;jettySize=auto;html=1;" parent="1" source="_SJh_2kdL77l0nsIWq_a-83" edge="1">
          <mxGeometry relative="1" as="geometry">
            <mxPoint x="-440.5" y="877" as="targetPoint" />
          </mxGeometry>
        </mxCell>
        <mxCell id="_SJh_2kdL77l0nsIWq_a-132" value="No" style="edgeLabel;html=1;align=center;verticalAlign=middle;resizable=0;points=[];" parent="_SJh_2kdL77l0nsIWq_a-129" vertex="1" connectable="0">
          <mxGeometry x="-0.3514" y="-4" relative="1" as="geometry">
            <mxPoint as="offset" />
          </mxGeometry>
        </mxCell>
        <mxCell id="_SJh_2kdL77l0nsIWq_a-130" style="edgeStyle=orthogonalEdgeStyle;rounded=0;orthogonalLoop=1;jettySize=auto;html=1;" parent="1" source="_SJh_2kdL77l0nsIWq_a-83" target="_SJh_2kdL77l0nsIWq_a-79" edge="1">
          <mxGeometry relative="1" as="geometry">
            <Array as="points">
              <mxPoint x="-334" y="818" />
            </Array>
          </mxGeometry>
        </mxCell>
        <mxCell id="_SJh_2kdL77l0nsIWq_a-131" value="Yes" style="edgeLabel;html=1;align=center;verticalAlign=middle;resizable=0;points=[];" parent="_SJh_2kdL77l0nsIWq_a-130" vertex="1" connectable="0">
          <mxGeometry x="-0.6808" y="3" relative="1" as="geometry">
            <mxPoint as="offset" />
          </mxGeometry>
        </mxCell>
        <mxCell id="_SJh_2kdL77l0nsIWq_a-83" value="Process Report" style="rhombus;whiteSpace=wrap;html=1;" parent="1" vertex="1">
          <mxGeometry x="-491.99499999999995" y="791.5" width="103" height="53" as="geometry" />
        </mxCell>
        <mxCell id="_SJh_2kdL77l0nsIWq_a-85" value="Approval Request" style="rounded=1;whiteSpace=wrap;html=1;absoluteArcSize=1;arcSize=14;strokeWidth=1;" parent="1" vertex="1">
          <mxGeometry x="-323.00499999999994" y="161" width="109" height="43" as="geometry" />
        </mxCell>
        <mxCell id="_SJh_2kdL77l0nsIWq_a-88" value="Approval" style="strokeWidth=1;html=1;shape=mxgraph.flowchart.decision;whiteSpace=wrap;" parent="1" vertex="1">
          <mxGeometry x="-276.00499999999994" y="231" width="86" height="49" as="geometry" />
        </mxCell>
        <mxCell id="_SJh_2kdL77l0nsIWq_a-89" value="" style="endArrow=classic;html=1;rounded=0;entryX=0.5;entryY=0;entryDx=0;entryDy=0;entryPerimeter=0;exitX=0.833;exitY=0.982;exitDx=0;exitDy=0;exitPerimeter=0;" parent="1" source="_SJh_2kdL77l0nsIWq_a-85" target="_SJh_2kdL77l0nsIWq_a-88" edge="1">
          <mxGeometry width="50" height="50" relative="1" as="geometry">
            <mxPoint x="-247.00499999999994" y="207" as="sourcePoint" />
            <mxPoint x="-197.00499999999994" y="157" as="targetPoint" />
          </mxGeometry>
        </mxCell>
        <mxCell id="_SJh_2kdL77l0nsIWq_a-90" value="Abort" style="strokeWidth=1;html=1;shape=mxgraph.flowchart.terminator;whiteSpace=wrap;" parent="1" vertex="1">
          <mxGeometry x="-184" y="266" width="53" height="30" as="geometry" />
        </mxCell>
        <mxCell id="_SJh_2kdL77l0nsIWq_a-93" style="edgeStyle=orthogonalEdgeStyle;rounded=0;orthogonalLoop=1;jettySize=auto;html=1;entryX=0.5;entryY=0;entryDx=0;entryDy=0;" parent="1" source="_SJh_2kdL77l0nsIWq_a-94" target="_SJh_2kdL77l0nsIWq_a-95" edge="1">
          <mxGeometry relative="1" as="geometry">
            <mxPoint x="-232.5" y="633.9299999999998" as="sourcePoint" />
          </mxGeometry>
        </mxCell>
        <mxCell id="_SJh_2kdL77l0nsIWq_a-94" value="Stocktake Adjustment" style="shape=parallelogram;html=1;strokeWidth=1;perimeter=parallelogramPerimeter;whiteSpace=wrap;rounded=1;arcSize=12;size=0.23;" parent="1" vertex="1">
          <mxGeometry x="-286" y="651" width="140.99" height="41" as="geometry" />
        </mxCell>
        <mxCell id="_SJh_2kdL77l0nsIWq_a-95" value="" style="ellipse;whiteSpace=wrap;html=1;aspect=fixed;" parent="1" vertex="1">
          <mxGeometry x="-231.50499999999994" y="828" width="32" height="32" as="geometry" />
        </mxCell>
        <mxCell id="_SJh_2kdL77l0nsIWq_a-97" value="&lt;font style=&quot;font-size: 17px;&quot;&gt;AJIS&lt;/font&gt;" style="rounded=0;whiteSpace=wrap;html=1;rotation=-90;strokeColor=#6c8ebf;fillColor=#dae8fc;labelBorderColor=none;fontColor=#000099;" parent="1" vertex="1">
          <mxGeometry x="-861.44" y="384.11" width="212.87" height="75.13" as="geometry" />
        </mxCell>
        <mxCell id="_SJh_2kdL77l0nsIWq_a-107" value="" style="edgeStyle=orthogonalEdgeStyle;rounded=0;orthogonalLoop=1;jettySize=auto;html=1;" parent="1" source="_SJh_2kdL77l0nsIWq_a-99" target="_SJh_2kdL77l0nsIWq_a-100" edge="1">
          <mxGeometry relative="1" as="geometry" />
        </mxCell>
        <mxCell id="_SJh_2kdL77l0nsIWq_a-99" value="Counting" style="rounded=1;whiteSpace=wrap;html=1;absoluteArcSize=1;arcSize=14;strokeWidth=1;" parent="1" vertex="1">
          <mxGeometry x="-689.5" y="412" width="109" height="33" as="geometry" />
        </mxCell>
        <mxCell id="_SJh_2kdL77l0nsIWq_a-109" style="edgeStyle=orthogonalEdgeStyle;rounded=0;orthogonalLoop=1;jettySize=auto;html=1;entryX=0.25;entryY=1;entryDx=0;entryDy=0;" parent="1" source="_SJh_2kdL77l0nsIWq_a-100" target="_SJh_2kdL77l0nsIWq_a-73" edge="1">
          <mxGeometry relative="1" as="geometry" />
        </mxCell>
        <mxCell id="_SJh_2kdL77l0nsIWq_a-100" value="Counting Sheets" style="strokeWidth=1;html=1;shape=mxgraph.flowchart.document2;whiteSpace=wrap;size=0.25;" parent="1" vertex="1">
          <mxGeometry x="-558" y="346.11" width="94" height="38" as="geometry" />
        </mxCell>
        <mxCell id="_SJh_2kdL77l0nsIWq_a-102" style="edgeStyle=orthogonalEdgeStyle;rounded=0;orthogonalLoop=1;jettySize=auto;html=1;entryX=0.5;entryY=0;entryDx=0;entryDy=0;" parent="1" source="_SJh_2kdL77l0nsIWq_a-101" target="_SJh_2kdL77l0nsIWq_a-83" edge="1">
          <mxGeometry relative="1" as="geometry" />
        </mxCell>
        <mxCell id="_SJh_2kdL77l0nsIWq_a-101" value="Final Counting Result" style="rounded=1;whiteSpace=wrap;html=1;absoluteArcSize=1;arcSize=14;strokeWidth=1;" parent="1" vertex="1">
          <mxGeometry x="-495" y="475" width="109" height="33" as="geometry" />
        </mxCell>
        <mxCell id="_SJh_2kdL77l0nsIWq_a-114" style="edgeStyle=orthogonalEdgeStyle;rounded=0;orthogonalLoop=1;jettySize=auto;html=1;entryX=0.75;entryY=0;entryDx=0;entryDy=0;" parent="1" source="_SJh_2kdL77l0nsIWq_a-110" target="_SJh_2kdL77l0nsIWq_a-101" edge="1">
          <mxGeometry relative="1" as="geometry" />
        </mxCell>
        <mxCell id="_SJh_2kdL77l0nsIWq_a-110" value="Correct Counting" style="strokeWidth=1;html=1;shape=mxgraph.flowchart.decision;whiteSpace=wrap;" parent="1" vertex="1">
          <mxGeometry x="-456.00499999999994" y="343" width="86" height="49" as="geometry" />
        </mxCell>
        <mxCell id="_SJh_2kdL77l0nsIWq_a-111" value="Recount" style="rounded=1;whiteSpace=wrap;html=1;absoluteArcSize=1;arcSize=14;strokeWidth=1;" parent="1" vertex="1">
          <mxGeometry x="-380.01" y="406" width="70.01" height="33" as="geometry" />
        </mxCell>
        <mxCell id="_SJh_2kdL77l0nsIWq_a-115" style="edgeStyle=orthogonalEdgeStyle;rounded=0;orthogonalLoop=1;jettySize=auto;html=1;entryX=0.5;entryY=0;entryDx=0;entryDy=0;entryPerimeter=0;" parent="1" source="_SJh_2kdL77l0nsIWq_a-73" target="_SJh_2kdL77l0nsIWq_a-110" edge="1">
          <mxGeometry relative="1" as="geometry" />
        </mxCell>
        <mxCell id="_SJh_2kdL77l0nsIWq_a-120" style="edgeStyle=orthogonalEdgeStyle;rounded=0;orthogonalLoop=1;jettySize=auto;html=1;entryX=0.857;entryY=0.081;entryDx=0;entryDy=0;entryPerimeter=0;" parent="1" source="_SJh_2kdL77l0nsIWq_a-111" target="_SJh_2kdL77l0nsIWq_a-101" edge="1">
          <mxGeometry relative="1" as="geometry" />
        </mxCell>
        <mxCell id="_SJh_2kdL77l0nsIWq_a-123" value="" style="endArrow=classic;html=1;rounded=0;entryX=0.5;entryY=0;entryDx=0;entryDy=0;exitX=1;exitY=0.5;exitDx=0;exitDy=0;exitPerimeter=0;" parent="1" source="_SJh_2kdL77l0nsIWq_a-110" target="_SJh_2kdL77l0nsIWq_a-111" edge="1">
          <mxGeometry width="50" height="50" relative="1" as="geometry">
            <mxPoint x="-369" y="369" as="sourcePoint" />
            <mxPoint x="-319" y="319" as="targetPoint" />
            <Array as="points">
              <mxPoint x="-345" y="368" />
            </Array>
          </mxGeometry>
        </mxCell>
        <mxCell id="_SJh_2kdL77l0nsIWq_a-124" value="No" style="edgeLabel;html=1;align=center;verticalAlign=middle;resizable=0;points=[];" parent="_SJh_2kdL77l0nsIWq_a-123" vertex="1" connectable="0">
          <mxGeometry x="-0.0322" y="-5" relative="1" as="geometry">
            <mxPoint as="offset" />
          </mxGeometry>
        </mxCell>
        <mxCell id="_SJh_2kdL77l0nsIWq_a-125" value="" style="endArrow=classic;html=1;rounded=0;entryX=0.25;entryY=1;entryDx=0;entryDy=0;" parent="1" target="_SJh_2kdL77l0nsIWq_a-85" edge="1">
          <mxGeometry width="50" height="50" relative="1" as="geometry">
            <mxPoint x="-298" y="652" as="sourcePoint" />
            <mxPoint x="-248" y="602" as="targetPoint" />
          </mxGeometry>
        </mxCell>
        <mxCell id="_SJh_2kdL77l0nsIWq_a-126" style="edgeStyle=orthogonalEdgeStyle;rounded=0;orthogonalLoop=1;jettySize=auto;html=1;entryX=0.371;entryY=0.055;entryDx=0;entryDy=0;entryPerimeter=0;" parent="1" source="_SJh_2kdL77l0nsIWq_a-88" target="_SJh_2kdL77l0nsIWq_a-94" edge="1">
          <mxGeometry relative="1" as="geometry" />
        </mxCell>
        <mxCell id="_SJh_2kdL77l0nsIWq_a-133" value="Yes" style="edgeLabel;html=1;align=center;verticalAlign=middle;resizable=0;points=[];" parent="_SJh_2kdL77l0nsIWq_a-126" vertex="1" connectable="0">
          <mxGeometry x="-0.5965" y="2" relative="1" as="geometry">
            <mxPoint as="offset" />
          </mxGeometry>
        </mxCell>
        <mxCell id="_SJh_2kdL77l0nsIWq_a-128" style="edgeStyle=orthogonalEdgeStyle;rounded=0;orthogonalLoop=1;jettySize=auto;html=1;exitX=0.81;exitY=0;exitDx=0;exitDy=0;exitPerimeter=0;entryX=0.911;entryY=0.306;entryDx=0;entryDy=0;entryPerimeter=0;" parent="1" edge="1">
          <mxGeometry relative="1" as="geometry">
            <mxPoint x="-419.1118999999999" y="877" as="sourcePoint" />
            <mxPoint x="-412.1418899999999" y="884.344" as="targetPoint" />
          </mxGeometry>
        </mxCell>
        <mxCell id="_SJh_2kdL77l0nsIWq_a-138" style="edgeStyle=orthogonalEdgeStyle;rounded=0;orthogonalLoop=1;jettySize=auto;html=1;entryX=0.5;entryY=0;entryDx=0;entryDy=0;entryPerimeter=0;" parent="1" source="_SJh_2kdL77l0nsIWq_a-88" target="_SJh_2kdL77l0nsIWq_a-90" edge="1">
          <mxGeometry relative="1" as="geometry" />
        </mxCell>
        <mxCell id="_SJh_2kdL77l0nsIWq_a-139" value="No" style="edgeLabel;html=1;align=center;verticalAlign=middle;resizable=0;points=[];" parent="_SJh_2kdL77l0nsIWq_a-138" vertex="1" connectable="0">
          <mxGeometry x="-0.2387" y="-1" relative="1" as="geometry">
            <mxPoint as="offset" />
          </mxGeometry>
        </mxCell>
        <mxCell id="_SJh_2kdL77l0nsIWq_a-141" value="Abort" style="strokeWidth=1;html=1;shape=mxgraph.flowchart.terminator;whiteSpace=wrap;" parent="1" vertex="1">
          <mxGeometry x="-469" y="878" width="53" height="30" as="geometry" />
        </mxCell>
        <mxCell id="_SJh_2kdL77l0nsIWq_a-142" value="Abort" style="strokeWidth=1;html=1;shape=mxgraph.flowchart.terminator;whiteSpace=wrap;" parent="1" vertex="1">
          <mxGeometry x="-415.5" y="-443" width="64" height="30" as="geometry" />
        </mxCell>
        <mxCell id="_SJh_2kdL77l0nsIWq_a-202" value="&lt;h2 style=&quot;box-sizing: border-box; margin-top: 1.75rem; margin-bottom: 0.5rem; line-height: 1.2; font-size: 20px; padding-bottom: 1rem; font-family: &amp;quot;Source Sans Pro&amp;quot;, HelveticaNeue-Light, &amp;quot;Helvetica Neue Light&amp;quot;, &amp;quot;Helvetica Neue&amp;quot;, Helvetica, Arial, &amp;quot;Lucida Grande&amp;quot;, sans-serif; background-color: rgb(255, 255, 255);&quot;&gt;ISETAN Stocktake Process Flow | Current Flow&lt;/h2&gt;" style="text;html=1;align=left;verticalAlign=middle;whiteSpace=wrap;rounded=0;fontSize=20;fontStyle=1;fontColor=#000066;" parent="1" vertex="1">
          <mxGeometry x="-784.28" y="1202" width="478" height="36" as="geometry" />
        </mxCell>
        <mxCell id="_SJh_2kdL77l0nsIWq_a-203" value="&lt;h2 style=&quot;box-sizing: border-box; margin-top: 1.75rem; margin-bottom: 0.5rem; line-height: 1.2; font-size: 16px; color: rgb(3, 155, 229); padding-bottom: 1rem; font-family: &amp;quot;Source Sans Pro&amp;quot;, HelveticaNeue-Light, &amp;quot;Helvetica Neue Light&amp;quot;, &amp;quot;Helvetica Neue&amp;quot;, Helvetica, Arial, &amp;quot;Lucida Grande&amp;quot;, sans-serif; background-color: rgb(255, 255, 255);&quot;&gt;Inventory Posting time line&lt;/h2&gt;" style="text;html=1;align=left;verticalAlign=middle;whiteSpace=wrap;rounded=0;fontSize=16;fontStyle=1" parent="1" vertex="1">
          <mxGeometry x="-784.28" y="1238" width="478" height="30" as="geometry" />
        </mxCell>
        <mxCell id="_SJh_2kdL77l0nsIWq_a-204" value="A | Inventory/Sales posting" style="rounded=1;whiteSpace=wrap;html=1;absoluteArcSize=1;arcSize=14;strokeWidth=2;fillColor=#fff2cc;strokeColor=#d6b656;" parent="1" vertex="1">
          <mxGeometry x="-778.92" y="1479" width="492.92" height="53" as="geometry" />
        </mxCell>
        <mxCell id="_SJh_2kdL77l0nsIWq_a-208" value="Stock Take Day" style="rounded=1;whiteSpace=wrap;html=1;absoluteArcSize=1;arcSize=14;strokeWidth=2;fillColor=#dae8fc;strokeColor=#6c8ebf;align=left;" parent="1" vertex="1">
          <mxGeometry x="-391.78" y="1419.98" width="105.78" height="53" as="geometry" />
        </mxCell>
        <mxCell id="_SJh_2kdL77l0nsIWq_a-209" value="Day Before Stock take day" style="rounded=1;whiteSpace=wrap;html=1;absoluteArcSize=1;arcSize=14;strokeWidth=2;fillColor=#dae8fc;strokeColor=#6c8ebf;" parent="1" vertex="1">
          <mxGeometry x="-505" y="1419.98" width="109" height="53" as="geometry" />
        </mxCell>
        <mxCell id="_SJh_2kdL77l0nsIWq_a-210" value="" style="endArrow=none;html=1;rounded=0;" parent="1" edge="1">
          <mxGeometry width="50" height="50" relative="1" as="geometry">
            <mxPoint x="-509" y="1591" as="sourcePoint" />
            <mxPoint x="-513" y="1298" as="targetPoint" />
          </mxGeometry>
        </mxCell>
        <mxCell id="_SJh_2kdL77l0nsIWq_a-211" value="Cutoff Date" style="edgeLabel;html=1;align=center;verticalAlign=middle;resizable=0;points=[];" parent="_SJh_2kdL77l0nsIWq_a-210" vertex="1" connectable="0">
          <mxGeometry x="0.8232" relative="1" as="geometry">
            <mxPoint x="1" y="29" as="offset" />
          </mxGeometry>
        </mxCell>
        <mxCell id="_SJh_2kdL77l0nsIWq_a-212" value="" style="endArrow=none;html=1;rounded=0;" parent="1" edge="1">
          <mxGeometry width="50" height="50" relative="1" as="geometry">
            <mxPoint x="-279.28" y="1592.98" as="sourcePoint" />
            <mxPoint x="-279" y="1297" as="targetPoint" />
          </mxGeometry>
        </mxCell>
        <mxCell id="_SJh_2kdL77l0nsIWq_a-213" value="Inventory as of Stock take&lt;br&gt;Date&amp;nbsp;" style="edgeLabel;html=1;align=center;verticalAlign=middle;resizable=0;points=[];" parent="_SJh_2kdL77l0nsIWq_a-212" vertex="1" connectable="0">
          <mxGeometry x="0.8232" relative="1" as="geometry">
            <mxPoint x="1" y="29" as="offset" />
          </mxGeometry>
        </mxCell>
        <mxCell id="_SJh_2kdL77l0nsIWq_a-217" value="Stock Count" style="edgeLabel;html=1;align=center;verticalAlign=middle;resizable=0;points=[];" parent="_SJh_2kdL77l0nsIWq_a-212" vertex="1" connectable="0">
          <mxGeometry x="-0.769" y="-1" relative="1" as="geometry">
            <mxPoint x="-3" y="29" as="offset" />
          </mxGeometry>
        </mxCell>
        <mxCell id="_SJh_2kdL77l0nsIWq_a-215" value="" style="endArrow=classic;html=1;rounded=0;" parent="1" edge="1">
          <mxGeometry width="50" height="50" relative="1" as="geometry">
            <mxPoint x="-763.01" y="1611" as="sourcePoint" />
            <mxPoint x="-276.01" y="1607" as="targetPoint" />
          </mxGeometry>
        </mxCell>
        <mxCell id="_SJh_2kdL77l0nsIWq_a-216" value="A&amp;nbsp;&amp;nbsp;" style="edgeLabel;html=1;align=center;verticalAlign=middle;resizable=0;points=[];" parent="_SJh_2kdL77l0nsIWq_a-215" vertex="1" connectable="0">
          <mxGeometry x="-0.1785" y="1" relative="1" as="geometry">
            <mxPoint as="offset" />
          </mxGeometry>
        </mxCell>
        <mxCell id="_SJh_2kdL77l0nsIWq_a-218" value="&amp;nbsp;Draft Variance Report" style="rounded=1;whiteSpace=wrap;html=1;absoluteArcSize=1;arcSize=14;strokeWidth=2;verticalAlign=middle;horizontal=0;fillColor=#f8cecc;strokeColor=#b85450;" parent="1" vertex="1">
          <mxGeometry x="-246" y="1394.98" width="16.01" height="147.02" as="geometry" />
        </mxCell>
        <mxCell id="_SJh_2kdL77l0nsIWq_a-220" value="Stock Count" style="rounded=1;whiteSpace=wrap;html=1;absoluteArcSize=1;arcSize=14;strokeWidth=2;verticalAlign=middle;horizontal=0;fillColor=#fff2cc;strokeColor=#d6b656;" parent="1" vertex="1">
          <mxGeometry x="-267.5" y="1394" width="16.01" height="148" as="geometry" />
        </mxCell>
        <mxCell id="_SJh_2kdL77l0nsIWq_a-223" value="Stock Recount" style="rounded=1;whiteSpace=wrap;html=1;absoluteArcSize=1;arcSize=14;strokeWidth=2;verticalAlign=middle;horizontal=0;fillColor=#fff2cc;strokeColor=#d6b656;" parent="1" vertex="1">
          <mxGeometry x="-224.01" y="1393" width="16.01" height="148" as="geometry" />
        </mxCell>
        <mxCell id="_SJh_2kdL77l0nsIWq_a-224" value="Final Variance Report" style="rounded=1;whiteSpace=wrap;html=1;absoluteArcSize=1;arcSize=14;strokeWidth=2;verticalAlign=middle;horizontal=0;fillColor=#f8cecc;strokeColor=#b85450;" parent="1" vertex="1">
          <mxGeometry x="-201.28" y="1393.98" width="16.01" height="147.02" as="geometry" />
        </mxCell>
        <mxCell id="_SJh_2kdL77l0nsIWq_a-246" value="Item Master" style="rounded=1;whiteSpace=wrap;html=1;absoluteArcSize=1;arcSize=14;strokeWidth=2;fillColor=#fff2cc;strokeColor=#d6b656;" parent="1" vertex="1">
          <mxGeometry x="-788" y="1756" width="43.28" height="375" as="geometry" />
        </mxCell>
        <mxCell id="_SJh_2kdL77l0nsIWq_a-247" value="&lt;br&gt;All&lt;br&gt;Divisions" style="rounded=1;whiteSpace=wrap;html=1;absoluteArcSize=1;arcSize=14;strokeWidth=2;fillColor=#dae8fc;strokeColor=#6c8ebf;" parent="1" vertex="1">
          <mxGeometry x="-737.72" y="1755" width="64" height="375" as="geometry" />
        </mxCell>
        <mxCell id="_SJh_2kdL77l0nsIWq_a-250" value="&lt;br&gt;All&lt;br&gt;Item Category&lt;br&gt;&amp;nbsp;Codes" style="rounded=1;whiteSpace=wrap;html=1;absoluteArcSize=1;arcSize=14;strokeWidth=1;fillColor=#f5f5f5;strokeColor=#666666;fontColor=#333333;" parent="1" vertex="1">
          <mxGeometry x="-668.29" y="1757" width="96.57" height="373" as="geometry" />
        </mxCell>
        <mxCell id="_SJh_2kdL77l0nsIWq_a-265" value="All&lt;br&gt;Retail Product &lt;br&gt;Groups" style="rounded=0;whiteSpace=wrap;html=1;fillColor=#d5e8d4;strokeColor=#82b366;" parent="1" vertex="1">
          <mxGeometry x="-566.72" y="1759" width="135.27" height="370" as="geometry" />
        </mxCell>
        <mxCell id="_SJh_2kdL77l0nsIWq_a-279" value="LS Inventory&lt;br&gt;Balance" style="rounded=1;whiteSpace=wrap;html=1;absoluteArcSize=1;arcSize=14;strokeWidth=1;fillColor=#f5f5f5;strokeColor=#666666;fontColor=#333333;" parent="1" vertex="1">
          <mxGeometry x="-376.17" y="1760.5" width="55.45" height="366.5" as="geometry" />
        </mxCell>
        <mxCell id="_SJh_2kdL77l0nsIWq_a-281" value="" style="shape=flexArrow;endArrow=classic;html=1;rounded=0;fillColor=#60a917;strokeColor=#2D7600;" parent="1" edge="1">
          <mxGeometry width="50" height="50" relative="1" as="geometry">
            <mxPoint x="-426.1700000000001" y="1943.5" as="sourcePoint" />
            <mxPoint x="-376.1700000000001" y="1943.5" as="targetPoint" />
          </mxGeometry>
        </mxCell>
        <mxCell id="_SJh_2kdL77l0nsIWq_a-296" value="&lt;h2 style=&quot;box-sizing: border-box; margin-top: 1.75rem; margin-bottom: 0.5rem; line-height: 1.2; font-size: 20px; padding-bottom: 1rem; font-family: &amp;quot;Source Sans Pro&amp;quot;, HelveticaNeue-Light, &amp;quot;Helvetica Neue Light&amp;quot;, &amp;quot;Helvetica Neue&amp;quot;, Helvetica, Arial, &amp;quot;Lucida Grande&amp;quot;, sans-serif; background-color: rgb(255, 255, 255);&quot;&gt;ISETAN Stocktake Process Flow | Current Flow&lt;/h2&gt;" style="text;html=1;align=left;verticalAlign=middle;whiteSpace=wrap;rounded=0;fontSize=20;fontStyle=1;fontColor=#000066;" parent="1" vertex="1">
          <mxGeometry x="-784.28" y="1667" width="478" height="36" as="geometry" />
        </mxCell>
        <mxCell id="_SJh_2kdL77l0nsIWq_a-297" value="&lt;h2 style=&quot;box-sizing: border-box; margin-top: 1.75rem; margin-bottom: 0.5rem; line-height: 1.2; font-size: 16px; color: rgb(3, 155, 229); padding-bottom: 1rem; font-family: &amp;quot;Source Sans Pro&amp;quot;, HelveticaNeue-Light, &amp;quot;Helvetica Neue Light&amp;quot;, &amp;quot;Helvetica Neue&amp;quot;, Helvetica, Arial, &amp;quot;Lucida Grande&amp;quot;, sans-serif; background-color: rgb(255, 255, 255);&quot;&gt;Internal Stocktake&lt;/h2&gt;" style="text;html=1;align=left;verticalAlign=middle;whiteSpace=wrap;rounded=0;fontSize=16;fontStyle=1" parent="1" vertex="1">
          <mxGeometry x="-780.28" y="1712" width="478" height="30" as="geometry" />
        </mxCell>
        <mxCell id="_SJh_2kdL77l0nsIWq_a-298" value="All&lt;br&gt;Count Sheet" style="rounded=1;whiteSpace=wrap;html=1;absoluteArcSize=1;arcSize=14;strokeWidth=1;fillColor=#ffe6cc;strokeColor=#d79b00;" parent="1" vertex="1">
          <mxGeometry x="-311.02" y="1760.75" width="55.45" height="365.5" as="geometry" />
        </mxCell>
        <mxCell id="_SJh_2kdL77l0nsIWq_a-304" value="PDT Software&lt;br&gt;Scan&amp;nbsp;" style="image;aspect=fixed;perimeter=ellipsePerimeter;html=1;align=center;shadow=0;dashed=0;spacingTop=3;image=img/lib/active_directory/pda.svg;" parent="1" vertex="1">
          <mxGeometry x="-135.32999999999998" y="1929.09" width="50.17" height="92.91" as="geometry" />
        </mxCell>
        <mxCell id="_SJh_2kdL77l0nsIWq_a-306" value="" style="verticalLabelPosition=bottom;verticalAlign=top;html=1;strokeWidth=2;shape=mxgraph.arrows2.arrow;dy=0.6;dx=40;notch=0;rotation=-180;fillColor=#1ba1e2;fontColor=#ffffff;strokeColor=#006EAF;" parent="1" vertex="1">
          <mxGeometry x="-229.83999999999997" y="1933" width="76.45" height="61.5" as="geometry" />
        </mxCell>
        <mxCell id="_SJh_2kdL77l0nsIWq_a-308" value="" style="shape=flexArrow;endArrow=classic;html=1;rounded=0;fillColor=#f8cecc;strokeColor=#b85450;gradientColor=#ea6b66;" parent="1" edge="1">
          <mxGeometry width="50" height="50" relative="1" as="geometry">
            <mxPoint x="-317.78000000000003" y="2221" as="sourcePoint" />
            <mxPoint x="-318.2800000000001" y="2259" as="targetPoint" />
          </mxGeometry>
        </mxCell>
        <mxCell id="_SJh_2kdL77l0nsIWq_a-310" value="Final Variance Report" style="rounded=1;whiteSpace=wrap;html=1;absoluteArcSize=1;arcSize=14;strokeWidth=2;verticalAlign=middle;horizontal=0;fillColor=#f8cecc;strokeColor=#b85450;rotation=90;" parent="1" vertex="1">
          <mxGeometry x="-327.03" y="2126.25" width="16.01" height="147.02" as="geometry" />
        </mxCell>
        <mxCell id="_SJh_2kdL77l0nsIWq_a-311" value="Stock Adjustment" style="rounded=1;whiteSpace=wrap;html=1;absoluteArcSize=1;arcSize=14;strokeWidth=2;verticalAlign=middle;horizontal=0;fillColor=#f8cecc;strokeColor=#b85450;rotation=90;" parent="1" vertex="1">
          <mxGeometry x="-323.01" y="2214" width="16.01" height="147.02" as="geometry" />
        </mxCell>
        <mxCell id="_SJh_2kdL77l0nsIWq_a-312" value="" style="shape=flexArrow;endArrow=classic;html=1;rounded=0;fillColor=#f8cecc;strokeColor=#b85450;gradientColor=#ea6b66;" parent="1" edge="1">
          <mxGeometry width="50" height="50" relative="1" as="geometry">
            <mxPoint x="-317.78" y="2140" as="sourcePoint" />
            <mxPoint x="-318.2800000000001" y="2178" as="targetPoint" />
          </mxGeometry>
        </mxCell>
        <mxCell id="_SJh_2kdL77l0nsIWq_a-314" value="Stock Adjustments" style="rounded=1;whiteSpace=wrap;html=1;absoluteArcSize=1;arcSize=14;strokeWidth=2;verticalAlign=middle;horizontal=0;fillColor=#f8cecc;strokeColor=#b85450;" parent="1" vertex="1">
          <mxGeometry x="-80" y="1401" width="16.01" height="147.02" as="geometry" />
        </mxCell>
        <mxCell id="_SJh_2kdL77l0nsIWq_a-315" value="" style="verticalLabelPosition=bottom;verticalAlign=top;html=1;strokeWidth=2;shape=mxgraph.arrows2.arrow;dy=0.6;dx=40;notch=0;fillColor=#ffcd28;gradientColor=#ffa500;strokeColor=#d79b00;" parent="1" vertex="1">
          <mxGeometry x="-156" y="1448" width="62.8" height="50.49" as="geometry" />
        </mxCell>
        <mxCell id="_SJh_2kdL77l0nsIWq_a-316" value="" style="endArrow=none;html=1;rounded=0;" parent="1" edge="1">
          <mxGeometry width="50" height="50" relative="1" as="geometry">
            <mxPoint x="-166.99999999999997" y="1594.47" as="sourcePoint" />
            <mxPoint x="-166.72" y="1298.49" as="targetPoint" />
          </mxGeometry>
        </mxCell>
        <mxCell id="_SJh_2kdL77l0nsIWq_a-317" value="Approvals" style="edgeLabel;html=1;align=center;verticalAlign=middle;resizable=0;points=[];" parent="_SJh_2kdL77l0nsIWq_a-316" vertex="1" connectable="0">
          <mxGeometry x="0.8232" relative="1" as="geometry">
            <mxPoint x="1" y="29" as="offset" />
          </mxGeometry>
        </mxCell>
        <mxCell id="_SJh_2kdL77l0nsIWq_a-318" value="Stock Count" style="edgeLabel;html=1;align=center;verticalAlign=middle;resizable=0;points=[];" parent="_SJh_2kdL77l0nsIWq_a-316" vertex="1" connectable="0">
          <mxGeometry x="-0.769" y="-1" relative="1" as="geometry">
            <mxPoint x="-3" y="29" as="offset" />
          </mxGeometry>
        </mxCell>
        <mxCell id="_SJh_2kdL77l0nsIWq_a-354" value="&lt;h2 style=&quot;box-sizing: border-box; margin-top: 1.75rem; margin-bottom: 0.5rem; line-height: 1.2; font-size: 20px; padding-bottom: 1rem; font-family: &amp;quot;Source Sans Pro&amp;quot;, HelveticaNeue-Light, &amp;quot;Helvetica Neue Light&amp;quot;, &amp;quot;Helvetica Neue&amp;quot;, Helvetica, Arial, &amp;quot;Lucida Grande&amp;quot;, sans-serif; background-color: rgb(255, 255, 255);&quot;&gt;ISETAN Stocktake Process Flow | Current Flow&lt;/h2&gt;" style="text;html=1;align=left;verticalAlign=middle;whiteSpace=wrap;rounded=0;fontSize=20;fontStyle=1;fontColor=#000066;" parent="1" vertex="1">
          <mxGeometry x="-796.28" y="2399" width="478" height="36" as="geometry" />
        </mxCell>
        <mxCell id="_SJh_2kdL77l0nsIWq_a-355" value="&lt;h2 style=&quot;box-sizing: border-box; margin-top: 1.75rem; margin-bottom: 0.5rem; line-height: 1.2; font-size: 16px; color: rgb(3, 155, 229); padding-bottom: 1rem; font-family: &amp;quot;Source Sans Pro&amp;quot;, HelveticaNeue-Light, &amp;quot;Helvetica Neue Light&amp;quot;, &amp;quot;Helvetica Neue&amp;quot;, Helvetica, Arial, &amp;quot;Lucida Grande&amp;quot;, sans-serif; background-color: rgb(255, 255, 255);&quot;&gt;External Stocktake&lt;/h2&gt;" style="text;html=1;align=left;verticalAlign=middle;whiteSpace=wrap;rounded=0;fontSize=16;fontStyle=1" parent="1" vertex="1">
          <mxGeometry x="-792.28" y="2444" width="478" height="30" as="geometry" />
        </mxCell>
        <mxCell id="_SJh_2kdL77l0nsIWq_a-393" value="&lt;h2 style=&quot;box-sizing: border-box; margin-top: 1.75rem; margin-bottom: 0.5rem; line-height: 1.2; font-size: 20px; padding-bottom: 1rem; font-family: &amp;quot;Source Sans Pro&amp;quot;, HelveticaNeue-Light, &amp;quot;Helvetica Neue Light&amp;quot;, &amp;quot;Helvetica Neue&amp;quot;, Helvetica, Arial, &amp;quot;Lucida Grande&amp;quot;, sans-serif; background-color: rgb(255, 255, 255);&quot;&gt;ISETAN Stocktake Process Flow | Proposal&lt;/h2&gt;" style="text;html=1;align=left;verticalAlign=middle;whiteSpace=wrap;rounded=0;fontSize=20;fontStyle=1;fontColor=#000066;" parent="1" vertex="1">
          <mxGeometry x="-789.28" y="5866" width="478" height="36" as="geometry" />
        </mxCell>
        <mxCell id="_SJh_2kdL77l0nsIWq_a-394" value="&lt;h2 style=&quot;box-sizing: border-box; margin-top: 1.75rem; margin-bottom: 0.5rem; line-height: 1.2; font-size: 16px; color: rgb(3, 155, 229); padding-bottom: 1rem; font-family: &amp;quot;Source Sans Pro&amp;quot;, HelveticaNeue-Light, &amp;quot;Helvetica Neue Light&amp;quot;, &amp;quot;Helvetica Neue&amp;quot;, Helvetica, Arial, &amp;quot;Lucida Grande&amp;quot;, sans-serif; background-color: rgb(255, 255, 255);&quot;&gt;Inventory Posting time line&lt;/h2&gt;" style="text;html=1;align=left;verticalAlign=middle;whiteSpace=wrap;rounded=0;fontSize=16;fontStyle=1" parent="1" vertex="1">
          <mxGeometry x="-789.28" y="5902" width="478" height="30" as="geometry" />
        </mxCell>
        <mxCell id="_SJh_2kdL77l0nsIWq_a-396" value="B | Sales" style="rounded=1;whiteSpace=wrap;html=1;absoluteArcSize=1;arcSize=14;strokeWidth=2;fillColor=#d5e8d4;strokeColor=#82b366;" parent="1" vertex="1">
          <mxGeometry x="-510" y="6142.98" width="222" height="53" as="geometry" />
        </mxCell>
        <mxCell id="_SJh_2kdL77l0nsIWq_a-397" value="Stock Take Day" style="rounded=1;whiteSpace=wrap;html=1;absoluteArcSize=1;arcSize=14;strokeWidth=2;fillColor=#dae8fc;strokeColor=#6c8ebf;align=left;" parent="1" vertex="1">
          <mxGeometry x="-396.78" y="6083.98" width="221.78" height="53" as="geometry" />
        </mxCell>
        <mxCell id="_SJh_2kdL77l0nsIWq_a-398" value="Day Before Stock take day" style="rounded=1;whiteSpace=wrap;html=1;absoluteArcSize=1;arcSize=14;strokeWidth=2;fillColor=#dae8fc;strokeColor=#6c8ebf;" parent="1" vertex="1">
          <mxGeometry x="-510" y="6083.98" width="109" height="53" as="geometry" />
        </mxCell>
        <mxCell id="_SJh_2kdL77l0nsIWq_a-399" value="" style="endArrow=none;html=1;rounded=0;" parent="1" edge="1">
          <mxGeometry width="50" height="50" relative="1" as="geometry">
            <mxPoint x="-514" y="6255" as="sourcePoint" />
            <mxPoint x="-518" y="5962" as="targetPoint" />
          </mxGeometry>
        </mxCell>
        <mxCell id="_SJh_2kdL77l0nsIWq_a-400" value="Cutoff Date" style="edgeLabel;html=1;align=center;verticalAlign=middle;resizable=0;points=[];" parent="_SJh_2kdL77l0nsIWq_a-399" vertex="1" connectable="0">
          <mxGeometry x="0.8232" relative="1" as="geometry">
            <mxPoint x="1" y="29" as="offset" />
          </mxGeometry>
        </mxCell>
        <mxCell id="_SJh_2kdL77l0nsIWq_a-401" value="" style="endArrow=none;html=1;rounded=0;" parent="1" edge="1">
          <mxGeometry width="50" height="50" relative="1" as="geometry">
            <mxPoint x="-284.28" y="6256.98" as="sourcePoint" />
            <mxPoint x="-284" y="5961" as="targetPoint" />
          </mxGeometry>
        </mxCell>
        <mxCell id="_SJh_2kdL77l0nsIWq_a-402" value="Inventory as of Stock take&lt;br&gt;Date&amp;nbsp;" style="edgeLabel;html=1;align=center;verticalAlign=middle;resizable=0;points=[];" parent="_SJh_2kdL77l0nsIWq_a-401" vertex="1" connectable="0">
          <mxGeometry x="0.8232" relative="1" as="geometry">
            <mxPoint x="1" y="29" as="offset" />
          </mxGeometry>
        </mxCell>
        <mxCell id="_SJh_2kdL77l0nsIWq_a-403" value="Stock Count" style="edgeLabel;html=1;align=center;verticalAlign=middle;resizable=0;points=[];" parent="_SJh_2kdL77l0nsIWq_a-401" vertex="1" connectable="0">
          <mxGeometry x="-0.769" y="-1" relative="1" as="geometry">
            <mxPoint x="-3" y="29" as="offset" />
          </mxGeometry>
        </mxCell>
        <mxCell id="_SJh_2kdL77l0nsIWq_a-404" value="" style="endArrow=classic;html=1;rounded=0;" parent="1" edge="1">
          <mxGeometry width="50" height="50" relative="1" as="geometry">
            <mxPoint x="-768.01" y="6275" as="sourcePoint" />
            <mxPoint x="-281.01" y="6271" as="targetPoint" />
          </mxGeometry>
        </mxCell>
        <mxCell id="_SJh_2kdL77l0nsIWq_a-405" value="A + B&amp;nbsp;" style="edgeLabel;html=1;align=center;verticalAlign=middle;resizable=0;points=[];" parent="_SJh_2kdL77l0nsIWq_a-404" vertex="1" connectable="0">
          <mxGeometry x="-0.1785" y="1" relative="1" as="geometry">
            <mxPoint as="offset" />
          </mxGeometry>
        </mxCell>
        <mxCell id="_SJh_2kdL77l0nsIWq_a-406" value="&amp;nbsp;Draft Variance Report" style="rounded=1;whiteSpace=wrap;html=1;absoluteArcSize=1;arcSize=14;strokeWidth=2;verticalAlign=middle;horizontal=0;fillColor=#f8cecc;strokeColor=#b85450;" parent="1" vertex="1">
          <mxGeometry x="-251" y="6058.98" width="16.01" height="147.02" as="geometry" />
        </mxCell>
        <mxCell id="_SJh_2kdL77l0nsIWq_a-407" value="Stock Count" style="rounded=1;whiteSpace=wrap;html=1;absoluteArcSize=1;arcSize=14;strokeWidth=2;verticalAlign=middle;horizontal=0;fillColor=#fff2cc;strokeColor=#d6b656;" parent="1" vertex="1">
          <mxGeometry x="-272.5" y="6058" width="16.01" height="148" as="geometry" />
        </mxCell>
        <mxCell id="_SJh_2kdL77l0nsIWq_a-409" value="Stock Recount" style="rounded=1;whiteSpace=wrap;html=1;absoluteArcSize=1;arcSize=14;strokeWidth=2;verticalAlign=middle;horizontal=0;fillColor=#fff2cc;strokeColor=#d6b656;" parent="1" vertex="1">
          <mxGeometry x="-229.01" y="6057" width="16.01" height="148" as="geometry" />
        </mxCell>
        <mxCell id="_SJh_2kdL77l0nsIWq_a-410" value="Final Variance Report" style="rounded=1;whiteSpace=wrap;html=1;absoluteArcSize=1;arcSize=14;strokeWidth=2;verticalAlign=middle;horizontal=0;fillColor=#f8cecc;strokeColor=#b85450;" parent="1" vertex="1">
          <mxGeometry x="-206.28" y="6057.98" width="16.01" height="147.02" as="geometry" />
        </mxCell>
        <mxCell id="_SJh_2kdL77l0nsIWq_a-411" value="Item Master" style="rounded=1;whiteSpace=wrap;html=1;absoluteArcSize=1;arcSize=14;strokeWidth=2;fillColor=#fff2cc;strokeColor=#d6b656;" parent="1" vertex="1">
          <mxGeometry x="-793" y="6420" width="43.28" height="375" as="geometry" />
        </mxCell>
        <mxCell id="_SJh_2kdL77l0nsIWq_a-412" value="Division" style="rounded=1;whiteSpace=wrap;html=1;absoluteArcSize=1;arcSize=14;strokeWidth=2;fillColor=#dae8fc;strokeColor=#6c8ebf;" parent="1" vertex="1">
          <mxGeometry x="-742.72" y="6423" width="64" height="121" as="geometry" />
        </mxCell>
        <mxCell id="_SJh_2kdL77l0nsIWq_a-413" value="Division" style="rounded=1;whiteSpace=wrap;html=1;absoluteArcSize=1;arcSize=14;strokeWidth=2;fillColor=#dae8fc;strokeColor=#6c8ebf;" parent="1" vertex="1">
          <mxGeometry x="-742.44" y="6548" width="64.72" height="121" as="geometry" />
        </mxCell>
        <mxCell id="_SJh_2kdL77l0nsIWq_a-414" value="Division" style="rounded=1;whiteSpace=wrap;html=1;absoluteArcSize=1;arcSize=14;strokeWidth=2;fillColor=#dae8fc;strokeColor=#6c8ebf;" parent="1" vertex="1">
          <mxGeometry x="-741.72" y="6673" width="64" height="121" as="geometry" />
        </mxCell>
        <mxCell id="_SJh_2kdL77l0nsIWq_a-415" value="Item Category&lt;br&gt;&amp;nbsp;Code" style="rounded=1;whiteSpace=wrap;html=1;absoluteArcSize=1;arcSize=14;strokeWidth=1;fillColor=#f5f5f5;strokeColor=#666666;fontColor=#333333;" parent="1" vertex="1">
          <mxGeometry x="-673.2900000000001" y="6427" width="96.57" height="55" as="geometry" />
        </mxCell>
        <mxCell id="_SJh_2kdL77l0nsIWq_a-416" value="Item Category&lt;br&gt;&amp;nbsp;Code" style="rounded=1;whiteSpace=wrap;html=1;absoluteArcSize=1;arcSize=14;strokeWidth=1;fillColor=#f5f5f5;strokeColor=#666666;fontColor=#333333;" parent="1" vertex="1">
          <mxGeometry x="-673.2900000000001" y="6487" width="96.57" height="57" as="geometry" />
        </mxCell>
        <mxCell id="_SJh_2kdL77l0nsIWq_a-417" value="Item Category &lt;br&gt;Code" style="rounded=1;whiteSpace=wrap;html=1;absoluteArcSize=1;arcSize=14;strokeWidth=1;fillColor=#f5f5f5;strokeColor=#666666;fontColor=#333333;" parent="1" vertex="1">
          <mxGeometry x="-672.58" y="6552" width="95.86" height="55" as="geometry" />
        </mxCell>
        <mxCell id="_SJh_2kdL77l0nsIWq_a-418" value="Item Category &lt;br&gt;Code" style="rounded=1;whiteSpace=wrap;html=1;absoluteArcSize=1;arcSize=14;strokeWidth=1;fillColor=#f5f5f5;strokeColor=#666666;fontColor=#333333;" parent="1" vertex="1">
          <mxGeometry x="-672.58" y="6612" width="96.86" height="57" as="geometry" />
        </mxCell>
        <mxCell id="_SJh_2kdL77l0nsIWq_a-419" value="Item Category &lt;br&gt;Code" style="rounded=1;whiteSpace=wrap;html=1;absoluteArcSize=1;arcSize=14;strokeWidth=1;fillColor=#f5f5f5;strokeColor=#666666;fontColor=#333333;" parent="1" vertex="1">
          <mxGeometry x="-670.72" y="6677" width="96" height="55" as="geometry" />
        </mxCell>
        <mxCell id="_SJh_2kdL77l0nsIWq_a-420" value="Item Category&lt;br&gt;&amp;nbsp;Code" style="rounded=1;whiteSpace=wrap;html=1;absoluteArcSize=1;arcSize=14;strokeWidth=1;fillColor=#f5f5f5;strokeColor=#666666;fontColor=#333333;" parent="1" vertex="1">
          <mxGeometry x="-670.72" y="6737" width="99" height="57" as="geometry" />
        </mxCell>
        <mxCell id="_SJh_2kdL77l0nsIWq_a-421" value="Retail Product Group" style="rounded=0;whiteSpace=wrap;html=1;fillColor=#d5e8d4;strokeColor=#82b366;" parent="1" vertex="1">
          <mxGeometry x="-571.72" y="6425.5" width="135.27" height="24" as="geometry" />
        </mxCell>
        <mxCell id="_SJh_2kdL77l0nsIWq_a-422" value="Retail Product Group" style="rounded=0;whiteSpace=wrap;html=1;fillColor=#d5e8d4;strokeColor=#82b366;" parent="1" vertex="1">
          <mxGeometry x="-571.72" y="6455.5" width="135.27" height="24" as="geometry" />
        </mxCell>
        <mxCell id="_SJh_2kdL77l0nsIWq_a-423" value="Retail Product Group" style="rounded=0;whiteSpace=wrap;html=1;fillColor=#d5e8d4;strokeColor=#82b366;" parent="1" vertex="1">
          <mxGeometry x="-571.72" y="6487" width="135.27" height="24" as="geometry" />
        </mxCell>
        <mxCell id="_SJh_2kdL77l0nsIWq_a-424" value="Retail Product Group" style="rounded=0;whiteSpace=wrap;html=1;fillColor=#d5e8d4;strokeColor=#82b366;" parent="1" vertex="1">
          <mxGeometry x="-571.72" y="6517" width="135.27" height="24" as="geometry" />
        </mxCell>
        <mxCell id="_SJh_2kdL77l0nsIWq_a-425" value="Retail Product Group" style="rounded=0;whiteSpace=wrap;html=1;fillColor=#d5e8d4;strokeColor=#82b366;" parent="1" vertex="1">
          <mxGeometry x="-571.72" y="6550.5" width="135.27" height="24" as="geometry" />
        </mxCell>
        <mxCell id="_SJh_2kdL77l0nsIWq_a-426" value="Retail Product Group" style="rounded=0;whiteSpace=wrap;html=1;fillColor=#d5e8d4;strokeColor=#82b366;" parent="1" vertex="1">
          <mxGeometry x="-571.72" y="6580.5" width="135.27" height="24" as="geometry" />
        </mxCell>
        <mxCell id="_SJh_2kdL77l0nsIWq_a-427" value="Retail Product Group" style="rounded=0;whiteSpace=wrap;html=1;fillColor=#d5e8d4;strokeColor=#82b366;" parent="1" vertex="1">
          <mxGeometry x="-571.72" y="6612" width="135.27" height="24" as="geometry" />
        </mxCell>
        <mxCell id="_SJh_2kdL77l0nsIWq_a-428" value="Retail Product Group" style="rounded=0;whiteSpace=wrap;html=1;fillColor=#d5e8d4;strokeColor=#82b366;" parent="1" vertex="1">
          <mxGeometry x="-571.72" y="6642" width="135.27" height="24" as="geometry" />
        </mxCell>
        <mxCell id="_SJh_2kdL77l0nsIWq_a-429" value="Retail Product Group" style="rounded=0;whiteSpace=wrap;html=1;fillColor=#d5e8d4;strokeColor=#82b366;" parent="1" vertex="1">
          <mxGeometry x="-570.58" y="6675.5" width="135.27" height="24" as="geometry" />
        </mxCell>
        <mxCell id="_SJh_2kdL77l0nsIWq_a-430" value="Retail Product Group" style="rounded=0;whiteSpace=wrap;html=1;fillColor=#d5e8d4;strokeColor=#82b366;" parent="1" vertex="1">
          <mxGeometry x="-570.58" y="6705.5" width="135.27" height="24" as="geometry" />
        </mxCell>
        <mxCell id="_SJh_2kdL77l0nsIWq_a-431" value="Retail Product Group" style="rounded=0;whiteSpace=wrap;html=1;fillColor=#d5e8d4;strokeColor=#82b366;" parent="1" vertex="1">
          <mxGeometry x="-568.44" y="6738.5" width="135.27" height="24" as="geometry" />
        </mxCell>
        <mxCell id="_SJh_2kdL77l0nsIWq_a-432" value="Retail Product Group" style="rounded=0;whiteSpace=wrap;html=1;fillColor=#d5e8d4;strokeColor=#82b366;" parent="1" vertex="1">
          <mxGeometry x="-568.44" y="6768.5" width="135.27" height="24" as="geometry" />
        </mxCell>
        <mxCell id="_SJh_2kdL77l0nsIWq_a-433" value="PID" style="rounded=1;whiteSpace=wrap;html=1;absoluteArcSize=1;arcSize=14;strokeWidth=1;fillColor=#f5f5f5;strokeColor=#666666;fontColor=#333333;" parent="1" vertex="1">
          <mxGeometry x="-381.17" y="6424.5" width="55.45" height="55" as="geometry" />
        </mxCell>
        <mxCell id="_SJh_2kdL77l0nsIWq_a-434" value="" style="shape=flexArrow;endArrow=classic;html=1;rounded=0;fillColor=#60a917;strokeColor=#2D7600;" parent="1" edge="1">
          <mxGeometry width="50" height="50" relative="1" as="geometry">
            <mxPoint x="-433.1700000000001" y="6451.5" as="sourcePoint" />
            <mxPoint x="-383.1700000000001" y="6451.5" as="targetPoint" />
          </mxGeometry>
        </mxCell>
        <mxCell id="_SJh_2kdL77l0nsIWq_a-435" value="" style="shape=flexArrow;endArrow=classic;html=1;rounded=0;fillColor=#60a917;strokeColor=#2D7600;" parent="1" edge="1">
          <mxGeometry width="50" height="50" relative="1" as="geometry">
            <mxPoint x="-433.8" y="6514.5" as="sourcePoint" />
            <mxPoint x="-383.8" y="6514.5" as="targetPoint" />
          </mxGeometry>
        </mxCell>
        <mxCell id="_SJh_2kdL77l0nsIWq_a-436" value="PID" style="rounded=1;whiteSpace=wrap;html=1;absoluteArcSize=1;arcSize=14;strokeWidth=1;fillColor=#f5f5f5;strokeColor=#666666;fontColor=#333333;" parent="1" vertex="1">
          <mxGeometry x="-381.8" y="6487.5" width="56.08" height="55" as="geometry" />
        </mxCell>
        <mxCell id="_SJh_2kdL77l0nsIWq_a-437" value="" style="shape=flexArrow;endArrow=classic;html=1;rounded=0;fillColor=#60a917;strokeColor=#2D7600;" parent="1" edge="1">
          <mxGeometry width="50" height="50" relative="1" as="geometry">
            <mxPoint x="-433.17" y="6576.5" as="sourcePoint" />
            <mxPoint x="-383.17" y="6576.5" as="targetPoint" />
          </mxGeometry>
        </mxCell>
        <mxCell id="_SJh_2kdL77l0nsIWq_a-438" value="PID" style="rounded=1;whiteSpace=wrap;html=1;absoluteArcSize=1;arcSize=14;strokeWidth=1;fillColor=#f5f5f5;strokeColor=#666666;fontColor=#333333;" parent="1" vertex="1">
          <mxGeometry x="-381.1700000000001" y="6549.5" width="57.73" height="55" as="geometry" />
        </mxCell>
        <mxCell id="_SJh_2kdL77l0nsIWq_a-439" value="" style="shape=flexArrow;endArrow=classic;html=1;rounded=0;fillColor=#60a917;strokeColor=#2D7600;" parent="1" edge="1">
          <mxGeometry width="50" height="50" relative="1" as="geometry">
            <mxPoint x="-434.43" y="6637.5" as="sourcePoint" />
            <mxPoint x="-384.43" y="6637.5" as="targetPoint" />
          </mxGeometry>
        </mxCell>
        <mxCell id="_SJh_2kdL77l0nsIWq_a-440" value="PID" style="rounded=1;whiteSpace=wrap;html=1;absoluteArcSize=1;arcSize=14;strokeWidth=1;fillColor=#f5f5f5;strokeColor=#666666;fontColor=#333333;" parent="1" vertex="1">
          <mxGeometry x="-382.43" y="6610.5" width="59.71" height="55" as="geometry" />
        </mxCell>
        <mxCell id="_SJh_2kdL77l0nsIWq_a-441" value="" style="shape=flexArrow;endArrow=classic;html=1;rounded=0;fillColor=#60a917;strokeColor=#2D7600;" parent="1" edge="1">
          <mxGeometry width="50" height="50" relative="1" as="geometry">
            <mxPoint x="-433.17" y="6702.5" as="sourcePoint" />
            <mxPoint x="-383.17" y="6702.5" as="targetPoint" />
          </mxGeometry>
        </mxCell>
        <mxCell id="_SJh_2kdL77l0nsIWq_a-442" value="PID" style="rounded=1;whiteSpace=wrap;html=1;absoluteArcSize=1;arcSize=14;strokeWidth=1;fillColor=#f5f5f5;strokeColor=#666666;fontColor=#333333;" parent="1" vertex="1">
          <mxGeometry x="-383.31000000000006" y="6673" width="59.73" height="55" as="geometry" />
        </mxCell>
        <mxCell id="_SJh_2kdL77l0nsIWq_a-443" value="" style="shape=flexArrow;endArrow=classic;html=1;rounded=0;fillColor=#60a917;strokeColor=#2D7600;" parent="1" edge="1">
          <mxGeometry width="50" height="50" relative="1" as="geometry">
            <mxPoint x="-430.72" y="6762.5" as="sourcePoint" />
            <mxPoint x="-385.44000000000005" y="6762.5" as="targetPoint" />
          </mxGeometry>
        </mxCell>
        <mxCell id="_SJh_2kdL77l0nsIWq_a-444" value="PID" style="rounded=1;whiteSpace=wrap;html=1;absoluteArcSize=1;arcSize=14;strokeWidth=1;fillColor=#f5f5f5;strokeColor=#666666;fontColor=#333333;" parent="1" vertex="1">
          <mxGeometry x="-381.48" y="6735" width="59.95" height="55" as="geometry" />
        </mxCell>
        <mxCell id="_SJh_2kdL77l0nsIWq_a-445" value="&lt;h2 style=&quot;box-sizing: border-box; margin-top: 1.75rem; margin-bottom: 0.5rem; line-height: 1.2; font-size: 20px; padding-bottom: 1rem; font-family: &amp;quot;Source Sans Pro&amp;quot;, HelveticaNeue-Light, &amp;quot;Helvetica Neue Light&amp;quot;, &amp;quot;Helvetica Neue&amp;quot;, Helvetica, Arial, &amp;quot;Lucida Grande&amp;quot;, sans-serif; background-color: rgb(255, 255, 255);&quot;&gt;ISETAN Stocktake Process Flow&lt;/h2&gt;" style="text;html=1;align=left;verticalAlign=middle;whiteSpace=wrap;rounded=0;fontSize=20;fontStyle=1;fontColor=#000066;" parent="1" vertex="1">
          <mxGeometry x="-789.28" y="6331" width="478" height="36" as="geometry" />
        </mxCell>
        <mxCell id="_SJh_2kdL77l0nsIWq_a-446" value="&lt;h2 style=&quot;box-sizing: border-box; margin-top: 1.75rem; margin-bottom: 0.5rem; line-height: 1.2; font-size: 16px; color: rgb(3, 155, 229); padding-bottom: 1rem; font-family: &amp;quot;Source Sans Pro&amp;quot;, HelveticaNeue-Light, &amp;quot;Helvetica Neue Light&amp;quot;, &amp;quot;Helvetica Neue&amp;quot;, Helvetica, Arial, &amp;quot;Lucida Grande&amp;quot;, sans-serif; background-color: rgb(255, 255, 255);&quot;&gt;Internal Stock take&lt;/h2&gt;" style="text;html=1;align=left;verticalAlign=middle;whiteSpace=wrap;rounded=0;fontSize=16;fontStyle=1" parent="1" vertex="1">
          <mxGeometry x="-785.28" y="6376" width="478" height="30" as="geometry" />
        </mxCell>
        <mxCell id="_SJh_2kdL77l0nsIWq_a-447" value="Count Sheet" style="rounded=1;whiteSpace=wrap;html=1;absoluteArcSize=1;arcSize=14;strokeWidth=1;fillColor=#ffe6cc;strokeColor=#d79b00;" parent="1" vertex="1">
          <mxGeometry x="-321.53" y="6425.5" width="55.45" height="55" as="geometry" />
        </mxCell>
        <mxCell id="_SJh_2kdL77l0nsIWq_a-448" value="Count Sheet" style="rounded=1;whiteSpace=wrap;html=1;absoluteArcSize=1;arcSize=14;strokeWidth=1;fillColor=#ffe6cc;strokeColor=#d79b00;" parent="1" vertex="1">
          <mxGeometry x="-321.25" y="6486" width="55.45" height="55" as="geometry" />
        </mxCell>
        <mxCell id="_SJh_2kdL77l0nsIWq_a-449" value="Count Sheet" style="rounded=1;whiteSpace=wrap;html=1;absoluteArcSize=1;arcSize=14;strokeWidth=1;fillColor=#ffe6cc;strokeColor=#d79b00;" parent="1" vertex="1">
          <mxGeometry x="-320.26" y="6548" width="55.45" height="55" as="geometry" />
        </mxCell>
        <mxCell id="_SJh_2kdL77l0nsIWq_a-450" value="Count Sheet" style="rounded=1;whiteSpace=wrap;html=1;absoluteArcSize=1;arcSize=14;strokeWidth=1;fillColor=#ffe6cc;strokeColor=#d79b00;" parent="1" vertex="1">
          <mxGeometry x="-319.26" y="6609.5" width="55.45" height="55" as="geometry" />
        </mxCell>
        <mxCell id="_SJh_2kdL77l0nsIWq_a-451" value="Count Sheet" style="rounded=1;whiteSpace=wrap;html=1;absoluteArcSize=1;arcSize=14;strokeWidth=1;fillColor=#ffe6cc;strokeColor=#d79b00;" parent="1" vertex="1">
          <mxGeometry x="-319.26" y="6673" width="55.45" height="55" as="geometry" />
        </mxCell>
        <mxCell id="_SJh_2kdL77l0nsIWq_a-452" value="Count Sheet" style="rounded=1;whiteSpace=wrap;html=1;absoluteArcSize=1;arcSize=14;strokeWidth=1;fillColor=#ffe6cc;strokeColor=#d79b00;" parent="1" vertex="1">
          <mxGeometry x="-318.26" y="6735.5" width="55.45" height="55" as="geometry" />
        </mxCell>
        <mxCell id="_SJh_2kdL77l0nsIWq_a-453" value="PDT Software&lt;br&gt;Scan&amp;nbsp;" style="image;aspect=fixed;perimeter=ellipsePerimeter;html=1;align=center;shadow=0;dashed=0;spacingTop=3;image=img/lib/active_directory/pda.svg;" parent="1" vertex="1">
          <mxGeometry x="-110" y="6593.09" width="50.17" height="92.91" as="geometry" />
        </mxCell>
        <mxCell id="_SJh_2kdL77l0nsIWq_a-454" value="" style="verticalLabelPosition=bottom;verticalAlign=top;html=1;strokeWidth=2;shape=mxgraph.arrows2.arrow;dy=0.6;dx=40;notch=0;rotation=-180;fillColor=#1ba1e2;fontColor=#ffffff;strokeColor=#006EAF;" parent="1" vertex="1">
          <mxGeometry x="-196.45" y="6598" width="76.45" height="61.5" as="geometry" />
        </mxCell>
        <mxCell id="_SJh_2kdL77l0nsIWq_a-455" value="&amp;nbsp;Draft Variance Report" style="rounded=1;whiteSpace=wrap;html=1;absoluteArcSize=1;arcSize=14;strokeWidth=2;verticalAlign=middle;horizontal=0;fillColor=#f8cecc;strokeColor=#b85450;rotation=90;" parent="1" vertex="1">
          <mxGeometry x="-304.74" y="6786" width="16.01" height="147.02" as="geometry" />
        </mxCell>
        <mxCell id="_SJh_2kdL77l0nsIWq_a-456" value="" style="shape=flexArrow;endArrow=classic;html=1;rounded=0;fillColor=#f8cecc;strokeColor=#b85450;gradientColor=#ea6b66;" parent="1" edge="1">
          <mxGeometry width="50" height="50" relative="1" as="geometry">
            <mxPoint x="-289.23" y="6924" as="sourcePoint" />
            <mxPoint x="-289.7300000000001" y="6962" as="targetPoint" />
          </mxGeometry>
        </mxCell>
        <mxCell id="_SJh_2kdL77l0nsIWq_a-457" value="Stock Recount" style="rounded=1;whiteSpace=wrap;html=1;absoluteArcSize=1;arcSize=14;strokeWidth=2;verticalAlign=middle;horizontal=0;fillColor=#fff2cc;strokeColor=#d6b656;rotation=90;" parent="1" vertex="1">
          <mxGeometry x="-303.49" y="6809" width="16.01" height="150.06" as="geometry" />
        </mxCell>
        <mxCell id="_SJh_2kdL77l0nsIWq_a-458" value="Final Variance Report" style="rounded=1;whiteSpace=wrap;html=1;absoluteArcSize=1;arcSize=14;strokeWidth=2;verticalAlign=middle;horizontal=0;fillColor=#f8cecc;strokeColor=#b85450;rotation=90;" parent="1" vertex="1">
          <mxGeometry x="-305" y="6836" width="16.01" height="147.02" as="geometry" />
        </mxCell>
        <mxCell id="_SJh_2kdL77l0nsIWq_a-459" value="Stock Adjustment" style="rounded=1;whiteSpace=wrap;html=1;absoluteArcSize=1;arcSize=14;strokeWidth=2;verticalAlign=middle;horizontal=0;fillColor=#f8cecc;strokeColor=#b85450;rotation=90;" parent="1" vertex="1">
          <mxGeometry x="-300.58" y="6902" width="16.01" height="147.02" as="geometry" />
        </mxCell>
        <mxCell id="_SJh_2kdL77l0nsIWq_a-460" value="" style="shape=flexArrow;endArrow=classic;html=1;rounded=0;fillColor=#f8cecc;strokeColor=#b85450;gradientColor=#ea6b66;" parent="1" edge="1">
          <mxGeometry width="50" height="50" relative="1" as="geometry">
            <mxPoint x="-289.5" y="6804" as="sourcePoint" />
            <mxPoint x="-290.00000000000006" y="6842" as="targetPoint" />
          </mxGeometry>
        </mxCell>
        <mxCell id="_SJh_2kdL77l0nsIWq_a-461" value="Stock Adjustments" style="rounded=1;whiteSpace=wrap;html=1;absoluteArcSize=1;arcSize=14;strokeWidth=2;verticalAlign=middle;horizontal=0;fillColor=#f8cecc;strokeColor=#b85450;" parent="1" vertex="1">
          <mxGeometry x="-85" y="6065" width="16.01" height="147.02" as="geometry" />
        </mxCell>
        <mxCell id="_SJh_2kdL77l0nsIWq_a-462" value="" style="verticalLabelPosition=bottom;verticalAlign=top;html=1;strokeWidth=2;shape=mxgraph.arrows2.arrow;dy=0.6;dx=40;notch=0;fillColor=#ffcd28;gradientColor=#ffa500;strokeColor=#d79b00;" parent="1" vertex="1">
          <mxGeometry x="-161" y="6112" width="62.8" height="50.49" as="geometry" />
        </mxCell>
        <mxCell id="_SJh_2kdL77l0nsIWq_a-463" value="" style="endArrow=none;html=1;rounded=0;" parent="1" edge="1">
          <mxGeometry width="50" height="50" relative="1" as="geometry">
            <mxPoint x="-171.99999999999997" y="6258.47" as="sourcePoint" />
            <mxPoint x="-171.72" y="5962.49" as="targetPoint" />
          </mxGeometry>
        </mxCell>
        <mxCell id="_SJh_2kdL77l0nsIWq_a-464" value="Approvals" style="edgeLabel;html=1;align=center;verticalAlign=middle;resizable=0;points=[];" parent="_SJh_2kdL77l0nsIWq_a-463" vertex="1" connectable="0">
          <mxGeometry x="0.8232" relative="1" as="geometry">
            <mxPoint x="1" y="29" as="offset" />
          </mxGeometry>
        </mxCell>
        <mxCell id="_SJh_2kdL77l0nsIWq_a-465" value="Stock Count" style="edgeLabel;html=1;align=center;verticalAlign=middle;resizable=0;points=[];" parent="_SJh_2kdL77l0nsIWq_a-463" vertex="1" connectable="0">
          <mxGeometry x="-0.769" y="-1" relative="1" as="geometry">
            <mxPoint x="-3" y="29" as="offset" />
          </mxGeometry>
        </mxCell>
        <mxCell id="_SJh_2kdL77l0nsIWq_a-466" value="Item Master" style="rounded=1;whiteSpace=wrap;html=1;absoluteArcSize=1;arcSize=14;strokeWidth=2;fillColor=#fff2cc;strokeColor=#d6b656;" parent="1" vertex="1">
          <mxGeometry x="-805" y="7155" width="43.28" height="375" as="geometry" />
        </mxCell>
        <mxCell id="_SJh_2kdL77l0nsIWq_a-467" value="Division" style="rounded=1;whiteSpace=wrap;html=1;absoluteArcSize=1;arcSize=14;strokeWidth=2;fillColor=#dae8fc;strokeColor=#6c8ebf;" parent="1" vertex="1">
          <mxGeometry x="-754.72" y="7158" width="64" height="121" as="geometry" />
        </mxCell>
        <mxCell id="_SJh_2kdL77l0nsIWq_a-468" value="Division" style="rounded=1;whiteSpace=wrap;html=1;absoluteArcSize=1;arcSize=14;strokeWidth=2;fillColor=#dae8fc;strokeColor=#6c8ebf;" parent="1" vertex="1">
          <mxGeometry x="-754.44" y="7283" width="64.72" height="121" as="geometry" />
        </mxCell>
        <mxCell id="_SJh_2kdL77l0nsIWq_a-469" value="Division" style="rounded=1;whiteSpace=wrap;html=1;absoluteArcSize=1;arcSize=14;strokeWidth=2;fillColor=#dae8fc;strokeColor=#6c8ebf;" parent="1" vertex="1">
          <mxGeometry x="-753.72" y="7408" width="64" height="121" as="geometry" />
        </mxCell>
        <mxCell id="_SJh_2kdL77l0nsIWq_a-470" value="Item Category&lt;br&gt;&amp;nbsp;Code" style="rounded=1;whiteSpace=wrap;html=1;absoluteArcSize=1;arcSize=14;strokeWidth=1;fillColor=#f5f5f5;strokeColor=#666666;fontColor=#333333;" parent="1" vertex="1">
          <mxGeometry x="-685.2900000000001" y="7162" width="96.57" height="55" as="geometry" />
        </mxCell>
        <mxCell id="_SJh_2kdL77l0nsIWq_a-471" value="Item Category&lt;br&gt;&amp;nbsp;Code" style="rounded=1;whiteSpace=wrap;html=1;absoluteArcSize=1;arcSize=14;strokeWidth=1;fillColor=#f5f5f5;strokeColor=#666666;fontColor=#333333;" parent="1" vertex="1">
          <mxGeometry x="-685.2900000000001" y="7222" width="96.57" height="57" as="geometry" />
        </mxCell>
        <mxCell id="_SJh_2kdL77l0nsIWq_a-472" value="Item Category &lt;br&gt;Code" style="rounded=1;whiteSpace=wrap;html=1;absoluteArcSize=1;arcSize=14;strokeWidth=1;fillColor=#f5f5f5;strokeColor=#666666;fontColor=#333333;" parent="1" vertex="1">
          <mxGeometry x="-684.58" y="7287" width="95.86" height="55" as="geometry" />
        </mxCell>
        <mxCell id="_SJh_2kdL77l0nsIWq_a-473" value="Item Category &lt;br&gt;Code" style="rounded=1;whiteSpace=wrap;html=1;absoluteArcSize=1;arcSize=14;strokeWidth=1;fillColor=#f5f5f5;strokeColor=#666666;fontColor=#333333;" parent="1" vertex="1">
          <mxGeometry x="-684.58" y="7347" width="96.86" height="57" as="geometry" />
        </mxCell>
        <mxCell id="_SJh_2kdL77l0nsIWq_a-474" value="Item Category &lt;br&gt;Code" style="rounded=1;whiteSpace=wrap;html=1;absoluteArcSize=1;arcSize=14;strokeWidth=1;fillColor=#f5f5f5;strokeColor=#666666;fontColor=#333333;" parent="1" vertex="1">
          <mxGeometry x="-682.72" y="7412" width="96" height="55" as="geometry" />
        </mxCell>
        <mxCell id="_SJh_2kdL77l0nsIWq_a-475" value="Item Category&lt;br&gt;&amp;nbsp;Code" style="rounded=1;whiteSpace=wrap;html=1;absoluteArcSize=1;arcSize=14;strokeWidth=1;fillColor=#f5f5f5;strokeColor=#666666;fontColor=#333333;" parent="1" vertex="1">
          <mxGeometry x="-682.72" y="7472" width="99" height="57" as="geometry" />
        </mxCell>
        <mxCell id="_SJh_2kdL77l0nsIWq_a-476" value="Retail Product Group" style="rounded=0;whiteSpace=wrap;html=1;fillColor=#d5e8d4;strokeColor=#82b366;" parent="1" vertex="1">
          <mxGeometry x="-583.72" y="7160.5" width="135.27" height="24" as="geometry" />
        </mxCell>
        <mxCell id="_SJh_2kdL77l0nsIWq_a-477" value="Retail Product Group" style="rounded=0;whiteSpace=wrap;html=1;fillColor=#d5e8d4;strokeColor=#82b366;" parent="1" vertex="1">
          <mxGeometry x="-583.72" y="7190.5" width="135.27" height="24" as="geometry" />
        </mxCell>
        <mxCell id="_SJh_2kdL77l0nsIWq_a-478" value="Retail Product Group" style="rounded=0;whiteSpace=wrap;html=1;fillColor=#d5e8d4;strokeColor=#82b366;" parent="1" vertex="1">
          <mxGeometry x="-583.72" y="7222" width="135.27" height="24" as="geometry" />
        </mxCell>
        <mxCell id="_SJh_2kdL77l0nsIWq_a-479" value="Retail Product Group" style="rounded=0;whiteSpace=wrap;html=1;fillColor=#d5e8d4;strokeColor=#82b366;" parent="1" vertex="1">
          <mxGeometry x="-583.72" y="7252" width="135.27" height="24" as="geometry" />
        </mxCell>
        <mxCell id="_SJh_2kdL77l0nsIWq_a-480" value="Retail Product Group" style="rounded=0;whiteSpace=wrap;html=1;fillColor=#d5e8d4;strokeColor=#82b366;" parent="1" vertex="1">
          <mxGeometry x="-583.72" y="7285.5" width="135.27" height="24" as="geometry" />
        </mxCell>
        <mxCell id="_SJh_2kdL77l0nsIWq_a-481" value="Retail Product Group" style="rounded=0;whiteSpace=wrap;html=1;fillColor=#d5e8d4;strokeColor=#82b366;" parent="1" vertex="1">
          <mxGeometry x="-583.72" y="7315.5" width="135.27" height="24" as="geometry" />
        </mxCell>
        <mxCell id="_SJh_2kdL77l0nsIWq_a-482" value="Retail Product Group" style="rounded=0;whiteSpace=wrap;html=1;fillColor=#d5e8d4;strokeColor=#82b366;" parent="1" vertex="1">
          <mxGeometry x="-583.72" y="7347" width="135.27" height="24" as="geometry" />
        </mxCell>
        <mxCell id="_SJh_2kdL77l0nsIWq_a-483" value="Retail Product Group" style="rounded=0;whiteSpace=wrap;html=1;fillColor=#d5e8d4;strokeColor=#82b366;" parent="1" vertex="1">
          <mxGeometry x="-583.72" y="7377" width="135.27" height="24" as="geometry" />
        </mxCell>
        <mxCell id="_SJh_2kdL77l0nsIWq_a-484" value="Retail Product Group" style="rounded=0;whiteSpace=wrap;html=1;fillColor=#d5e8d4;strokeColor=#82b366;" parent="1" vertex="1">
          <mxGeometry x="-582.58" y="7410.5" width="135.27" height="24" as="geometry" />
        </mxCell>
        <mxCell id="_SJh_2kdL77l0nsIWq_a-485" value="Retail Product Group" style="rounded=0;whiteSpace=wrap;html=1;fillColor=#d5e8d4;strokeColor=#82b366;" parent="1" vertex="1">
          <mxGeometry x="-582.58" y="7440.5" width="135.27" height="24" as="geometry" />
        </mxCell>
        <mxCell id="_SJh_2kdL77l0nsIWq_a-486" value="Retail Product Group" style="rounded=0;whiteSpace=wrap;html=1;fillColor=#d5e8d4;strokeColor=#82b366;" parent="1" vertex="1">
          <mxGeometry x="-580.44" y="7473.5" width="135.27" height="24" as="geometry" />
        </mxCell>
        <mxCell id="_SJh_2kdL77l0nsIWq_a-487" value="Retail Product Group" style="rounded=0;whiteSpace=wrap;html=1;fillColor=#d5e8d4;strokeColor=#82b366;" parent="1" vertex="1">
          <mxGeometry x="-580.44" y="7503.5" width="135.27" height="24" as="geometry" />
        </mxCell>
        <mxCell id="_SJh_2kdL77l0nsIWq_a-488" value="PID" style="rounded=1;whiteSpace=wrap;html=1;absoluteArcSize=1;arcSize=14;strokeWidth=1;fillColor=#f5f5f5;strokeColor=#666666;fontColor=#333333;" parent="1" vertex="1">
          <mxGeometry x="-393.17" y="7159.5" width="55.45" height="55" as="geometry" />
        </mxCell>
        <mxCell id="_SJh_2kdL77l0nsIWq_a-489" value="" style="shape=flexArrow;endArrow=classic;html=1;rounded=0;fillColor=#60a917;strokeColor=#2D7600;" parent="1" edge="1">
          <mxGeometry width="50" height="50" relative="1" as="geometry">
            <mxPoint x="-445.1700000000001" y="7186.5" as="sourcePoint" />
            <mxPoint x="-395.1700000000001" y="7186.5" as="targetPoint" />
          </mxGeometry>
        </mxCell>
        <mxCell id="_SJh_2kdL77l0nsIWq_a-490" value="" style="shape=flexArrow;endArrow=classic;html=1;rounded=0;fillColor=#60a917;strokeColor=#2D7600;" parent="1" edge="1">
          <mxGeometry width="50" height="50" relative="1" as="geometry">
            <mxPoint x="-445.8" y="7249.5" as="sourcePoint" />
            <mxPoint x="-395.8" y="7249.5" as="targetPoint" />
          </mxGeometry>
        </mxCell>
        <mxCell id="_SJh_2kdL77l0nsIWq_a-491" value="PID" style="rounded=1;whiteSpace=wrap;html=1;absoluteArcSize=1;arcSize=14;strokeWidth=1;fillColor=#f5f5f5;strokeColor=#666666;fontColor=#333333;" parent="1" vertex="1">
          <mxGeometry x="-393.8" y="7222.5" width="56.08" height="55" as="geometry" />
        </mxCell>
        <mxCell id="_SJh_2kdL77l0nsIWq_a-492" value="" style="shape=flexArrow;endArrow=classic;html=1;rounded=0;fillColor=#60a917;strokeColor=#2D7600;" parent="1" edge="1">
          <mxGeometry width="50" height="50" relative="1" as="geometry">
            <mxPoint x="-445.17" y="7311.5" as="sourcePoint" />
            <mxPoint x="-395.17" y="7311.5" as="targetPoint" />
          </mxGeometry>
        </mxCell>
        <mxCell id="_SJh_2kdL77l0nsIWq_a-493" value="PID" style="rounded=1;whiteSpace=wrap;html=1;absoluteArcSize=1;arcSize=14;strokeWidth=1;fillColor=#f5f5f5;strokeColor=#666666;fontColor=#333333;" parent="1" vertex="1">
          <mxGeometry x="-393.1700000000001" y="7284.5" width="57.73" height="55" as="geometry" />
        </mxCell>
        <mxCell id="_SJh_2kdL77l0nsIWq_a-494" value="" style="shape=flexArrow;endArrow=classic;html=1;rounded=0;fillColor=#60a917;strokeColor=#2D7600;" parent="1" edge="1">
          <mxGeometry width="50" height="50" relative="1" as="geometry">
            <mxPoint x="-446.43" y="7372.5" as="sourcePoint" />
            <mxPoint x="-396.43" y="7372.5" as="targetPoint" />
          </mxGeometry>
        </mxCell>
        <mxCell id="_SJh_2kdL77l0nsIWq_a-495" value="PID" style="rounded=1;whiteSpace=wrap;html=1;absoluteArcSize=1;arcSize=14;strokeWidth=1;fillColor=#f5f5f5;strokeColor=#666666;fontColor=#333333;" parent="1" vertex="1">
          <mxGeometry x="-394.43" y="7345.5" width="59.71" height="55" as="geometry" />
        </mxCell>
        <mxCell id="_SJh_2kdL77l0nsIWq_a-496" value="" style="shape=flexArrow;endArrow=classic;html=1;rounded=0;fillColor=#60a917;strokeColor=#2D7600;" parent="1" edge="1">
          <mxGeometry width="50" height="50" relative="1" as="geometry">
            <mxPoint x="-445.17" y="7437.5" as="sourcePoint" />
            <mxPoint x="-395.17" y="7437.5" as="targetPoint" />
          </mxGeometry>
        </mxCell>
        <mxCell id="_SJh_2kdL77l0nsIWq_a-497" value="PID" style="rounded=1;whiteSpace=wrap;html=1;absoluteArcSize=1;arcSize=14;strokeWidth=1;fillColor=#f5f5f5;strokeColor=#666666;fontColor=#333333;" parent="1" vertex="1">
          <mxGeometry x="-395.31000000000006" y="7408" width="59.73" height="55" as="geometry" />
        </mxCell>
        <mxCell id="_SJh_2kdL77l0nsIWq_a-498" value="" style="shape=flexArrow;endArrow=classic;html=1;rounded=0;fillColor=#60a917;strokeColor=#2D7600;" parent="1" edge="1">
          <mxGeometry width="50" height="50" relative="1" as="geometry">
            <mxPoint x="-442.72" y="7497.5" as="sourcePoint" />
            <mxPoint x="-397.44000000000005" y="7497.5" as="targetPoint" />
          </mxGeometry>
        </mxCell>
        <mxCell id="_SJh_2kdL77l0nsIWq_a-499" value="PID" style="rounded=1;whiteSpace=wrap;html=1;absoluteArcSize=1;arcSize=14;strokeWidth=1;fillColor=#f5f5f5;strokeColor=#666666;fontColor=#333333;" parent="1" vertex="1">
          <mxGeometry x="-393.48" y="7470" width="59.95" height="55" as="geometry" />
        </mxCell>
        <mxCell id="_SJh_2kdL77l0nsIWq_a-500" value="&lt;h2 style=&quot;box-sizing: border-box; margin-top: 1.75rem; margin-bottom: 0.5rem; line-height: 1.2; font-size: 20px; padding-bottom: 1rem; font-family: &amp;quot;Source Sans Pro&amp;quot;, HelveticaNeue-Light, &amp;quot;Helvetica Neue Light&amp;quot;, &amp;quot;Helvetica Neue&amp;quot;, Helvetica, Arial, &amp;quot;Lucida Grande&amp;quot;, sans-serif; background-color: rgb(255, 255, 255);&quot;&gt;ISETAN Stocktake Process Flow&lt;/h2&gt;" style="text;html=1;align=left;verticalAlign=middle;whiteSpace=wrap;rounded=0;fontSize=20;fontStyle=1;fontColor=#000066;" parent="1" vertex="1">
          <mxGeometry x="-801.28" y="7066" width="478" height="36" as="geometry" />
        </mxCell>
        <mxCell id="_SJh_2kdL77l0nsIWq_a-501" value="&lt;h2 style=&quot;box-sizing: border-box; margin-top: 1.75rem; margin-bottom: 0.5rem; line-height: 1.2; font-size: 16px; color: rgb(3, 155, 229); padding-bottom: 1rem; font-family: &amp;quot;Source Sans Pro&amp;quot;, HelveticaNeue-Light, &amp;quot;Helvetica Neue Light&amp;quot;, &amp;quot;Helvetica Neue&amp;quot;, Helvetica, Arial, &amp;quot;Lucida Grande&amp;quot;, sans-serif; background-color: rgb(255, 255, 255);&quot;&gt;External Stocktake&lt;/h2&gt;" style="text;html=1;align=left;verticalAlign=middle;whiteSpace=wrap;rounded=0;fontSize=16;fontStyle=1" parent="1" vertex="1">
          <mxGeometry x="-797.28" y="7111" width="478" height="30" as="geometry" />
        </mxCell>
        <mxCell id="_SJh_2kdL77l0nsIWq_a-502" value="Count Sheet" style="rounded=1;whiteSpace=wrap;html=1;absoluteArcSize=1;arcSize=14;strokeWidth=1;fillColor=#ffe6cc;strokeColor=#d79b00;" parent="1" vertex="1">
          <mxGeometry x="-333.53" y="7160.5" width="55.45" height="55" as="geometry" />
        </mxCell>
        <mxCell id="_SJh_2kdL77l0nsIWq_a-503" value="Count Sheet" style="rounded=1;whiteSpace=wrap;html=1;absoluteArcSize=1;arcSize=14;strokeWidth=1;fillColor=#ffe6cc;strokeColor=#d79b00;" parent="1" vertex="1">
          <mxGeometry x="-333.25" y="7221" width="55.45" height="55" as="geometry" />
        </mxCell>
        <mxCell id="_SJh_2kdL77l0nsIWq_a-504" value="Count Sheet" style="rounded=1;whiteSpace=wrap;html=1;absoluteArcSize=1;arcSize=14;strokeWidth=1;fillColor=#ffe6cc;strokeColor=#d79b00;" parent="1" vertex="1">
          <mxGeometry x="-332.26" y="7283" width="55.45" height="55" as="geometry" />
        </mxCell>
        <mxCell id="_SJh_2kdL77l0nsIWq_a-505" value="Count Sheet" style="rounded=1;whiteSpace=wrap;html=1;absoluteArcSize=1;arcSize=14;strokeWidth=1;fillColor=#ffe6cc;strokeColor=#d79b00;" parent="1" vertex="1">
          <mxGeometry x="-331.26" y="7344.5" width="55.45" height="55" as="geometry" />
        </mxCell>
        <mxCell id="_SJh_2kdL77l0nsIWq_a-506" value="Count Sheet" style="rounded=1;whiteSpace=wrap;html=1;absoluteArcSize=1;arcSize=14;strokeWidth=1;fillColor=#ffe6cc;strokeColor=#d79b00;" parent="1" vertex="1">
          <mxGeometry x="-331.26" y="7408" width="55.45" height="55" as="geometry" />
        </mxCell>
        <mxCell id="_SJh_2kdL77l0nsIWq_a-507" value="Count Sheet" style="rounded=1;whiteSpace=wrap;html=1;absoluteArcSize=1;arcSize=14;strokeWidth=1;fillColor=#ffe6cc;strokeColor=#d79b00;" parent="1" vertex="1">
          <mxGeometry x="-330.26" y="7470.5" width="55.45" height="55" as="geometry" />
        </mxCell>
        <mxCell id="_SJh_2kdL77l0nsIWq_a-508" value="AJIS Counting" style="image;aspect=fixed;perimeter=ellipsePerimeter;html=1;align=center;shadow=0;dashed=0;spacingTop=3;image=img/lib/active_directory/pda.svg;" parent="1" vertex="1">
          <mxGeometry x="-120" y="7321.04" width="43.18" height="79.96" as="geometry" />
        </mxCell>
        <mxCell id="_SJh_2kdL77l0nsIWq_a-509" value="" style="verticalLabelPosition=bottom;verticalAlign=top;html=1;strokeWidth=2;shape=mxgraph.arrows2.arrow;dy=0.6;dx=40;notch=0;rotation=-180;fillColor=#1ba1e2;fontColor=#ffffff;strokeColor=#006EAF;" parent="1" vertex="1">
          <mxGeometry x="-204.55" y="7340" width="65.45" height="39.5" as="geometry" />
        </mxCell>
        <mxCell id="_SJh_2kdL77l0nsIWq_a-510" value="&amp;nbsp;Draft Variance Report" style="rounded=1;whiteSpace=wrap;html=1;absoluteArcSize=1;arcSize=14;strokeWidth=2;verticalAlign=middle;horizontal=0;fillColor=#f8cecc;strokeColor=#b85450;rotation=90;" parent="1" vertex="1">
          <mxGeometry x="-339.74" y="7521" width="16.01" height="147.02" as="geometry" />
        </mxCell>
        <mxCell id="_SJh_2kdL77l0nsIWq_a-511" value="" style="shape=flexArrow;endArrow=classic;html=1;rounded=0;fillColor=#f8cecc;strokeColor=#b85450;gradientColor=#ea6b66;" parent="1" edge="1">
          <mxGeometry width="50" height="50" relative="1" as="geometry">
            <mxPoint x="-324.23" y="7659" as="sourcePoint" />
            <mxPoint x="-324.7300000000001" y="7697" as="targetPoint" />
          </mxGeometry>
        </mxCell>
        <mxCell id="_SJh_2kdL77l0nsIWq_a-512" value="Stock Recount" style="rounded=1;whiteSpace=wrap;html=1;absoluteArcSize=1;arcSize=14;strokeWidth=2;verticalAlign=middle;horizontal=0;fillColor=#fff2cc;strokeColor=#d6b656;rotation=90;" parent="1" vertex="1">
          <mxGeometry x="-338.49" y="7544" width="16.01" height="150.06" as="geometry" />
        </mxCell>
        <mxCell id="_SJh_2kdL77l0nsIWq_a-513" value="Final Variance Report" style="rounded=1;whiteSpace=wrap;html=1;absoluteArcSize=1;arcSize=14;strokeWidth=2;verticalAlign=middle;horizontal=0;fillColor=#f8cecc;strokeColor=#b85450;rotation=90;" parent="1" vertex="1">
          <mxGeometry x="-340" y="7571" width="16.01" height="147.02" as="geometry" />
        </mxCell>
        <mxCell id="_SJh_2kdL77l0nsIWq_a-514" value="Stock Adjustment" style="rounded=1;whiteSpace=wrap;html=1;absoluteArcSize=1;arcSize=14;strokeWidth=2;verticalAlign=middle;horizontal=0;fillColor=#f8cecc;strokeColor=#b85450;rotation=90;" parent="1" vertex="1">
          <mxGeometry x="-335.58" y="7637" width="16.01" height="147.02" as="geometry" />
        </mxCell>
        <mxCell id="_SJh_2kdL77l0nsIWq_a-515" value="" style="shape=flexArrow;endArrow=classic;html=1;rounded=0;fillColor=#f8cecc;strokeColor=#b85450;gradientColor=#ea6b66;" parent="1" edge="1">
          <mxGeometry width="50" height="50" relative="1" as="geometry">
            <mxPoint x="-324.5" y="7539" as="sourcePoint" />
            <mxPoint x="-325.00000000000006" y="7577" as="targetPoint" />
          </mxGeometry>
        </mxCell>
        <mxCell id="_SJh_2kdL77l0nsIWq_a-516" value="Unposted&lt;br&gt;Sales" style="rounded=1;whiteSpace=wrap;html=1;absoluteArcSize=1;arcSize=14;strokeWidth=2;fillColor=#d5e8d4;strokeColor=#82b366;" parent="1" vertex="1">
          <mxGeometry x="-260.57" y="6426.5" width="49.57" height="53" as="geometry" />
        </mxCell>
        <mxCell id="_SJh_2kdL77l0nsIWq_a-517" value="Unposted&lt;br&gt;Sales" style="rounded=1;whiteSpace=wrap;html=1;absoluteArcSize=1;arcSize=14;strokeWidth=2;fillColor=#d5e8d4;strokeColor=#82b366;" parent="1" vertex="1">
          <mxGeometry x="-260.57" y="6487" width="49.57" height="53" as="geometry" />
        </mxCell>
        <mxCell id="_SJh_2kdL77l0nsIWq_a-518" value="Unposted&lt;br&gt;Sales" style="rounded=1;whiteSpace=wrap;html=1;absoluteArcSize=1;arcSize=14;strokeWidth=2;fillColor=#d5e8d4;strokeColor=#82b366;" parent="1" vertex="1">
          <mxGeometry x="-260.57" y="6548" width="49.57" height="53" as="geometry" />
        </mxCell>
        <mxCell id="_SJh_2kdL77l0nsIWq_a-519" value="Unposted&lt;br&gt;Sales" style="rounded=1;whiteSpace=wrap;html=1;absoluteArcSize=1;arcSize=14;strokeWidth=2;fillColor=#d5e8d4;strokeColor=#82b366;" parent="1" vertex="1">
          <mxGeometry x="-258.57" y="6611.5" width="49.57" height="53" as="geometry" />
        </mxCell>
        <mxCell id="_SJh_2kdL77l0nsIWq_a-520" value="Unposted&lt;br&gt;Sales" style="rounded=1;whiteSpace=wrap;html=1;absoluteArcSize=1;arcSize=14;strokeWidth=2;fillColor=#d5e8d4;strokeColor=#82b366;" parent="1" vertex="1">
          <mxGeometry x="-258.57" y="6674" width="49.57" height="53" as="geometry" />
        </mxCell>
        <mxCell id="_SJh_2kdL77l0nsIWq_a-521" value="Unposted&lt;br&gt;Sales" style="rounded=1;whiteSpace=wrap;html=1;absoluteArcSize=1;arcSize=14;strokeWidth=2;fillColor=#d5e8d4;strokeColor=#82b366;" parent="1" vertex="1">
          <mxGeometry x="-258.57" y="6735" width="49.57" height="53" as="geometry" />
        </mxCell>
        <mxCell id="_SJh_2kdL77l0nsIWq_a-522" value="Unposted&lt;br&gt;Sales" style="rounded=1;whiteSpace=wrap;html=1;absoluteArcSize=1;arcSize=14;strokeWidth=2;fillColor=#d5e8d4;strokeColor=#82b366;" parent="1" vertex="1">
          <mxGeometry x="-268.78" y="7163.5" width="49.57" height="53" as="geometry" />
        </mxCell>
        <mxCell id="_SJh_2kdL77l0nsIWq_a-523" value="Unposted&lt;br&gt;Sales" style="rounded=1;whiteSpace=wrap;html=1;absoluteArcSize=1;arcSize=14;strokeWidth=2;fillColor=#d5e8d4;strokeColor=#82b366;" parent="1" vertex="1">
          <mxGeometry x="-268.78" y="7224" width="49.57" height="53" as="geometry" />
        </mxCell>
        <mxCell id="_SJh_2kdL77l0nsIWq_a-524" value="Unposted&lt;br&gt;Sales" style="rounded=1;whiteSpace=wrap;html=1;absoluteArcSize=1;arcSize=14;strokeWidth=2;fillColor=#d5e8d4;strokeColor=#82b366;" parent="1" vertex="1">
          <mxGeometry x="-268.78" y="7285" width="49.57" height="53" as="geometry" />
        </mxCell>
        <mxCell id="_SJh_2kdL77l0nsIWq_a-525" value="Unposted&lt;br&gt;Sales" style="rounded=1;whiteSpace=wrap;html=1;absoluteArcSize=1;arcSize=14;strokeWidth=2;fillColor=#d5e8d4;strokeColor=#82b366;" parent="1" vertex="1">
          <mxGeometry x="-266.78" y="7346.5" width="49.57" height="53" as="geometry" />
        </mxCell>
        <mxCell id="_SJh_2kdL77l0nsIWq_a-526" value="Unposted&lt;br&gt;Sales" style="rounded=1;whiteSpace=wrap;html=1;absoluteArcSize=1;arcSize=14;strokeWidth=2;fillColor=#d5e8d4;strokeColor=#82b366;" parent="1" vertex="1">
          <mxGeometry x="-266.78" y="7411" width="49.57" height="53" as="geometry" />
        </mxCell>
        <mxCell id="_SJh_2kdL77l0nsIWq_a-527" value="Unposted&lt;br&gt;Sales" style="rounded=1;whiteSpace=wrap;html=1;absoluteArcSize=1;arcSize=14;strokeWidth=2;fillColor=#d5e8d4;strokeColor=#82b366;" parent="1" vertex="1">
          <mxGeometry x="-266.78" y="7472" width="49.57" height="53" as="geometry" />
        </mxCell>
        <mxCell id="_SJh_2kdL77l0nsIWq_a-528" value="Recount&lt;br&gt;Adjustments" style="rounded=1;whiteSpace=wrap;html=1;absoluteArcSize=1;arcSize=14;strokeWidth=1;fillColor=#ffe6cc;strokeColor=#d79b00;" parent="1" vertex="1">
          <mxGeometry x="-150.01" y="6859" width="93.01" height="55" as="geometry" />
        </mxCell>
        <mxCell id="_SJh_2kdL77l0nsIWq_a-529" value="" style="shape=flexArrow;endArrow=classic;html=1;rounded=0;fillColor=#fff2cc;gradientColor=#ffd966;strokeColor=#d6b656;" parent="1" edge="1">
          <mxGeometry width="50" height="50" relative="1" as="geometry">
            <mxPoint x="-155.99999999999997" y="6886" as="sourcePoint" />
            <mxPoint x="-212.99999999999997" y="6886" as="targetPoint" />
          </mxGeometry>
        </mxCell>
        <mxCell id="_SJh_2kdL77l0nsIWq_a-530" value="Recount&lt;br&gt;Adjustments" style="rounded=1;whiteSpace=wrap;html=1;absoluteArcSize=1;arcSize=14;strokeWidth=1;fillColor=#ffe6cc;strokeColor=#d79b00;" parent="1" vertex="1">
          <mxGeometry x="-178.31" y="7586" width="93.01" height="55" as="geometry" />
        </mxCell>
        <mxCell id="_SJh_2kdL77l0nsIWq_a-531" value="" style="shape=flexArrow;endArrow=classic;html=1;rounded=0;fillColor=#fff2cc;gradientColor=#ffd966;strokeColor=#d6b656;" parent="1" edge="1">
          <mxGeometry width="50" height="50" relative="1" as="geometry">
            <mxPoint x="-192.87999999999997" y="7617.01" as="sourcePoint" />
            <mxPoint x="-249.87999999999997" y="7617.01" as="targetPoint" />
          </mxGeometry>
        </mxCell>
        <mxCell id="9eMQO7ssGiqvsPcXCKhR-1" value="Avoid Other Inventory Postings" style="rounded=0;whiteSpace=wrap;html=1;absoluteArcSize=1;arcSize=14;strokeWidth=2;fillColor=#f8cecc;strokeColor=#b85450;gradientColor=none;glass=0;sketch=1;curveFitting=1;jiggle=2;" parent="1" vertex="1">
          <mxGeometry x="-510.99" y="6205" width="222" height="29" as="geometry" />
        </mxCell>
        <mxCell id="SI2fC0dfXHY4uBp6CD4G-1" value="Item Master" style="rounded=1;whiteSpace=wrap;html=1;absoluteArcSize=1;arcSize=14;strokeWidth=2;fillColor=#fff2cc;strokeColor=#d6b656;" parent="1" vertex="1">
          <mxGeometry x="-788" y="2487" width="43.28" height="375" as="geometry" />
        </mxCell>
        <mxCell id="SI2fC0dfXHY4uBp6CD4G-2" value="&lt;br&gt;All&lt;br&gt;Divisions" style="rounded=1;whiteSpace=wrap;html=1;absoluteArcSize=1;arcSize=14;strokeWidth=2;fillColor=#dae8fc;strokeColor=#6c8ebf;" parent="1" vertex="1">
          <mxGeometry x="-737.72" y="2486" width="64" height="375" as="geometry" />
        </mxCell>
        <mxCell id="SI2fC0dfXHY4uBp6CD4G-3" value="&lt;br&gt;All&lt;br&gt;Item Category&lt;br&gt;&amp;nbsp;Codes" style="rounded=1;whiteSpace=wrap;html=1;absoluteArcSize=1;arcSize=14;strokeWidth=1;fillColor=#f5f5f5;strokeColor=#666666;fontColor=#333333;" parent="1" vertex="1">
          <mxGeometry x="-668.29" y="2488" width="96.57" height="373" as="geometry" />
        </mxCell>
        <mxCell id="SI2fC0dfXHY4uBp6CD4G-4" value="All&lt;br&gt;Retail Product &lt;br&gt;Groups" style="rounded=0;whiteSpace=wrap;html=1;fillColor=#d5e8d4;strokeColor=#82b366;" parent="1" vertex="1">
          <mxGeometry x="-566.72" y="2490" width="135.27" height="370" as="geometry" />
        </mxCell>
        <mxCell id="SI2fC0dfXHY4uBp6CD4G-5" value="LS Inventory&lt;br&gt;Balance" style="rounded=1;whiteSpace=wrap;html=1;absoluteArcSize=1;arcSize=14;strokeWidth=1;fillColor=#f5f5f5;strokeColor=#666666;fontColor=#333333;" parent="1" vertex="1">
          <mxGeometry x="-376.17" y="2491.5" width="55.45" height="366.5" as="geometry" />
        </mxCell>
        <mxCell id="SI2fC0dfXHY4uBp6CD4G-6" value="" style="shape=flexArrow;endArrow=classic;html=1;rounded=0;fillColor=#60a917;strokeColor=#2D7600;" parent="1" edge="1">
          <mxGeometry width="50" height="50" relative="1" as="geometry">
            <mxPoint x="-426.1700000000001" y="2674.5" as="sourcePoint" />
            <mxPoint x="-376.1700000000001" y="2674.5" as="targetPoint" />
          </mxGeometry>
        </mxCell>
        <mxCell id="SI2fC0dfXHY4uBp6CD4G-7" value="All&lt;br&gt;Count Sheet" style="rounded=1;whiteSpace=wrap;html=1;absoluteArcSize=1;arcSize=14;strokeWidth=1;fillColor=#ffe6cc;strokeColor=#d79b00;" parent="1" vertex="1">
          <mxGeometry x="-313.25999999999993" y="2492.5" width="55.45" height="365.5" as="geometry" />
        </mxCell>
        <mxCell id="SI2fC0dfXHY4uBp6CD4G-8" value="AJIS Counting" style="image;aspect=fixed;perimeter=ellipsePerimeter;html=1;align=center;shadow=0;dashed=0;spacingTop=3;image=img/lib/active_directory/pda.svg;" parent="1" vertex="1">
          <mxGeometry x="-178.30999999999997" y="2650.0000000000005" width="50.17" height="92.91" as="geometry" />
        </mxCell>
        <mxCell id="SI2fC0dfXHY4uBp6CD4G-9" value="" style="verticalLabelPosition=bottom;verticalAlign=top;html=1;strokeWidth=2;shape=mxgraph.arrows2.arrow;dy=0.6;dx=40;notch=0;rotation=-180;fillColor=#1ba1e2;fontColor=#ffffff;strokeColor=#006EAF;" parent="1" vertex="1">
          <mxGeometry x="-249.88" y="2673.0000000000005" width="64.61" height="38.5" as="geometry" />
        </mxCell>
        <mxCell id="SI2fC0dfXHY4uBp6CD4G-11" value="" style="shape=flexArrow;endArrow=classic;html=1;rounded=0;fillColor=#f8cecc;strokeColor=#b85450;gradientColor=#ea6b66;" parent="1" edge="1">
          <mxGeometry width="50" height="50" relative="1" as="geometry">
            <mxPoint x="-317.67" y="2949" as="sourcePoint" />
            <mxPoint x="-318.1700000000001" y="2987" as="targetPoint" />
          </mxGeometry>
        </mxCell>
        <mxCell id="SI2fC0dfXHY4uBp6CD4G-13" value="Final Variance Report" style="rounded=1;whiteSpace=wrap;html=1;absoluteArcSize=1;arcSize=14;strokeWidth=2;verticalAlign=middle;horizontal=0;fillColor=#f8cecc;strokeColor=#b85450;rotation=90;" parent="1" vertex="1">
          <mxGeometry x="-327.03" y="2858" width="16.01" height="147.02" as="geometry" />
        </mxCell>
        <mxCell id="SI2fC0dfXHY4uBp6CD4G-14" value="Stock Adjustment" style="rounded=1;whiteSpace=wrap;html=1;absoluteArcSize=1;arcSize=14;strokeWidth=2;verticalAlign=middle;horizontal=0;fillColor=#f8cecc;strokeColor=#b85450;rotation=90;" parent="1" vertex="1">
          <mxGeometry x="-323.01" y="2933" width="16.01" height="147.02" as="geometry" />
        </mxCell>
        <mxCell id="SI2fC0dfXHY4uBp6CD4G-15" value="" style="shape=flexArrow;endArrow=classic;html=1;rounded=0;fillColor=#f8cecc;strokeColor=#b85450;gradientColor=#ea6b66;" parent="1" edge="1">
          <mxGeometry width="50" height="50" relative="1" as="geometry">
            <mxPoint x="-317.78" y="2871" as="sourcePoint" />
            <mxPoint x="-318.2800000000001" y="2909" as="targetPoint" />
          </mxGeometry>
        </mxCell>
        <mxCell id="SI2fC0dfXHY4uBp6CD4G-19" value="100%&lt;br&gt;Qty&lt;br&gt;Recount" style="rounded=1;whiteSpace=wrap;html=1;absoluteArcSize=1;arcSize=14;strokeWidth=1;fillColor=#ffe6cc;strokeColor=#d79b00;" parent="1" vertex="1">
          <mxGeometry x="-104.99999999999991" y="2486" width="55.45" height="365.5" as="geometry" />
        </mxCell>
        <mxCell id="SI2fC0dfXHY4uBp6CD4G-22" value="" style="shape=process;whiteSpace=wrap;html=1;backgroundOutline=1;rounded=0;" parent="1" vertex="1">
          <mxGeometry x="-795.2799999999999" y="5051" width="749" height="215" as="geometry" />
        </mxCell>
        <mxCell id="SI2fC0dfXHY4uBp6CD4G-23" value="&lt;h2 style=&quot;box-sizing: border-box; margin-top: 1.75rem; margin-bottom: 0.5rem; line-height: 1.2; font-size: 20px; padding-bottom: 1rem; font-family: &amp;quot;Source Sans Pro&amp;quot;, HelveticaNeue-Light, &amp;quot;Helvetica Neue Light&amp;quot;, &amp;quot;Helvetica Neue&amp;quot;, Helvetica, Arial, &amp;quot;Lucida Grande&amp;quot;, sans-serif; background-color: rgb(255, 255, 255);&quot;&gt;ISETAN Stocktake Process Flow | Proposal&lt;/h2&gt;" style="text;html=1;align=left;verticalAlign=middle;whiteSpace=wrap;rounded=0;fontSize=20;fontStyle=1;fontColor=#000066;" parent="1" vertex="1">
          <mxGeometry x="-792.5599999999998" y="3569" width="478" height="36" as="geometry" />
        </mxCell>
        <mxCell id="SI2fC0dfXHY4uBp6CD4G-24" value="" style="shape=process;whiteSpace=wrap;html=1;backgroundOutline=1;rounded=0;" parent="1" vertex="1">
          <mxGeometry x="-788.5599999999998" y="3709" width="749" height="189" as="geometry" />
        </mxCell>
        <mxCell id="SI2fC0dfXHY4uBp6CD4G-25" value="" style="shape=process;whiteSpace=wrap;html=1;backgroundOutline=1;rounded=0;" parent="1" vertex="1">
          <mxGeometry x="-788.5599999999998" y="3905" width="749" height="214" as="geometry" />
        </mxCell>
        <mxCell id="SI2fC0dfXHY4uBp6CD4G-26" value="" style="shape=process;whiteSpace=wrap;html=1;backgroundOutline=1;rounded=0;" parent="1" vertex="1">
          <mxGeometry x="-788.5599999999998" y="4131" width="749" height="164" as="geometry" />
        </mxCell>
        <mxCell id="SI2fC0dfXHY4uBp6CD4G-27" value="Store&amp;nbsp;" style="rounded=0;whiteSpace=wrap;html=1;rotation=-90;strokeColor=#FFD966;fillColor=#fff2cc;fontColor=#CC6600;labelBorderColor=none;" parent="1" vertex="1">
          <mxGeometry x="-844.5599999999998" y="3765" width="186" height="75.13" as="geometry" />
        </mxCell>
        <mxCell id="SI2fC0dfXHY4uBp6CD4G-28" value="&lt;h2 style=&quot;box-sizing: border-box; margin-top: 1.75rem; margin-bottom: 0.5rem; line-height: 1.2; font-size: 16px; color: rgb(3, 155, 229); padding-bottom: 1rem; font-family: &amp;quot;Source Sans Pro&amp;quot;, HelveticaNeue-Light, &amp;quot;Helvetica Neue Light&amp;quot;, &amp;quot;Helvetica Neue&amp;quot;, Helvetica, Arial, &amp;quot;Lucida Grande&amp;quot;, sans-serif; background-color: rgb(255, 255, 255);&quot;&gt;Monthly | Department Stocktake&lt;/h2&gt;" style="text;html=1;align=left;verticalAlign=middle;whiteSpace=wrap;rounded=0;fontSize=16;fontStyle=1" parent="1" vertex="1">
          <mxGeometry x="-792.5599999999998" y="3605" width="478" height="30" as="geometry" />
        </mxCell>
        <mxCell id="SI2fC0dfXHY4uBp6CD4G-29" value="Finance" style="rounded=0;whiteSpace=wrap;html=1;rotation=-90;strokeColor=#82b366;fillColor=#d5e8d4;labelBorderColor=none;fontColor=#006600;" parent="1" vertex="1">
          <mxGeometry x="-831.3099999999998" y="4174" width="163.5" height="75.13" as="geometry" />
        </mxCell>
        <mxCell id="SI2fC0dfXHY4uBp6CD4G-30" value="Business Central" style="rounded=0;whiteSpace=wrap;html=1;rotation=-90;strokeColor=#d79b00;fillColor=#ffe6cc;labelBorderColor=none;fontColor=#CC6600;" parent="1" vertex="1">
          <mxGeometry x="-854.5599999999998" y="3975.4300000000003" width="210" height="75.13" as="geometry" />
        </mxCell>
        <mxCell id="SI2fC0dfXHY4uBp6CD4G-31" value="" style="edgeStyle=orthogonalEdgeStyle;rounded=0;orthogonalLoop=1;jettySize=auto;html=1;" parent="1" source="SI2fC0dfXHY4uBp6CD4G-32" target="SI2fC0dfXHY4uBp6CD4G-34" edge="1">
          <mxGeometry relative="1" as="geometry" />
        </mxCell>
        <mxCell id="SI2fC0dfXHY4uBp6CD4G-32" value="" style="ellipse;whiteSpace=wrap;html=1;aspect=fixed;" parent="1" vertex="1">
          <mxGeometry x="-647.5599999999998" y="3724" width="32" height="32" as="geometry" />
        </mxCell>
        <mxCell id="SI2fC0dfXHY4uBp6CD4G-33" value="" style="edgeStyle=orthogonalEdgeStyle;rounded=0;orthogonalLoop=1;jettySize=auto;html=1;" parent="1" source="SI2fC0dfXHY4uBp6CD4G-34" target="SI2fC0dfXHY4uBp6CD4G-43" edge="1">
          <mxGeometry relative="1" as="geometry" />
        </mxCell>
        <mxCell id="SI2fC0dfXHY4uBp6CD4G-34" value="Selected Retail Product Groups" style="rounded=1;whiteSpace=wrap;html=1;" parent="1" vertex="1">
          <mxGeometry x="-687.5599999999998" y="3820" width="112" height="42" as="geometry" />
        </mxCell>
        <mxCell id="SI2fC0dfXHY4uBp6CD4G-35" value="" style="edgeStyle=orthogonalEdgeStyle;rounded=0;orthogonalLoop=1;jettySize=auto;html=1;" parent="1" source="SI2fC0dfXHY4uBp6CD4G-39" target="SI2fC0dfXHY4uBp6CD4G-40" edge="1">
          <mxGeometry relative="1" as="geometry" />
        </mxCell>
        <mxCell id="SI2fC0dfXHY4uBp6CD4G-36" value="No" style="edgeLabel;html=1;align=center;verticalAlign=middle;resizable=0;points=[];" parent="SI2fC0dfXHY4uBp6CD4G-35" vertex="1" connectable="0">
          <mxGeometry x="-0.0575" relative="1" as="geometry">
            <mxPoint as="offset" />
          </mxGeometry>
        </mxCell>
        <mxCell id="SI2fC0dfXHY4uBp6CD4G-37" style="edgeStyle=orthogonalEdgeStyle;rounded=0;orthogonalLoop=1;jettySize=auto;html=1;" parent="1" source="SI2fC0dfXHY4uBp6CD4G-39" target="SI2fC0dfXHY4uBp6CD4G-41" edge="1">
          <mxGeometry relative="1" as="geometry">
            <Array as="points">
              <mxPoint x="-516" y="4007" />
            </Array>
          </mxGeometry>
        </mxCell>
        <mxCell id="SI2fC0dfXHY4uBp6CD4G-38" value="Yes" style="edgeLabel;html=1;align=center;verticalAlign=middle;resizable=0;points=[];" parent="SI2fC0dfXHY4uBp6CD4G-37" vertex="1" connectable="0">
          <mxGeometry x="-0.6467" y="1" relative="1" as="geometry">
            <mxPoint as="offset" />
          </mxGeometry>
        </mxCell>
        <mxCell id="SI2fC0dfXHY4uBp6CD4G-39" value="Inventory posting" style="rhombus;whiteSpace=wrap;html=1;" parent="1" vertex="1">
          <mxGeometry x="-683.0599999999998" y="3980" width="103" height="53" as="geometry" />
        </mxCell>
        <mxCell id="SI2fC0dfXHY4uBp6CD4G-40" value="Abort" style="strokeWidth=1;html=1;shape=mxgraph.flowchart.terminator;whiteSpace=wrap;" parent="1" vertex="1">
          <mxGeometry x="-664.5599999999998" y="4063" width="66" height="39" as="geometry" />
        </mxCell>
        <mxCell id="SI2fC0dfXHY4uBp6CD4G-41" value="Stock Count" style="rounded=1;whiteSpace=wrap;html=1;absoluteArcSize=1;arcSize=14;strokeWidth=1;" parent="1" vertex="1">
          <mxGeometry x="-537.4999999999998" y="3756" width="109" height="43" as="geometry" />
        </mxCell>
        <mxCell id="SI2fC0dfXHY4uBp6CD4G-42" style="edgeStyle=orthogonalEdgeStyle;rounded=0;orthogonalLoop=1;jettySize=auto;html=1;entryX=0.5;entryY=0;entryDx=0;entryDy=0;" parent="1" source="SI2fC0dfXHY4uBp6CD4G-43" target="SI2fC0dfXHY4uBp6CD4G-39" edge="1">
          <mxGeometry relative="1" as="geometry" />
        </mxCell>
        <mxCell id="SI2fC0dfXHY4uBp6CD4G-43" value="Stocktake Date" style="rounded=1;whiteSpace=wrap;html=1;absoluteArcSize=1;arcSize=14;strokeWidth=1;" parent="1" vertex="1">
          <mxGeometry x="-686.0599999999998" y="3934" width="109" height="31" as="geometry" />
        </mxCell>
        <mxCell id="SI2fC0dfXHY4uBp6CD4G-44" style="edgeStyle=orthogonalEdgeStyle;rounded=0;orthogonalLoop=1;jettySize=auto;html=1;" parent="1" source="SI2fC0dfXHY4uBp6CD4G-45" edge="1">
          <mxGeometry relative="1" as="geometry">
            <mxPoint x="-460" y="4062" as="targetPoint" />
          </mxGeometry>
        </mxCell>
        <mxCell id="SI2fC0dfXHY4uBp6CD4G-45" value="Stock take Day Sales" style="html=1;strokeWidth=1;shape=manualInput;whiteSpace=wrap;rounded=1;size=26;arcSize=11;" parent="1" vertex="1">
          <mxGeometry x="-587.7199999999998" y="4027" width="76" height="71" as="geometry" />
        </mxCell>
        <mxCell id="SI2fC0dfXHY4uBp6CD4G-47" value="Final &lt;br&gt;Stock take Report" style="shape=parallelogram;html=1;strokeWidth=1;perimeter=parallelogramPerimeter;whiteSpace=wrap;rounded=1;arcSize=12;size=0.23;" parent="1" vertex="1">
          <mxGeometry x="-380.0099999999998" y="3913.9999999999995" width="125" height="41" as="geometry" />
        </mxCell>
        <mxCell id="SI2fC0dfXHY4uBp6CD4G-122" value="" style="edgeStyle=orthogonalEdgeStyle;rounded=0;orthogonalLoop=1;jettySize=auto;html=1;" parent="1" source="SI2fC0dfXHY4uBp6CD4G-51" target="SI2fC0dfXHY4uBp6CD4G-119" edge="1">
          <mxGeometry relative="1" as="geometry" />
        </mxCell>
        <mxCell id="SI2fC0dfXHY4uBp6CD4G-127" style="edgeStyle=orthogonalEdgeStyle;rounded=0;orthogonalLoop=1;jettySize=auto;html=1;" parent="1" source="SI2fC0dfXHY4uBp6CD4G-51" target="SI2fC0dfXHY4uBp6CD4G-125" edge="1">
          <mxGeometry relative="1" as="geometry" />
        </mxCell>
        <mxCell id="SI2fC0dfXHY4uBp6CD4G-51" value="Process Report" style="rhombus;whiteSpace=wrap;html=1;" parent="1" vertex="1">
          <mxGeometry x="-510.98999999999984" y="4162" width="103" height="53" as="geometry" />
        </mxCell>
        <mxCell id="SI2fC0dfXHY4uBp6CD4G-52" value="Approval Request" style="rounded=1;whiteSpace=wrap;html=1;absoluteArcSize=1;arcSize=14;strokeWidth=1;" parent="1" vertex="1">
          <mxGeometry x="-319.55999999999983" y="3759" width="109" height="43" as="geometry" />
        </mxCell>
        <mxCell id="SI2fC0dfXHY4uBp6CD4G-54" style="edgeStyle=orthogonalEdgeStyle;rounded=0;orthogonalLoop=1;jettySize=auto;html=1;entryX=0.5;entryY=0;entryDx=0;entryDy=0;" parent="1" source="SI2fC0dfXHY4uBp6CD4G-55" target="SI2fC0dfXHY4uBp6CD4G-61" edge="1">
          <mxGeometry relative="1" as="geometry" />
        </mxCell>
        <mxCell id="SI2fC0dfXHY4uBp6CD4G-55" value="Approval" style="strokeWidth=1;html=1;shape=mxgraph.flowchart.decision;whiteSpace=wrap;" parent="1" vertex="1">
          <mxGeometry x="-272.55999999999983" y="3829" width="86" height="49" as="geometry" />
        </mxCell>
        <mxCell id="SI2fC0dfXHY4uBp6CD4G-56" value="" style="endArrow=classic;html=1;rounded=0;entryX=0.5;entryY=0;entryDx=0;entryDy=0;entryPerimeter=0;exitX=0.833;exitY=0.982;exitDx=0;exitDy=0;exitPerimeter=0;" parent="1" source="SI2fC0dfXHY4uBp6CD4G-52" target="SI2fC0dfXHY4uBp6CD4G-55" edge="1">
          <mxGeometry width="50" height="50" relative="1" as="geometry">
            <mxPoint x="-243.55999999999983" y="3805" as="sourcePoint" />
            <mxPoint x="-193.55999999999983" y="3755" as="targetPoint" />
          </mxGeometry>
        </mxCell>
        <mxCell id="SI2fC0dfXHY4uBp6CD4G-57" value="Abort" style="strokeWidth=1;html=1;shape=mxgraph.flowchart.terminator;whiteSpace=wrap;" parent="1" vertex="1">
          <mxGeometry x="-125.55999999999983" y="3834" width="64" height="39" as="geometry" />
        </mxCell>
        <mxCell id="SI2fC0dfXHY4uBp6CD4G-58" style="edgeStyle=orthogonalEdgeStyle;rounded=0;orthogonalLoop=1;jettySize=auto;html=1;entryX=0;entryY=0.5;entryDx=0;entryDy=0;entryPerimeter=0;" parent="1" source="SI2fC0dfXHY4uBp6CD4G-55" target="SI2fC0dfXHY4uBp6CD4G-57" edge="1">
          <mxGeometry relative="1" as="geometry" />
        </mxCell>
        <mxCell id="SI2fC0dfXHY4uBp6CD4G-59" value="No" style="edgeLabel;html=1;align=center;verticalAlign=middle;resizable=0;points=[];" parent="SI2fC0dfXHY4uBp6CD4G-58" vertex="1" connectable="0">
          <mxGeometry x="0.5483" y="3" relative="1" as="geometry">
            <mxPoint as="offset" />
          </mxGeometry>
        </mxCell>
        <mxCell id="SI2fC0dfXHY4uBp6CD4G-60" style="edgeStyle=orthogonalEdgeStyle;rounded=0;orthogonalLoop=1;jettySize=auto;html=1;entryX=0.5;entryY=0;entryDx=0;entryDy=0;" parent="1" source="SI2fC0dfXHY4uBp6CD4G-61" target="SI2fC0dfXHY4uBp6CD4G-62" edge="1">
          <mxGeometry relative="1" as="geometry" />
        </mxCell>
        <mxCell id="SI2fC0dfXHY4uBp6CD4G-61" value="Stocktake Adjustment" style="shape=parallelogram;html=1;strokeWidth=1;perimeter=parallelogramPerimeter;whiteSpace=wrap;rounded=1;arcSize=12;size=0.23;" parent="1" vertex="1">
          <mxGeometry x="-291.55999999999983" y="3975.4300000000003" width="125" height="41" as="geometry" />
        </mxCell>
        <mxCell id="SI2fC0dfXHY4uBp6CD4G-62" value="" style="ellipse;whiteSpace=wrap;html=1;aspect=fixed;" parent="1" vertex="1">
          <mxGeometry x="-245.55999999999983" y="4210" width="32" height="32" as="geometry" />
        </mxCell>
        <mxCell id="SI2fC0dfXHY4uBp6CD4G-63" value="&lt;h2 style=&quot;box-sizing: border-box; margin-top: 1.75rem; margin-bottom: 0.5rem; line-height: 1.2; font-size: 20px; padding-bottom: 1rem; font-family: &amp;quot;Source Sans Pro&amp;quot;, HelveticaNeue-Light, &amp;quot;Helvetica Neue Light&amp;quot;, &amp;quot;Helvetica Neue&amp;quot;, Helvetica, Arial, &amp;quot;Lucida Grande&amp;quot;, sans-serif; background-color: rgb(255, 255, 255);&quot;&gt;ISETAN Stocktake Process Flow | Proposal&lt;/h2&gt;" style="text;html=1;align=left;verticalAlign=middle;whiteSpace=wrap;rounded=0;fontSize=20;fontStyle=1;fontColor=#000066;" parent="1" vertex="1">
          <mxGeometry x="-796.5649999999997" y="4729" width="478" height="36" as="geometry" />
        </mxCell>
        <mxCell id="SI2fC0dfXHY4uBp6CD4G-64" value="" style="shape=process;whiteSpace=wrap;html=1;backgroundOutline=1;rounded=0;" parent="1" vertex="1">
          <mxGeometry x="-795.2849999999997" y="4847" width="749" height="189" as="geometry" />
        </mxCell>
        <mxCell id="SI2fC0dfXHY4uBp6CD4G-65" value="" style="shape=process;whiteSpace=wrap;html=1;backgroundOutline=1;rounded=0;" parent="1" vertex="1">
          <mxGeometry x="-795.2799999999999" y="5277" width="749" height="190" as="geometry" />
        </mxCell>
        <mxCell id="SI2fC0dfXHY4uBp6CD4G-66" value="" style="shape=process;whiteSpace=wrap;html=1;backgroundOutline=1;rounded=0;" parent="1" vertex="1">
          <mxGeometry x="-795.2849999999997" y="5484.5" width="749" height="164" as="geometry" />
        </mxCell>
        <mxCell id="SI2fC0dfXHY4uBp6CD4G-67" value="&lt;font style=&quot;font-size: 14px;&quot;&gt;STORE&lt;/font&gt;" style="rounded=0;whiteSpace=wrap;html=1;rotation=-90;strokeColor=#FFD966;fillColor=#fff2cc;fontColor=#CC6600;labelBorderColor=none;" parent="1" vertex="1">
          <mxGeometry x="-851.2849999999997" y="4903" width="186" height="75.13" as="geometry" />
        </mxCell>
        <mxCell id="SI2fC0dfXHY4uBp6CD4G-68" value="&lt;h2 style=&quot;box-sizing: border-box; margin-top: 1.75rem; margin-bottom: 0.5rem; line-height: 1.2; font-size: 16px; color: rgb(3, 155, 229); padding-bottom: 1rem; font-family: &amp;quot;Source Sans Pro&amp;quot;, HelveticaNeue-Light, &amp;quot;Helvetica Neue Light&amp;quot;, &amp;quot;Helvetica Neue&amp;quot;, Helvetica, Arial, &amp;quot;Lucida Grande&amp;quot;, sans-serif; background-color: rgb(255, 255, 255);&quot;&gt;Annual Stocktake&lt;/h2&gt;" style="text;html=1;align=left;verticalAlign=middle;whiteSpace=wrap;rounded=0;fontSize=16;fontStyle=1" parent="1" vertex="1">
          <mxGeometry x="-796.5649999999997" y="4765" width="478" height="30" as="geometry" />
        </mxCell>
        <mxCell id="SI2fC0dfXHY4uBp6CD4G-69" value="&lt;font style=&quot;font-size: 14px;&quot;&gt;Finance&lt;/font&gt;" style="rounded=0;whiteSpace=wrap;html=1;rotation=-90;strokeColor=#82b366;fillColor=#d5e8d4;labelBorderColor=none;fontColor=#006600;" parent="1" vertex="1">
          <mxGeometry x="-838.0349999999997" y="5527.5" width="163.5" height="75.13" as="geometry" />
        </mxCell>
        <mxCell id="SI2fC0dfXHY4uBp6CD4G-70" value="&lt;font style=&quot;font-size: 14px;&quot;&gt;Business Central&lt;/font&gt;" style="rounded=0;whiteSpace=wrap;html=1;rotation=-90;strokeColor=#d79b00;fillColor=#ffe6cc;labelBorderColor=none;fontColor=#CC6600;" parent="1" vertex="1">
          <mxGeometry x="-852.5399999999998" y="5334.1900000000005" width="188.51" height="75.13" as="geometry" />
        </mxCell>
        <mxCell id="SI2fC0dfXHY4uBp6CD4G-71" value="" style="edgeStyle=orthogonalEdgeStyle;rounded=0;orthogonalLoop=1;jettySize=auto;html=1;" parent="1" source="SI2fC0dfXHY4uBp6CD4G-72" target="SI2fC0dfXHY4uBp6CD4G-74" edge="1">
          <mxGeometry relative="1" as="geometry" />
        </mxCell>
        <mxCell id="SI2fC0dfXHY4uBp6CD4G-72" value="" style="ellipse;whiteSpace=wrap;html=1;aspect=fixed;" parent="1" vertex="1">
          <mxGeometry x="-654.2849999999997" y="4862" width="32" height="32" as="geometry" />
        </mxCell>
        <mxCell id="SI2fC0dfXHY4uBp6CD4G-73" value="" style="edgeStyle=orthogonalEdgeStyle;rounded=0;orthogonalLoop=1;jettySize=auto;html=1;" parent="1" source="SI2fC0dfXHY4uBp6CD4G-74" target="SI2fC0dfXHY4uBp6CD4G-82" edge="1">
          <mxGeometry relative="1" as="geometry" />
        </mxCell>
        <mxCell id="SI2fC0dfXHY4uBp6CD4G-74" value="Store Counting&lt;br&gt;Map&amp;nbsp;" style="rounded=1;whiteSpace=wrap;html=1;" parent="1" vertex="1">
          <mxGeometry x="-694.2849999999997" y="4958" width="112" height="42" as="geometry" />
        </mxCell>
        <mxCell id="SI2fC0dfXHY4uBp6CD4G-75" value="" style="edgeStyle=orthogonalEdgeStyle;rounded=0;orthogonalLoop=1;jettySize=auto;html=1;exitX=0.5;exitY=1;exitDx=0;exitDy=0;" parent="1" source="SI2fC0dfXHY4uBp6CD4G-78" target="SI2fC0dfXHY4uBp6CD4G-79" edge="1">
          <mxGeometry relative="1" as="geometry">
            <mxPoint x="-638.2799999999999" y="5386.497427184466" as="sourcePoint" />
          </mxGeometry>
        </mxCell>
        <mxCell id="SI2fC0dfXHY4uBp6CD4G-76" value="No" style="edgeLabel;html=1;align=center;verticalAlign=middle;resizable=0;points=[];" parent="SI2fC0dfXHY4uBp6CD4G-75" vertex="1" connectable="0">
          <mxGeometry x="-0.0575" relative="1" as="geometry">
            <mxPoint as="offset" />
          </mxGeometry>
        </mxCell>
        <mxCell id="SI2fC0dfXHY4uBp6CD4G-77" style="edgeStyle=orthogonalEdgeStyle;rounded=0;orthogonalLoop=1;jettySize=auto;html=1;entryX=0.5;entryY=1;entryDx=0;entryDy=0;" parent="1" source="SI2fC0dfXHY4uBp6CD4G-78" target="SI2fC0dfXHY4uBp6CD4G-100" edge="1">
          <mxGeometry relative="1" as="geometry" />
        </mxCell>
        <mxCell id="SI2fC0dfXHY4uBp6CD4G-78" value="Inventory posting" style="rhombus;whiteSpace=wrap;html=1;" parent="1" vertex="1">
          <mxGeometry x="-689.7849999999997" y="5299" width="103" height="53" as="geometry" />
        </mxCell>
        <mxCell id="SI2fC0dfXHY4uBp6CD4G-79" value="Abort" style="strokeWidth=1;html=1;shape=mxgraph.flowchart.terminator;whiteSpace=wrap;" parent="1" vertex="1">
          <mxGeometry x="-671.2849999999997" y="5409.32" width="66" height="39" as="geometry" />
        </mxCell>
        <mxCell id="SI2fC0dfXHY4uBp6CD4G-80" value="Stock Count Check" style="rounded=1;whiteSpace=wrap;html=1;absoluteArcSize=1;arcSize=14;strokeWidth=1;" parent="1" vertex="1">
          <mxGeometry x="-502.2849999999998" y="4897" width="109" height="43" as="geometry" />
        </mxCell>
        <mxCell id="SI2fC0dfXHY4uBp6CD4G-81" style="edgeStyle=orthogonalEdgeStyle;rounded=0;orthogonalLoop=1;jettySize=auto;html=1;entryX=0.5;entryY=0;entryDx=0;entryDy=0;" parent="1" source="SI2fC0dfXHY4uBp6CD4G-82" target="SI2fC0dfXHY4uBp6CD4G-100" edge="1">
          <mxGeometry relative="1" as="geometry" />
        </mxCell>
        <mxCell id="SI2fC0dfXHY4uBp6CD4G-82" value="Stocktake Date" style="rounded=1;whiteSpace=wrap;html=1;absoluteArcSize=1;arcSize=14;strokeWidth=1;" parent="1" vertex="1">
          <mxGeometry x="-692.7799999999999" y="5064" width="109" height="33" as="geometry" />
        </mxCell>
        <mxCell id="SI2fC0dfXHY4uBp6CD4G-83" style="edgeStyle=orthogonalEdgeStyle;rounded=0;orthogonalLoop=1;jettySize=auto;html=1;" parent="1" source="SI2fC0dfXHY4uBp6CD4G-84" edge="1">
          <mxGeometry relative="1" as="geometry">
            <mxPoint x="-441.49870422363267" y="5330.5" as="targetPoint" />
          </mxGeometry>
        </mxCell>
        <mxCell id="SI2fC0dfXHY4uBp6CD4G-84" value="Stocktake Date Sales" style="html=1;strokeWidth=2;shape=manualInput;whiteSpace=wrap;rounded=1;size=26;arcSize=11;" parent="1" vertex="1">
          <mxGeometry x="-561.2799999999999" y="5295" width="72" height="71" as="geometry" />
        </mxCell>
        <mxCell id="SI2fC0dfXHY4uBp6CD4G-85" value="Draft Report&amp;nbsp;&lt;br&gt;by floor" style="shape=parallelogram;html=1;strokeWidth=1;perimeter=parallelogramPerimeter;whiteSpace=wrap;rounded=1;arcSize=12;size=0.23;" parent="1" vertex="1">
          <mxGeometry x="-379.79999999999995" y="5397" width="102" height="39" as="geometry" />
        </mxCell>
        <mxCell id="SI2fC0dfXHY4uBp6CD4G-86" value="" style="edgeStyle=orthogonalEdgeStyle;rounded=0;orthogonalLoop=1;jettySize=auto;html=1;" parent="1" source="SI2fC0dfXHY4uBp6CD4G-90" edge="1">
          <mxGeometry relative="1" as="geometry">
            <mxPoint x="-443.77999999999986" y="5613" as="targetPoint" />
          </mxGeometry>
        </mxCell>
        <mxCell id="SI2fC0dfXHY4uBp6CD4G-87" value="No" style="edgeLabel;html=1;align=center;verticalAlign=middle;resizable=0;points=[];" parent="SI2fC0dfXHY4uBp6CD4G-86" vertex="1" connectable="0">
          <mxGeometry x="-0.3514" y="-4" relative="1" as="geometry">
            <mxPoint as="offset" />
          </mxGeometry>
        </mxCell>
        <mxCell id="SI2fC0dfXHY4uBp6CD4G-132" style="edgeStyle=orthogonalEdgeStyle;rounded=0;orthogonalLoop=1;jettySize=auto;html=1;entryX=0.5;entryY=1;entryDx=0;entryDy=0;" parent="1" source="SI2fC0dfXHY4uBp6CD4G-90" target="SI2fC0dfXHY4uBp6CD4G-85" edge="1">
          <mxGeometry relative="1" as="geometry" />
        </mxCell>
        <mxCell id="SI2fC0dfXHY4uBp6CD4G-90" value="Process Report" style="rhombus;whiteSpace=wrap;html=1;" parent="1" vertex="1">
          <mxGeometry x="-495.2749999999998" y="5527.5" width="103" height="53" as="geometry" />
        </mxCell>
        <mxCell id="SI2fC0dfXHY4uBp6CD4G-91" value="Approval Request" style="rounded=1;whiteSpace=wrap;html=1;absoluteArcSize=1;arcSize=14;strokeWidth=1;" parent="1" vertex="1">
          <mxGeometry x="-326.2849999999998" y="4897" width="109" height="43" as="geometry" />
        </mxCell>
        <mxCell id="SI2fC0dfXHY4uBp6CD4G-92" value="Approval" style="strokeWidth=1;html=1;shape=mxgraph.flowchart.decision;whiteSpace=wrap;" parent="1" vertex="1">
          <mxGeometry x="-279.2849999999998" y="4967" width="86" height="49" as="geometry" />
        </mxCell>
        <mxCell id="SI2fC0dfXHY4uBp6CD4G-93" value="" style="endArrow=classic;html=1;rounded=0;entryX=0.5;entryY=0;entryDx=0;entryDy=0;entryPerimeter=0;exitX=0.833;exitY=0.982;exitDx=0;exitDy=0;exitPerimeter=0;" parent="1" source="SI2fC0dfXHY4uBp6CD4G-91" target="SI2fC0dfXHY4uBp6CD4G-92" edge="1">
          <mxGeometry width="50" height="50" relative="1" as="geometry">
            <mxPoint x="-250.28499999999977" y="4943" as="sourcePoint" />
            <mxPoint x="-200.28499999999977" y="4893" as="targetPoint" />
          </mxGeometry>
        </mxCell>
        <mxCell id="SI2fC0dfXHY4uBp6CD4G-94" value="Abort" style="strokeWidth=1;html=1;shape=mxgraph.flowchart.terminator;whiteSpace=wrap;" parent="1" vertex="1">
          <mxGeometry x="-187.27999999999983" y="5002" width="53" height="30" as="geometry" />
        </mxCell>
        <mxCell id="SI2fC0dfXHY4uBp6CD4G-95" style="edgeStyle=orthogonalEdgeStyle;rounded=0;orthogonalLoop=1;jettySize=auto;html=1;entryX=0.5;entryY=0;entryDx=0;entryDy=0;" parent="1" source="SI2fC0dfXHY4uBp6CD4G-96" target="SI2fC0dfXHY4uBp6CD4G-97" edge="1">
          <mxGeometry relative="1" as="geometry">
            <mxPoint x="-235.77999999999983" y="5369.93" as="sourcePoint" />
          </mxGeometry>
        </mxCell>
        <mxCell id="SI2fC0dfXHY4uBp6CD4G-96" value="Stocktake Adjustment" style="shape=parallelogram;html=1;strokeWidth=1;perimeter=parallelogramPerimeter;whiteSpace=wrap;rounded=1;arcSize=12;size=0.23;" parent="1" vertex="1">
          <mxGeometry x="-257.8099999999999" y="5383" width="140.99" height="41" as="geometry" />
        </mxCell>
        <mxCell id="SI2fC0dfXHY4uBp6CD4G-97" value="" style="ellipse;whiteSpace=wrap;html=1;aspect=fixed;" parent="1" vertex="1">
          <mxGeometry x="-203.31499999999977" y="5564" width="32" height="32" as="geometry" />
        </mxCell>
        <mxCell id="SI2fC0dfXHY4uBp6CD4G-98" value="&lt;font style=&quot;font-size: 17px;&quot;&gt;AJIS&lt;/font&gt;" style="rounded=0;whiteSpace=wrap;html=1;rotation=-90;strokeColor=#6c8ebf;fillColor=#dae8fc;labelBorderColor=none;fontColor=#000099;" parent="1" vertex="1">
          <mxGeometry x="-864.7199999999999" y="5120.11" width="212.87" height="75.13" as="geometry" />
        </mxCell>
        <mxCell id="SI2fC0dfXHY4uBp6CD4G-99" value="" style="edgeStyle=orthogonalEdgeStyle;rounded=0;orthogonalLoop=1;jettySize=auto;html=1;" parent="1" source="SI2fC0dfXHY4uBp6CD4G-100" target="SI2fC0dfXHY4uBp6CD4G-102" edge="1">
          <mxGeometry relative="1" as="geometry" />
        </mxCell>
        <mxCell id="SI2fC0dfXHY4uBp6CD4G-100" value="Counting" style="rounded=1;whiteSpace=wrap;html=1;absoluteArcSize=1;arcSize=14;strokeWidth=1;" parent="1" vertex="1">
          <mxGeometry x="-692.7799999999999" y="5148" width="109" height="33" as="geometry" />
        </mxCell>
        <mxCell id="SI2fC0dfXHY4uBp6CD4G-101" style="edgeStyle=orthogonalEdgeStyle;rounded=0;orthogonalLoop=1;jettySize=auto;html=1;entryX=0.25;entryY=1;entryDx=0;entryDy=0;" parent="1" source="SI2fC0dfXHY4uBp6CD4G-102" target="SI2fC0dfXHY4uBp6CD4G-80" edge="1">
          <mxGeometry relative="1" as="geometry" />
        </mxCell>
        <mxCell id="SI2fC0dfXHY4uBp6CD4G-102" value="Counting Sheets" style="strokeWidth=1;html=1;shape=mxgraph.flowchart.document2;whiteSpace=wrap;size=0.25;" parent="1" vertex="1">
          <mxGeometry x="-561.2799999999999" y="5082.11" width="94" height="38" as="geometry" />
        </mxCell>
        <mxCell id="SI2fC0dfXHY4uBp6CD4G-103" style="edgeStyle=orthogonalEdgeStyle;rounded=0;orthogonalLoop=1;jettySize=auto;html=1;entryX=0.5;entryY=0;entryDx=0;entryDy=0;" parent="1" source="SI2fC0dfXHY4uBp6CD4G-104" target="SI2fC0dfXHY4uBp6CD4G-90" edge="1">
          <mxGeometry relative="1" as="geometry" />
        </mxCell>
        <mxCell id="SI2fC0dfXHY4uBp6CD4G-104" value="Counting Result by&lt;br&gt;Floor" style="rounded=1;whiteSpace=wrap;html=1;absoluteArcSize=1;arcSize=14;strokeWidth=1;" parent="1" vertex="1">
          <mxGeometry x="-498.27999999999986" y="5211" width="109" height="33" as="geometry" />
        </mxCell>
        <mxCell id="SI2fC0dfXHY4uBp6CD4G-134" style="edgeStyle=orthogonalEdgeStyle;rounded=0;orthogonalLoop=1;jettySize=auto;html=1;" parent="1" source="SI2fC0dfXHY4uBp6CD4G-107" edge="1">
          <mxGeometry relative="1" as="geometry">
            <mxPoint x="-302.6631622314453" y="5372" as="targetPoint" />
          </mxGeometry>
        </mxCell>
        <mxCell id="SI2fC0dfXHY4uBp6CD4G-107" value="Recount&lt;br&gt;Adjustment" style="rounded=1;whiteSpace=wrap;html=1;absoluteArcSize=1;arcSize=14;strokeWidth=1;" parent="1" vertex="1">
          <mxGeometry x="-422" y="5355.5" width="60.45" height="33" as="geometry" />
        </mxCell>
        <mxCell id="SI2fC0dfXHY4uBp6CD4G-108" style="edgeStyle=orthogonalEdgeStyle;rounded=0;orthogonalLoop=1;jettySize=auto;html=1;entryX=0.75;entryY=0;entryDx=0;entryDy=0;" parent="1" edge="1">
          <mxGeometry relative="1" as="geometry">
            <mxPoint x="-443" y="4940" as="sourcePoint" />
            <mxPoint x="-442.52999999999975" y="5211" as="targetPoint" />
            <Array as="points">
              <mxPoint x="-443" y="5005" />
              <mxPoint x="-443" y="5005" />
            </Array>
          </mxGeometry>
        </mxCell>
        <mxCell id="SI2fC0dfXHY4uBp6CD4G-112" value="" style="endArrow=classic;html=1;rounded=0;entryX=0.25;entryY=1;entryDx=0;entryDy=0;exitX=0.75;exitY=0;exitDx=0;exitDy=0;" parent="1" source="SI2fC0dfXHY4uBp6CD4G-85" target="SI2fC0dfXHY4uBp6CD4G-91" edge="1">
          <mxGeometry width="50" height="50" relative="1" as="geometry">
            <mxPoint x="-301.27999999999986" y="5388" as="sourcePoint" />
            <mxPoint x="-251.27999999999983" y="5338" as="targetPoint" />
          </mxGeometry>
        </mxCell>
        <mxCell id="SI2fC0dfXHY4uBp6CD4G-113" style="edgeStyle=orthogonalEdgeStyle;rounded=0;orthogonalLoop=1;jettySize=auto;html=1;entryX=0.371;entryY=0.055;entryDx=0;entryDy=0;entryPerimeter=0;" parent="1" source="SI2fC0dfXHY4uBp6CD4G-92" target="SI2fC0dfXHY4uBp6CD4G-96" edge="1">
          <mxGeometry relative="1" as="geometry" />
        </mxCell>
        <mxCell id="SI2fC0dfXHY4uBp6CD4G-114" value="Yes" style="edgeLabel;html=1;align=center;verticalAlign=middle;resizable=0;points=[];" parent="SI2fC0dfXHY4uBp6CD4G-113" vertex="1" connectable="0">
          <mxGeometry x="-0.5965" y="2" relative="1" as="geometry">
            <mxPoint as="offset" />
          </mxGeometry>
        </mxCell>
        <mxCell id="SI2fC0dfXHY4uBp6CD4G-115" style="edgeStyle=orthogonalEdgeStyle;rounded=0;orthogonalLoop=1;jettySize=auto;html=1;exitX=0.81;exitY=0;exitDx=0;exitDy=0;exitPerimeter=0;entryX=0.911;entryY=0.306;entryDx=0;entryDy=0;entryPerimeter=0;" parent="1" edge="1">
          <mxGeometry relative="1" as="geometry">
            <mxPoint x="-422.39189999999974" y="5613" as="sourcePoint" />
            <mxPoint x="-415.42188999999973" y="5620.344" as="targetPoint" />
          </mxGeometry>
        </mxCell>
        <mxCell id="SI2fC0dfXHY4uBp6CD4G-116" style="edgeStyle=orthogonalEdgeStyle;rounded=0;orthogonalLoop=1;jettySize=auto;html=1;entryX=0.5;entryY=0;entryDx=0;entryDy=0;entryPerimeter=0;" parent="1" source="SI2fC0dfXHY4uBp6CD4G-92" target="SI2fC0dfXHY4uBp6CD4G-94" edge="1">
          <mxGeometry relative="1" as="geometry" />
        </mxCell>
        <mxCell id="SI2fC0dfXHY4uBp6CD4G-117" value="No" style="edgeLabel;html=1;align=center;verticalAlign=middle;resizable=0;points=[];" parent="SI2fC0dfXHY4uBp6CD4G-116" vertex="1" connectable="0">
          <mxGeometry x="-0.2387" y="-1" relative="1" as="geometry">
            <mxPoint as="offset" />
          </mxGeometry>
        </mxCell>
        <mxCell id="SI2fC0dfXHY4uBp6CD4G-118" value="Abort" style="strokeWidth=1;html=1;shape=mxgraph.flowchart.terminator;whiteSpace=wrap;" parent="1" vertex="1">
          <mxGeometry x="-472.27999999999986" y="5614" width="53" height="30" as="geometry" />
        </mxCell>
        <mxCell id="SI2fC0dfXHY4uBp6CD4G-119" value="Abort" style="strokeWidth=1;html=1;shape=mxgraph.flowchart.terminator;whiteSpace=wrap;" parent="1" vertex="1">
          <mxGeometry x="-491.4899999999999" y="4253" width="64" height="30" as="geometry" />
        </mxCell>
        <mxCell id="SI2fC0dfXHY4uBp6CD4G-120" style="edgeStyle=orthogonalEdgeStyle;rounded=0;orthogonalLoop=1;jettySize=auto;html=1;" parent="1" source="SI2fC0dfXHY4uBp6CD4G-47" edge="1">
          <mxGeometry relative="1" as="geometry">
            <mxPoint x="-295" y="3802" as="targetPoint" />
          </mxGeometry>
        </mxCell>
        <mxCell id="SI2fC0dfXHY4uBp6CD4G-123" value="" style="endArrow=classic;html=1;rounded=0;entryX=0.5;entryY=0;entryDx=0;entryDy=0;exitX=0.683;exitY=1;exitDx=0;exitDy=0;exitPerimeter=0;" parent="1" source="SI2fC0dfXHY4uBp6CD4G-41" target="SI2fC0dfXHY4uBp6CD4G-51" edge="1">
          <mxGeometry width="50" height="50" relative="1" as="geometry">
            <mxPoint x="-468" y="3808" as="sourcePoint" />
            <mxPoint x="-418" y="3758" as="targetPoint" />
          </mxGeometry>
        </mxCell>
        <mxCell id="SI2fC0dfXHY4uBp6CD4G-128" style="edgeStyle=orthogonalEdgeStyle;rounded=0;orthogonalLoop=1;jettySize=auto;html=1;entryX=0.5;entryY=1;entryDx=0;entryDy=0;" parent="1" source="SI2fC0dfXHY4uBp6CD4G-125" target="SI2fC0dfXHY4uBp6CD4G-47" edge="1">
          <mxGeometry relative="1" as="geometry">
            <Array as="points">
              <mxPoint x="-318" y="4037" />
              <mxPoint x="-318" y="4037" />
            </Array>
          </mxGeometry>
        </mxCell>
        <mxCell id="SI2fC0dfXHY4uBp6CD4G-125" value="Draft&lt;br&gt;Stock take Report" style="shape=parallelogram;html=1;strokeWidth=1;perimeter=parallelogramPerimeter;whiteSpace=wrap;rounded=1;arcSize=12;size=0.23;" parent="1" vertex="1">
          <mxGeometry x="-404.28999999999985" y="4061.9999999999995" width="125" height="41" as="geometry" />
        </mxCell>
        <mxCell id="SI2fC0dfXHY4uBp6CD4G-129" style="edgeStyle=orthogonalEdgeStyle;rounded=0;orthogonalLoop=1;jettySize=auto;html=1;" parent="1" source="SI2fC0dfXHY4uBp6CD4G-126" edge="1">
          <mxGeometry relative="1" as="geometry">
            <mxPoint x="-319" y="4013" as="targetPoint" />
          </mxGeometry>
        </mxCell>
        <mxCell id="SI2fC0dfXHY4uBp6CD4G-126" value="Recount&lt;br&gt;Adjustments" style="html=1;strokeWidth=1;shape=manualInput;whiteSpace=wrap;rounded=1;size=26;arcSize=11;" parent="1" vertex="1">
          <mxGeometry x="-448.06" y="3982.49" width="68.01" height="61" as="geometry" />
        </mxCell>
        <mxCell id="SI2fC0dfXHY4uBp6CD4G-135" value="&lt;br&gt;Final &lt;br&gt;Report&amp;nbsp;&lt;div&gt;&lt;br&gt;&lt;/div&gt;" style="shape=parallelogram;html=1;strokeWidth=1;perimeter=parallelogramPerimeter;whiteSpace=wrap;rounded=1;arcSize=12;size=0.23;" parent="1" vertex="1">
          <mxGeometry x="-348.99999999999994" y="5291" width="102" height="39" as="geometry" />
        </mxCell>
        <mxCell id="jpZVVKn0vJSW0-JKQjZJ-2" value="&lt;h2 style=&quot;box-sizing: border-box; margin-top: 1.75rem; margin-bottom: 0.5rem; line-height: 1.2; padding-bottom: 1rem; font-family: &amp;quot;Source Sans Pro&amp;quot;, HelveticaNeue-Light, &amp;quot;Helvetica Neue Light&amp;quot;, &amp;quot;Helvetica Neue&amp;quot;, Helvetica, Arial, &amp;quot;Lucida Grande&amp;quot;, sans-serif; background-color: rgb(255, 255, 255);&quot;&gt;PID : Physical Inventory Document as of cutoff date&amp;nbsp;&amp;nbsp;&lt;/h2&gt;" style="text;html=1;align=left;verticalAlign=middle;whiteSpace=wrap;rounded=0;fontSize=8;fontStyle=0;fontColor=#6b6666;" parent="1" vertex="1">
          <mxGeometry x="-801.28" y="6964" width="323.28" height="30" as="geometry" />
        </mxCell>
        <mxCell id="jpZVVKn0vJSW0-JKQjZJ-3" value="&lt;span style=&quot;color: rgb(0, 0, 0);&quot;&gt;A | Inventory/Sales posting PID&lt;/span&gt;" style="rounded=1;whiteSpace=wrap;html=1;absoluteArcSize=1;arcSize=14;strokeWidth=1;fillColor=#f5f5f5;strokeColor=#666666;fontColor=#333333;" parent="1" vertex="1">
          <mxGeometry x="-793" y="6087" width="271.08" height="111" as="geometry" />
        </mxCell>
        <mxCell id="j552SZLn4paQCeeURNuj-1" value="&lt;h2 style=&quot;box-sizing: border-box; margin-top: 1.75rem; margin-bottom: 0.5rem; line-height: 1.2; font-size: 20px; padding-bottom: 1rem; font-family: &amp;quot;Source Sans Pro&amp;quot;, HelveticaNeue-Light, &amp;quot;Helvetica Neue Light&amp;quot;, &amp;quot;Helvetica Neue&amp;quot;, Helvetica, Arial, &amp;quot;Lucida Grande&amp;quot;, sans-serif; background-color: rgb(255, 255, 255);&quot;&gt;ISETAN |&amp;nbsp; Stocktake Application&lt;/h2&gt;" style="text;html=1;align=left;verticalAlign=middle;whiteSpace=wrap;rounded=0;fontSize=20;fontStyle=1;fontColor=#000066;" parent="1" vertex="1">
          <mxGeometry x="-797.28" y="8226" width="478" height="36" as="geometry" />
        </mxCell>
        <mxCell id="j552SZLn4paQCeeURNuj-2" value="Web App" style="verticalLabelPosition=bottom;sketch=0;aspect=fixed;html=1;verticalAlign=top;strokeColor=none;align=center;outlineConnect=0;shape=mxgraph.citrix.pda;" parent="1" vertex="1">
          <mxGeometry x="-449.94999999999993" y="9041" width="27.72" height="56.36" as="geometry" />
        </mxCell>
        <mxCell id="j552SZLn4paQCeeURNuj-3" value="Web Server&lt;br&gt;&lt;span style=&quot;font-size:11.0pt;font-family:&amp;quot;Aptos&amp;quot;,sans-serif;&lt;br/&gt;mso-fareast-font-family:&amp;quot;Times New Roman&amp;quot;;mso-bidi-font-family:Aptos;&lt;br/&gt;mso-ligatures:standardcontextual;mso-ansi-language:EN-SG;mso-fareast-language:&lt;br/&gt;EN-US;mso-bidi-language:AR-SA&quot;&gt;172.18.200.21&lt;/span&gt;" style="image;aspect=fixed;perimeter=ellipsePerimeter;html=1;align=center;shadow=0;dashed=0;spacingTop=3;image=img/lib/active_directory/web_server.svg;" parent="1" vertex="1">
          <mxGeometry x="-472.09000000000003" y="8791" width="72" height="90" as="geometry" />
        </mxCell>
        <mxCell id="j552SZLn4paQCeeURNuj-4" value="&lt;b&gt;&lt;span style=&quot;font-size: 12px;&quot;&gt;IsetanLSC DB&lt;br&gt;&lt;/span&gt;in&lt;br&gt;&lt;span style=&quot;font-size:11.0pt;font-family:&amp;quot;Aptos&amp;quot;,sans-serif;&lt;br/&gt;mso-fareast-font-family:&amp;quot;Times New Roman&amp;quot;;mso-bidi-font-family:Aptos;&lt;br/&gt;mso-ligatures:standardcontextual;mso-ansi-language:EN-SG;mso-fareast-language:&lt;br/&gt;EN-US;mso-bidi-language:AR-SA&quot;&gt;10.96.0.6&amp;nbsp;&lt;/span&gt;&lt;/b&gt;" style="image;sketch=0;aspect=fixed;html=1;points=[];align=center;fontSize=12;image=img/lib/mscae/SQL_Servers.svg;" parent="1" vertex="1">
          <mxGeometry x="-120.2" y="8517" width="70" height="70" as="geometry" />
        </mxCell>
        <mxCell id="j552SZLn4paQCeeURNuj-5" value="&lt;font face=&quot;Aptos, sans-serif&quot;&gt;&lt;span style=&quot;font-size: 14.6667px;&quot;&gt;&lt;b&gt;Isetan_StockTake&lt;/b&gt;&lt;/span&gt;&lt;/font&gt;&lt;br&gt;&lt;font face=&quot;Aptos, sans-serif&quot;&gt;&lt;span style=&quot;font-size: 11pt;&quot;&gt;&lt;b&gt;in&amp;nbsp;&lt;/b&gt;&lt;/span&gt;&lt;/font&gt;&lt;br&gt;&lt;span style=&quot;font-weight: bold; font-size: 11pt; font-family: Aptos, sans-serif;&quot;&gt;172.18.200.21&lt;/span&gt;&lt;b&gt;&lt;span style=&quot;font-size: 11pt; font-family: Aptos, sans-serif; font-size: 11pt;&quot;&gt;&lt;/span&gt;&lt;/b&gt;" style="image;sketch=0;aspect=fixed;html=1;points=[];align=center;fontSize=12;image=img/lib/mscae/SQL_Servers.svg;" parent="1" vertex="1">
          <mxGeometry x="-778.92" y="8535" width="50" height="50" as="geometry" />
        </mxCell>
        <UserObject label="http://172.18.200.21:8081/stkweb/WebCountITSB.aspx" link="http://172.18.200.21:8081/isdreports/LSBarcode.aspx" id="j552SZLn4paQCeeURNuj-29">
          <mxCell style="text;whiteSpace=wrap;html=1;" parent="1" vertex="1">
            <mxGeometry x="-578.91" y="9126" width="320" height="40" as="geometry" />
          </mxCell>
        </UserObject>
        <mxCell id="j552SZLn4paQCeeURNuj-33" value="" style="endArrow=classic;html=1;rounded=0;" parent="1" edge="1">
          <mxGeometry width="50" height="50" relative="1" as="geometry">
            <mxPoint x="-386.41999999999996" y="8557" as="sourcePoint" />
            <mxPoint x="-137.42000000000002" y="8559" as="targetPoint" />
          </mxGeometry>
        </mxCell>
        <mxCell id="j552SZLn4paQCeeURNuj-35" value="Item Master" style="edgeLabel;html=1;align=center;verticalAlign=middle;resizable=0;points=[];" parent="j552SZLn4paQCeeURNuj-33" vertex="1" connectable="0">
          <mxGeometry x="-0.2311" y="4" relative="1" as="geometry">
            <mxPoint as="offset" />
          </mxGeometry>
        </mxCell>
        <mxCell id="j552SZLn4paQCeeURNuj-44" value="Windows APP" style="sketch=0;pointerEvents=1;shadow=0;dashed=0;html=1;strokeColor=none;fillColor=#505050;labelPosition=center;verticalLabelPosition=bottom;verticalAlign=top;outlineConnect=0;align=center;shape=mxgraph.office.concepts.form;" parent="1" vertex="1">
          <mxGeometry x="-482.09000000000003" y="8557" width="87" height="98" as="geometry" />
        </mxCell>
        <mxCell id="j552SZLn4paQCeeURNuj-45" value="" style="endArrow=classic;html=1;rounded=0;" parent="1" edge="1">
          <mxGeometry width="50" height="50" relative="1" as="geometry">
            <mxPoint x="-503.91999999999996" y="8562" as="sourcePoint" />
            <mxPoint x="-691.92" y="8562" as="targetPoint" />
          </mxGeometry>
        </mxCell>
        <mxCell id="j552SZLn4paQCeeURNuj-46" value="Item Master" style="edgeLabel;html=1;align=center;verticalAlign=middle;resizable=0;points=[];" parent="j552SZLn4paQCeeURNuj-45" vertex="1" connectable="0">
          <mxGeometry x="0.1146" y="-3" relative="1" as="geometry">
            <mxPoint as="offset" />
          </mxGeometry>
        </mxCell>
        <mxCell id="j552SZLn4paQCeeURNuj-47" value="" style="endArrow=classic;html=1;rounded=0;" parent="1" edge="1">
          <mxGeometry width="50" height="50" relative="1" as="geometry">
            <mxPoint x="-384.74" y="8578" as="sourcePoint" />
            <mxPoint x="-135.74" y="8580" as="targetPoint" />
          </mxGeometry>
        </mxCell>
        <mxCell id="j552SZLn4paQCeeURNuj-48" value="Stock Balance" style="edgeLabel;html=1;align=center;verticalAlign=middle;resizable=0;points=[];" parent="j552SZLn4paQCeeURNuj-47" vertex="1" connectable="0">
          <mxGeometry x="-0.2311" y="4" relative="1" as="geometry">
            <mxPoint as="offset" />
          </mxGeometry>
        </mxCell>
        <mxCell id="j552SZLn4paQCeeURNuj-50" value="" style="endArrow=classic;html=1;rounded=0;" parent="1" edge="1">
          <mxGeometry width="50" height="50" relative="1" as="geometry">
            <mxPoint x="-502.16999999999996" y="8581" as="sourcePoint" />
            <mxPoint x="-690.17" y="8581" as="targetPoint" />
          </mxGeometry>
        </mxCell>
        <mxCell id="j552SZLn4paQCeeURNuj-51" value="Stock Balance" style="edgeLabel;html=1;align=center;verticalAlign=middle;resizable=0;points=[];" parent="j552SZLn4paQCeeURNuj-50" vertex="1" connectable="0">
          <mxGeometry x="0.1146" y="-3" relative="1" as="geometry">
            <mxPoint as="offset" />
          </mxGeometry>
        </mxCell>
        <mxCell id="j552SZLn4paQCeeURNuj-53" value="" style="endArrow=classic;html=1;rounded=0;" parent="1" edge="1">
          <mxGeometry width="50" height="50" relative="1" as="geometry">
            <mxPoint x="-502.19999999999993" y="8538" as="sourcePoint" />
            <mxPoint x="-690.1999999999999" y="8538" as="targetPoint" />
          </mxGeometry>
        </mxCell>
        <mxCell id="j552SZLn4paQCeeURNuj-54" value="RPG" style="edgeLabel;html=1;align=center;verticalAlign=middle;resizable=0;points=[];" parent="j552SZLn4paQCeeURNuj-53" vertex="1" connectable="0">
          <mxGeometry x="0.1146" y="-3" relative="1" as="geometry">
            <mxPoint as="offset" />
          </mxGeometry>
        </mxCell>
        <mxCell id="j552SZLn4paQCeeURNuj-55" value="" style="endArrow=classic;html=1;rounded=0;" parent="1" edge="1">
          <mxGeometry width="50" height="50" relative="1" as="geometry">
            <mxPoint x="-388.91999999999996" y="8538" as="sourcePoint" />
            <mxPoint x="-139.92000000000002" y="8540" as="targetPoint" />
          </mxGeometry>
        </mxCell>
        <mxCell id="j552SZLn4paQCeeURNuj-56" value="RPG" style="edgeLabel;html=1;align=center;verticalAlign=middle;resizable=0;points=[];" parent="j552SZLn4paQCeeURNuj-55" vertex="1" connectable="0">
          <mxGeometry x="-0.2311" y="4" relative="1" as="geometry">
            <mxPoint as="offset" />
          </mxGeometry>
        </mxCell>
        <mxCell id="j552SZLn4paQCeeURNuj-57" value="" style="endArrow=classic;html=1;rounded=0;" parent="1" edge="1">
          <mxGeometry width="50" height="50" relative="1" as="geometry">
            <mxPoint x="-501.64" y="8635" as="sourcePoint" />
            <mxPoint x="-689.6399999999999" y="8635" as="targetPoint" />
          </mxGeometry>
        </mxCell>
        <mxCell id="j552SZLn4paQCeeURNuj-58" value="Batches" style="edgeLabel;html=1;align=center;verticalAlign=middle;resizable=0;points=[];" parent="j552SZLn4paQCeeURNuj-57" vertex="1" connectable="0">
          <mxGeometry x="0.1146" y="-3" relative="1" as="geometry">
            <mxPoint as="offset" />
          </mxGeometry>
        </mxCell>
        <mxCell id="j552SZLn4paQCeeURNuj-59" value="" style="endArrow=classic;html=1;rounded=0;" parent="1" edge="1">
          <mxGeometry width="50" height="50" relative="1" as="geometry">
            <mxPoint x="-503.91999999999996" y="8796" as="sourcePoint" />
            <mxPoint x="-709.6399999999999" y="8678" as="targetPoint" />
          </mxGeometry>
        </mxCell>
        <mxCell id="j552SZLn4paQCeeURNuj-60" value="Batches" style="edgeLabel;html=1;align=center;verticalAlign=middle;resizable=0;points=[];" parent="j552SZLn4paQCeeURNuj-59" vertex="1" connectable="0">
          <mxGeometry x="0.1146" y="-3" relative="1" as="geometry">
            <mxPoint as="offset" />
          </mxGeometry>
        </mxCell>
        <mxCell id="j552SZLn4paQCeeURNuj-61" value="" style="endArrow=classic;startArrow=classic;html=1;rounded=0;" parent="1" edge="1">
          <mxGeometry width="50" height="50" relative="1" as="geometry">
            <mxPoint x="-443.91999999999996" y="9024" as="sourcePoint" />
            <mxPoint x="-443.91999999999996" y="8938" as="targetPoint" />
          </mxGeometry>
        </mxCell>
        <mxCell id="j552SZLn4paQCeeURNuj-62" value="" style="endArrow=classic;html=1;rounded=0;exitX=0.979;exitY=0.073;exitDx=0;exitDy=0;exitPerimeter=0;" parent="1" edge="1">
          <mxGeometry width="50" height="50" relative="1" as="geometry">
            <mxPoint x="-408.2020000000002" y="8791" as="sourcePoint" />
            <mxPoint x="-137.51999999999998" y="8643.43" as="targetPoint" />
          </mxGeometry>
        </mxCell>
        <mxCell id="j552SZLn4paQCeeURNuj-63" value="Stock Balance" style="edgeLabel;html=1;align=center;verticalAlign=middle;resizable=0;points=[];" parent="j552SZLn4paQCeeURNuj-62" vertex="1" connectable="0">
          <mxGeometry x="0.1146" y="-3" relative="1" as="geometry">
            <mxPoint as="offset" />
          </mxGeometry>
        </mxCell>
        <mxCell id="j552SZLn4paQCeeURNuj-64" value="" style="endArrow=classic;html=1;rounded=0;exitX=0.979;exitY=0.073;exitDx=0;exitDy=0;exitPerimeter=0;" parent="1" edge="1">
          <mxGeometry width="50" height="50" relative="1" as="geometry">
            <mxPoint x="-383.12" y="8819" as="sourcePoint" />
            <mxPoint x="-112.12000000000002" y="8671" as="targetPoint" />
          </mxGeometry>
        </mxCell>
        <mxCell id="j552SZLn4paQCeeURNuj-65" value="Unposted Sales" style="edgeLabel;html=1;align=center;verticalAlign=middle;resizable=0;points=[];" parent="j552SZLn4paQCeeURNuj-64" vertex="1" connectable="0">
          <mxGeometry x="0.1146" y="-3" relative="1" as="geometry">
            <mxPoint as="offset" />
          </mxGeometry>
        </mxCell>
        <mxCell id="j552SZLn4paQCeeURNuj-66" value="" style="endArrow=classic;html=1;rounded=0;" parent="1" edge="1">
          <mxGeometry width="50" height="50" relative="1" as="geometry">
            <mxPoint x="-448.86" y="8532" as="sourcePoint" />
            <mxPoint x="-446.36" y="8460" as="targetPoint" />
          </mxGeometry>
        </mxCell>
        <mxCell id="j552SZLn4paQCeeURNuj-67" value="Variance Reports" style="sketch=0;outlineConnect=0;fontColor=#232F3E;gradientColor=none;fillColor=#8C4FFF;strokeColor=none;dashed=0;verticalLabelPosition=bottom;verticalAlign=top;align=center;html=1;fontSize=12;fontStyle=0;aspect=fixed;pointerEvents=1;shape=mxgraph.aws4.quicksight_paginated_reports;" parent="1" vertex="1">
          <mxGeometry x="-475.5" y="8342" width="62" height="78" as="geometry" />
        </mxCell>
        <mxCell id="j552SZLn4paQCeeURNuj-68" value="" style="endArrow=classic;html=1;rounded=0;" parent="1" source="j552SZLn4paQCeeURNuj-76" edge="1">
          <mxGeometry width="50" height="50" relative="1" as="geometry">
            <mxPoint x="-389.36999999999995" y="8613" as="sourcePoint" />
            <mxPoint x="-140.37" y="8615" as="targetPoint" />
          </mxGeometry>
        </mxCell>
        <mxCell id="j552SZLn4paQCeeURNuj-78" value="" style="endArrow=classic;html=1;rounded=0;" parent="1" edge="1">
          <mxGeometry width="50" height="50" relative="1" as="geometry">
            <mxPoint x="-412.36" y="8928" as="sourcePoint" />
            <mxPoint x="-412.36" y="9031" as="targetPoint" />
          </mxGeometry>
        </mxCell>
        <mxCell id="j552SZLn4paQCeeURNuj-79" value="Multiple Unit" style="edgeLabel;html=1;align=center;verticalAlign=middle;resizable=0;points=[];" parent="j552SZLn4paQCeeURNuj-78" vertex="1" connectable="0">
          <mxGeometry x="-0.2311" y="4" relative="1" as="geometry">
            <mxPoint as="offset" />
          </mxGeometry>
        </mxCell>
        <mxCell id="j552SZLn4paQCeeURNuj-80" value="" style="shape=cross;whiteSpace=wrap;html=1;rotation=45;fillColor=#FF0000;strokeColor=#FF0000;" parent="1" vertex="1">
          <mxGeometry x="-399.29" y="8978" width="31" height="31" as="geometry" />
        </mxCell>
        <mxCell id="j552SZLn4paQCeeURNuj-82" value="" style="endArrow=classic;html=1;rounded=0;" parent="1" target="j552SZLn4paQCeeURNuj-76" edge="1">
          <mxGeometry width="50" height="50" relative="1" as="geometry">
            <mxPoint x="-389.36999999999995" y="8613" as="sourcePoint" />
            <mxPoint x="-140.37" y="8615" as="targetPoint" />
          </mxGeometry>
        </mxCell>
        <mxCell id="j552SZLn4paQCeeURNuj-83" value="Multiple Unit" style="edgeLabel;html=1;align=center;verticalAlign=middle;resizable=0;points=[];" parent="j552SZLn4paQCeeURNuj-82" vertex="1" connectable="0">
          <mxGeometry x="-0.2311" y="4" relative="1" as="geometry">
            <mxPoint as="offset" />
          </mxGeometry>
        </mxCell>
        <mxCell id="j552SZLn4paQCeeURNuj-76" value="" style="shape=cross;whiteSpace=wrap;html=1;rotation=45;fillColor=#FF0000;strokeColor=#FF0000;" parent="1" vertex="1">
          <mxGeometry x="-227.64" y="8597" width="31" height="31" as="geometry" />
        </mxCell>
      </root>
    </mxGraphModel>
  </diagram>
  <diagram id="nWgBb5QCTmXI35zjHjlD" name="Page-2">
    <mxGraphModel dx="1647" dy="877" grid="1" gridSize="10" guides="1" tooltips="1" connect="1" arrows="1" fold="1" page="1" pageScale="1" pageWidth="850" pageHeight="1100" math="0" shadow="0">
      <root>
        <mxCell id="0" />
        <mxCell id="1" parent="0" />
        <mxCell id="3SG8iJz62AaTiRCEiN_O-1" value="&lt;h2 style=&quot;box-sizing: border-box; margin-top: 1.75rem; margin-bottom: 0.5rem; line-height: 1.2; font-size: 20px; padding-bottom: 1rem; font-family: &amp;quot;Source Sans Pro&amp;quot;, HelveticaNeue-Light, &amp;quot;Helvetica Neue Light&amp;quot;, &amp;quot;Helvetica Neue&amp;quot;, Helvetica, Arial, &amp;quot;Lucida Grande&amp;quot;, sans-serif; background-color: rgb(255, 255, 255);&quot;&gt;ISETAN |&amp;nbsp; Stocktake Application | User Guide&lt;/h2&gt;" style="text;html=1;align=left;verticalAlign=middle;whiteSpace=wrap;rounded=0;fontSize=20;fontStyle=1;fontColor=#000066;" vertex="1" parent="1">
          <mxGeometry x="30" y="30" width="478" height="36" as="geometry" />
        </mxCell>
        <mxCell id="gWDU02HXWggpp88t76um-1" value="&lt;h2 style=&quot;box-sizing: border-box; margin-top: 1.75rem; margin-bottom: 0.5rem; line-height: 1.2; font-size: 16px; color: rgb(3, 155, 229); padding-bottom: 1rem; font-family: &amp;quot;Source Sans Pro&amp;quot;, HelveticaNeue-Light, &amp;quot;Helvetica Neue Light&amp;quot;, &amp;quot;Helvetica Neue&amp;quot;, Helvetica, Arial, &amp;quot;Lucida Grande&amp;quot;, sans-serif; background-color: rgb(255, 255, 255);&quot;&gt;ISD Ver 01 | 20250127&lt;/h2&gt;" style="text;html=1;align=left;verticalAlign=middle;whiteSpace=wrap;rounded=0;fontSize=16;fontStyle=1;fillColor=none;" vertex="1" parent="1">
          <mxGeometry x="30" y="80" width="478" height="30" as="geometry" />
        </mxCell>
        <mxCell id="OsQy39CXcE1SWKgziEEN-9" value="1" style="shape=image;verticalLabelPosition=bottom;labelBackgroundColor=default;verticalAlign=top;aspect=fixed;imageAspect=0;image=data:image/png,iVBORw0KGgoAAAANSUhEUgAAA0IAAAC9CAYAAACecs0lAAAAAXNSR0IArs4c6QAAAARnQU1BAACxjwv8YQUAAAAJcEhZcwAADsMAAA7DAcdvqGQAADCSSURBVHhe7d0PdFXVge/xX6CCCO1qpyjTB+1YIxkIkXbaGV9iGbUBIU6KxX/01fXeUCnpoGJqZIG0K31vvQev8mecOBEYpkFa1nrPVWnVKAZihI7MMA101rxpMQlOMGLbaS0g1Zb/Ysjb+5x9bs69OefmBhLIzf1+uo45Z59z9vmTm3p+7n32zXv77be7ZHR1dencuXM6c+aM3nnnHZ08edKb3n//fbs6I7YOZM7eb2Q/PvcIBP8/evbsWV1xxRWuNFrw9z9s2DDvZ5S+b3NM/1TzshoOmdlxk7S0qlB/4K21QutCrvqLW/TwjR90S75/3/Ksvvv/3EKcUP0ZbW+Ej/Xbf3xJq7ed8Ob1mT/Tyrkf9+eThM95tMqXzNKff9Rb4Tvapr9Z85oOm9lPz7tD/2WyXxwlOMfetov3S31/2b/op24pEFefd33/+vGU30E/68P1xznv8+yHY/dN+P5HfBYG2v4fa9nm35iZ0LGjygaEf+0K3+fEsceofOks3Xgx74Vlfv+PrTa//z+cpEfSfXb2/7Me+Z79Azb3KOI8X3va/X9Hb/VcKonzT/bpr9yhL1/IZz7lvtw0Ns8vj3K0VX+9yv9b+5Ov3KkvF/rFcfLy4uvK5N8p1okTJzR69Gi31NPA/PsrXvh8oq4vXT0jRozQqFGjdPnll+vDH/6wV4/dztbjTTYI2Qrsv8DNvA4dOqSr/nC8Ro/5oNl4jKlgpKsKAAAAGLym33yDdr7yY7eUXbL13BfNulF/dfXH3NIgY7JM5x+M1bmPXqlzn/pTjf/EJ3TVVVclgtCwIAT94he/0MlTp1V43Wc04eNX6yMf+SghCAAAAEB2OnFcw3/5pi776b9oxHNP6a29P1ZHR4fXimTzz7CgJahLeZr4x0W6/PJRbk8AAAAAyH55v/+dLmvaquOtr+rw4cN+EDp9+rTXHe4TV1/rNgMAAACAoecDe/9Rv/nVr3Tq1CkNswMj2HeCaAkCAAAAMJTZlqG8n/6LNzjcMDsynB0YAQAAAACGury3j+j48eMuCI0e44oBAAAAYOgadvSw1zUur7Gxsav4c593xfF++q/Nbq5vPv3ZEjcHAAAADByGz774BvXw2Wmc+sr9Sv8NRilsqAlP1pX/cU9i+sjPv6zRr39JI16bq3P77vLWAwAAAMBgkhg++0JNLvuuN11Xtk6fuXWV/vOtj+jYiU63FgAAAAAGlz61CEV57+w5qfOEus78Wl2n35RO/bt0Yr+OnXzfbdG7Pc3/rA9/cGRieuaHW9yai+tvH3/MmwAAAIBsFX6uTjcNNn/+VH1iCosrv1B9CkL2PaHwZJ06fc4EoIPSyQPqMgGo63ibuk7u14lTmQUhG3rKZpbq3WNnEtOP/3m3W9v/7rz9C17w6s2bbx7Un0yd7JYAAAAADKR/umeOm/PDT/inFV7fH/oUhC6/v0xa+Bc69bVy/XbBbK/s97bl58RrJgS1+kHoVLsJQgd16kxmXe6+eu9/88JP2GM1tW4OAAAAwPkINzSEp8EsKgxZ/R2CrD4FoWPvD9Nn//r/6rOV/1u/M/Ne2clOE4DapJPtyjv9hnTmLencSXV29h6EbGvQVxf8lVuKZltlguY725oTWFxVmdSFLrxst7PzwX52XVC+c8fLXgtUutYe2xr06esm6eDBN7z96S4HAAAAXBypoWcgQpDVpyD0u3PDdernb+rYvp/p3feHe2XHTRDa+P1/0/qnD6r2+0dVu+WUmU566zLxiT/6IzfXkw0uX5m/IJFer776mkSo6c2K//U/Evs9ufHvvXDzzHMvavqMW9TY9CP92779bsuerr76k/rpq6/pk5+8xtv/6w8tdmsAAAAAZLtz5871MQiZ8PP7ffv0+1f36VinH4Q+OetFTZq9TVNvb9Rn7n5Jn51rpybvZyZ+8fOfu7mebOtNOIQ8+PUq/Wjny24pvb/7+41uTl74+c1bv3ZLAAAAQHpBz6LeJvS/1EER+nuQhECfg9DTW7fqmYO/1O86/V2b3rk6MW07/HHV//I/eeWZfJHqZ//0z7zWmr64Jj/fzQEAAACIExXc7DSYxb0X1N9haNiwYX37HqHP/J9n9LmnfqgZ39+i2Vue9sreP9upSR/9I40d+Uc6d/Ya/ebXv/PKM2G7oNl3hFLf1wm6v9mWnPD7OU/8bY1uvOnz3rztUhceXS7TQGW71/3qV79yS/Hsudl3hAAAAAAMvKgQNFBhyPtCVTefEdvKE7T0BD8P/+a4jh6Xfv2OdOhop976j9975ZmyI8TZ94DCKfXuuV/y1tl3er63aWNSeg26ytmfNvwE63obdCFww+emeSPVZTI0tg1itm4GSwAAAMgtwbvmvU2DUdR5Rk2DjQ09wRQWV36h8rZt29Z1w59Pd4vx7PcGBeEnmLc/H92Wp9On39fZM506e7bTW7/mL0cl1gf7AAAAAANp+s03aOcrP3ZL2SVbz33RrBv1V1d/zC1ljxN/ubBvLUI22NgpmLe+8Rdd+p93DNe3vzzCC0B2soL1AAAAADDYZNwiBAAAAAxmtAhdfDnTIgQAAAAAQwFBCAAAAEBO6fMXqgIAAADAUEAQAgAAAJBTvC9UdfMAAAAAkDMIQgAAAAByDkEIAAAAQM7he4QAAAAwJNjv4sHFNXnkB9xcdvmv//1/uiB0w8X70OTl5bm5oWMoXtNQxGcvO/D3lB347GUH/p6yA5+97MDfU3bI9Pe0Y8cOusYBAAAAyD1pW4Qef/xxNwf0zcMPP+zmBg/+61R24L+4ZQc+e9mBv6fswGcvO/D3lB0y/T3ZFqFeg1B1dbVbAjKzYsUKgtBFwjXhUuGzlx34e8oOfPayA39P2SHT39Pzzz9PEEL/IwhdPFwTLhU+e9kh6ppOnz7t5jAYXH755fw9ZYmheE1DUaa/J94RAgAAAJCTeg1CXV1dTEx9mgAAAIDBrh9ahBp132WX6bL7Gt1ystdrb9Rll92o2tddQeN9Ztlsb6YbE4VRXlftjf523nRjrSm5VNw1hqaYyz0Ptu7Q/UkndO8uu+w+s6dXmPn+g06Tvv6hD+lDX29yy8k61s/Qhz40Q+s7XIHV9HVT9nWzZ5T09b2xfro++MHpWv+GK7goXlZl5DFt+QfN+XRPlS+7VResSZVjSrWu1+u0243RmNBUGX3rBpkmPTh6tEY/GPO5WTddo0dP1zr3uWl60GxrtzfT9KAwiasvNMVUPQT05d51aN303u5JkxZdcYWuCE2la6Pu8WDgznVRzLWvLdWoUZ9X6ul3rP28Rn1+rbkb8V5aNEqjFr3kluK8pEUR9feqY60+fz77pbVfP/jWWu064hYHhQE4p/0/0Le+9S1vWhuqeP8P/LLU8rjtA0d2rdW31u6SXePNu227px+Yq3C8ukLLAAalfuoaV6KS1m9HPIw36rHFzW7eMg/ts6WtZ8/q7NmtmrJ4fvQD/Ou1uvGyydr/TbudmzZJ2/olfJxvcCjRY/vduex/TK2zgyASp58Dir0niXtnz2Gy2vvlfoRdilB1va5vXZ0cdjxNql32EzdvdWj9DBNyGqR7XUm0+PoefyRc32BwvVb97JiOHTPTz1ap9Y5KE4/SiQtVF8Kcw77jOn7cn2pnuuJYTRmGrIFWrOK2VYmw0838npfucfNGxzodmH1CJ07Y6TkVLv1axD5WsVbvc9s9N1+bbn/Q1HQx2GDSHdoujgzvnfmbm/iIuyf7Vqst9p6Ye/fqSZ08aad6c4+viw0b3WwoKe3nh/tM2GtfGXHcJtUkXXvgJdUsiSoPMUFlZetX9dXWqHr7Qf4i/cOpf9CifLeMDJlg9ZR0z/LlWr78Ho3b8bQfso7s0uEiW5ZSHrd9wn69suOQm5euvGmRq8OfKmeM07gZN2uyiUm71ppQ1CJNddsCGLz67R2hKVOkH25LeYJufF4bFyzQArfoL39RZd5CmRY/FrGPbQmav1hTtp7V3/kb+q6tVGV4+VK6tkBT1Kr2ixkYXt+v5pLJutYtDqr7cYHsZ+fZl1KeIJoa9N177w2Fnnzdv+P3+v3flrvleJnVN8hcM9H7TB245AEjexQWmt9zY+rveas2zZ+v+W5R+Q/ogUS4y9ekYjebzszZZv82HRiIh9pBIqN7p5maGdy7/Ikyu2Rgpta+ulrFm16ICU2Xnnft21Ov/QXv2r/qFgMda1dKa9aY+BSvY/sz0p1VqrpTeia1Xlw6+1u0b2qRCSbWZN08Q3q1zSSbK2/STX6hMVZXjXOzcds7R3btlGbMULB5MhuSxmn6TVea+St10yITju4u8lcBGNT6LQhNXvxNTTHJpruRwgSab7fqscVfdMumpL1VJZMTj/ImT0xR8/6UNPH6Nv2weYG+GPuQ77da3Hef7XLnWmW8FqTULmNmy/uCMjN5fdnsvrO1Uc1aPDkoM2L2j+UFum+q0l1KxsdJ6e6X1L0udA6RXQbLvqgFzYs1P665Jm7/uGvrUR51zmnOtx/9ceVSTVlWG3pw6tD61a1aWdl76IkSV9+qh2a7Zd/LlaGuaYl+aa7VZX1lYt30RBNMaotM8nJ0fRl6easJast0/zVusUdd9lh36Lv6iR75VLj+N7SuNKZr2+vrVOrKS/vUhONafdZVJur197fld2iTPYepptw7mL9tZWWp2a5UpeZcks6hydRRus6cZf+b9NAjKlz6eNLved2qNq1O+T1369Brewo1sbf/sm4DQfEdKgu261in6a572OjRQauIa8lp6l6X1O0uaZ9wtzJ/vwcftF3Q7Lrbzf3co6VTzby3USbd0S5cn++dF5Jmm5iTgfxbdUfxJr3gKm9aFOo657UU2dagOf51X9fdVa3ndgNjUtUyc+01Sde+dqW59qrb3LLTsVYLXlumtbe65Ugd8nLQrfnmsr0kZEpCvG5tozTKTJ9fe8AVWq6b3Evd623POq8bXmL7oKZwlzo3v3ZRxHb95MgurQ119/pBuG9XaN3aXbuSu7JluC6pu1jSPoddYU/hrmzfSpyQa3lx5UnnaRw5fEjjrhrrlkw8MYnn0OG33VLgbR0+NE5XmfySdntznk8fnq674/5rgAlRh7zWIADZpl8GS/A3nKXbFmzU89td+QETaHSXbs0P1psyfya0b+qyKyuZrPyksuRJ5mG9dfKTeu+99ZrVtV33TTZHanvPLJvpBenbtQe87Watd2WmcMHGb6v2wCytt/O2m5vdfv0ss138/qnH9AKCDQXmWeEFb19/XWbHOWBCxWT98K42t+17Wj8rVPe3pSe94y9QswmU213d3ZOts013/XCyH0qC+2ym+P3jri2qPL/nOW9/TIunvNDjfHub+m6myu/9rhqCJ5OOl/Ss7tCs8+4KEl1fmQsZgVtqXbe0Y8/q3u+uDAUc86D/2mx/3bP36iePPG5iSO/i64vjQo0NO3dIz9be4sqj6rpFtXY+6E7nbWtD0FQ9c+e+iK5tpu6V0kZb/ux87xqiHy1dqPECT2VoG1P+71/w603sP1O1x5/V/KA7XeJgP1HLH2802/5IP1o2X5te7K6l6cVNmr/sAaXc+n4yU7Pnb9LWxO+50f89x3xumh68XW2rH4p5mHdhxAaQrbN1YucD8qsxwWWqqTXRbU5alQg8Zp9V0ndc1zElut3ZfZaq8Llwt7Jw97c9apv0HX+dqXB+0C3vCXNmTY9raeFzbt0J2aKBkdm9898ZcvfkPE9m5trubnPzN9nuYzO11s4HXerW+vX23M4rHgAzdZu59iCoqWO7d+0my4SYcLTgGd1ZNcstxzD7mq38fU0AvNMsdTcKmdBStERT6k/p1KlT2mjWPenW+PZoif0bNetO1X9VT84ZZf7/d6O3rV3es6TG1BDF7Gf+/6n37c7Hfv2gdofG3eO6fFXO0KGngkCTvO5LelX7vH2s3ta9qusqXZ33SDu9CtPtk2zy3W5fs/PUfTv989n/inaMu8eVL9fd55FC9v/gqQwCjAlcT5vzvzluK7N+5yFdV2hbgwBkk3PnzvVfi5BV9vBjan30CW9Qg8a/Wawp33iwuytXXzTv9+qIV6K7bnU1v35ArTYIFI7QiBFmum1jdytT4/1+2YjbzL9eYqTbP4kLCDYUtE3WoyNu0hPBZhkdZ7vX0vWNB6PuiKn7SXevym4z/zJs1YHIG3CtHtxlj2/u820jdH+ihSZm/7hry/Sar52sko236abEhQ6cmZUr1bp6vfdfU5tql2nK0vvdg+j5iaqvx8P4y0Grj21pCTMP+g+5UHLLbBM+MuyyFltfnPA7QpO0MtzalEldbzTqmZ/M17IHomKGqXujCyAzv2AeOltirsGFGi9I1YZCgr0Hbint/tb1uvNWdw52200vukDVpBdbVimoZiDMfMiEjFXr/N/z4yZ8PBIEmDC/lWXVpH3a+UDcp8qFERNaijdtdedvdBxQWzgk3b5Je14LnnTNPt9xx8t/QI/M3yNvlbfPfM0Orju8zlOsO+LSWv4kc/zbYwZ16F+Z3Lv8B3b6oWz2VnP9fXmXqViTgsqaFrmWHtsKlEam2/WDmVXm2lf6AyA01ZhrX7Yo6do71i7QM3du7PW9HL9b3K1u33zZRqElNS6WmM9Ba/EaBVkqf9GylK53xVqz0R131myzrthrWfJ4y+b/dyLvt9kvqDTtdufhyGEd0lQVBc/8V96k6VMPyWsYsevGzVCQB668aXr3OzC9rTP/21HrWm+e2ue3tKTbJ1ViEIOnusPS2Ks0bt9TkYMa9M5vTdp5VaUWed3Z4h3Z9bReve5Lit3sSJteHTc9fj2AQa1fg5CuvVV36Yfa3viEHm19TA+ndG+7dmJyV7jXDyR3lfPYOko26oXEQ34mFugF12rhTevNgV9/QjfdJlfepsdK3KaRIvZPxzvHZnmX0qfj9JNrH9ST5kAbM7pJcdeWwTWb4+wy6540/6q1gak7eA2A/Fm6Q8/qpab1Wt26UpUX+vDcW31vrNd02wrjtbr8TKuud+Xn60Lru6ZMd17/E/9hub/P7aKaqYdWtWjlujf0xrqVajEPiQPTGuTkl3m/58amdVrVtjoidNkQ9DXbbJMmBIWY0PKd1W2hVh9rvp5zLTTeFNky0qEDbW72Qpjj7zTH+I6+NqBd4zy93ruQmU/ouaQwl4ZtYdlTqAJ7uzvWqnSOVO+19Lyq1XEv22S6XX+x3ffMtW9vWquV5tqrkq7dHyBhz5Iiv/tZ0RLt2bNERT1GjkvZzkxFdmCFJ7f2YwvNUDHVDULgpr4039juc4lBDCo1I3hJx4S0RabsS3o6smtcale47q5vNgQ9LX1peVIIit7+sDdAwqEdtX4Qq92hQ4d2qNaNHOdt1/aqxiWSI4BsMmzYsH4OQrbF4htTtPi2xdJdt/ZsDfJaGF5w76k06m+8zVK3snUs0MakFg/DBI4noh7Er7UvmW/Uo6mtFuHBBbzWGK+0p7j90/HqK5GX4TI+jh/w+nScMBMuu3d9XdvNgXqEyFRx19bHa772wV1qM8GrNbqZqp/k6/6lU7TsrmXSHbOS/uvs+emlvo7X9JPrJ/nlXsuKV9qLfE0Kwopl3+txs+dXX4i3z/X+f0XPtC4vPG3yQsdgco33rsTjetz7j+UDGoOMfD3wSKGW3r7U/J7L/HsW5nU1e0SZZKBA/gP2/RnXzc0bJGBTSjAK7OkecMB2LdvjWoHcPt3dzkzQ2BRqIcqAbYnZZ9JA24CO2NDbvWvqbhkzc1s3hVp5YjVp0XVLVVi/1m9dNJ/lPcXus+wFJDsTIdPt+k2+Fi0z1z7HXnvQohOYpbW221kwtaxRcfEatfxDcquRXtqqJ215eNtTLVpT/KS22iRkPgdTTIBKNBCtXZnSNW4QuvIqjdM+tSRew9mlnftcC5FdZ0LAK26dHTwg0TrT2zqz5HeHC0m3T9jbtuXoKnlv79jWl+6B2zx29DY7Ytuhwyn1ey1GLfKrt4MZyO++5nWpi2jBidz+Jt0dDnCVMzRu3AxVLrpJ/u5HZHKQQq8WAcgy/RyEjLKH9VhJTBcw28LwgnSb60amF3YpsqdY2fpE9y+/y5mZvirdGtlQU6b1ZlstLuze1iYoex5arEJv3/2akmipKdNtC1y3MC9pxezfQ6grWaF9v8ade8bHsd3aXtCU0HEiDxOnbKL2B8cfUei9u7Mr8uaFxV1bfHnSOSe6/I1Q4eIpMd36+tHMSq28/l4tvb/Xp63MpKvvloe0So/oU7b7WcVrmpJRq8s1un/ZvfruHbbLmpm2hobyPq/6Qu8IfeoZ3fmznf5gCbF13aLZ97p9vMESrtEDP3pWRY9MTQxq0PfvAQq/I5TJoAoz9YX5bp+4g13zgJYVbdKmomWK7LXX32Y+pNXF8/VIRNrpsM00m273u7W5qfduZzP1kPfKj+02NlNPeO//TO2uI9FMU6zC1/yWm9HeO0FP+A//bp+229323jtGwbpU9l2d0GAJTQ8mjjN1aWHkNfWrNPdO+Qe0yp2LHdRBz+2MCZRu0AOvW9tKTXr1pNxrP6b+Kq3WUl1n15nPcmGipce+p+P2swMjxG43gOwxzbUvO89xqV/a+qSKE93iArZ7XLGe9JKQCVTu3R/bWrRAd6Z0jbvUQt3VzOR3MZusu733gly5927P3YmR1O6+Z6r2uXVP67pQV7Ze1pk6zcESx/IHPEi3T8jkmzVDO1Rr93v6sAkirjz0nT+1iRHbQmyL0T3SU942tklpkRd+bEuPOWhiXzt51x6zfXrdgy0AyE5527Zt67rhhhvcYrLHH39c3/jGN9wSkJlHH31UDz/8sFsaPPLy8tzc0DFYr6mpcoxe/EIm30vUU3b8nuzob6s0aV9cOBj6+HvKDlHXdPr0aTd3AWyXtdrDmr48CEoh6dahh8svv5y/pywxFK9pKMr097Rjx44BaBECkNveWKeVAzxIAoBLa/8rO7q7rKVItw4ABpNh5zfcMQCkct9pNPUZ3RmMWAdgiEj+3p6n9k3VPaF3ZeLXAcDgZDNQXkNDQ9fnPvc5V5SMrnE4H3SNu3i4JlwqfPayQ9Q19UvXOPQbusZlj6F4TUNRpr+nl19+mSCE/kcQuni4JlwqfPayA39P2YHPXnbg7yk7ZPp7eumll3oPQraZG+gLO8wofIsXL3ZzA4N/0eBS4bOXHfh7yg589rIDf0/ZIdPfE0EIGEA2EBKE+o5/0WQHPnvZgb+n7MBnLzvw95QdMv092a5xvY4aZ18kOnfuXGLq7OxMTO+//35iOnv2bGJ67733dObMGW+yfZHtZL9s7qT3reEnvW9nP378uDcBAAAAwMXmtQgdOZLyjczOm2++qerqai8MBTKdD5bDP6Pm7Zc4AkORbRG6+uqr3RIAAAAGg3nz5qmxsbE7CO3du9et6jZu3DiCEHCebBA6dOiQWwIAAMCl9s1vflMTJkzoGYRKS0vdJr7W1laCEHCebBC65pprNHz4cG8aNszviUofYwAAgEujuLg4EYR6fUcIwPl79913dezYMe+9OfuOHQAAAAYHghAwgN566y0dPXrUGyTEDioCAACAwSH7glDjwkRXo2m1Ha7Q8dYtVKNbjNah2mn+/t40rdaUXEKh6+n93PuiUQuHT1PqLQprXBi6D6Gpx3319F4fenrnnXe80RFpEQIAABg87HNZlgUh8zBeLjV4w3c3qKhqnnswd+GmXqrwtovRUatpwwvUVt09BHjnZlNfv6SP8wgK9nwS12Om9kK1e+dycUJH2YbgPjSY+1aimnZ/eXdlvtsCF8oOIW9DkL2vVvBuHAAAAC6t7ApCjfWqq5ijMm+hTEtqpC0NNi3kq3K3eYjfMMdbE82EpXlVKmro1Aa/Al9+pSrDyxfTgTY1lxRqolu8pOeCARG0AhGAAAAABg87iFVWBaGO9haVFCZig/ILitTcdsAt9aKjQVuaKzQnNmj4rTALF05Tooua14IUdBnr7raW1KVsoS21+5arTs2qKgjKjJj9E8rmqKK5SvOSmn4yqWu4gmJfcne/5HWWrTNUVy96Xl+qlPp6u04AAABgkMmtwRLCrS+RmtVSuFmdnRtUZh/2C7Zorusu1tkgrXCBJalLWd0K1XaUaUO4e5nX5BS/fze7X7vmbikIBZi4uvzWLK+u9hq1lAdd52wIKtCWue3unFJavLz1Xv87V1fvel6fW+FJrS+T6wQAAAAGl9wKQs1tSt9+VKK55e79mI52tQStMralo7yuu/UpMcCBbbmJkW7/JK5bnxduolpzDK+uUGtWfqWqK5rlVedauqpj3uvZMs8PSRlmIF+a6+tRX8bXCQAAAAweWRWEUrvCpXaVSyu/XHNL6lTfp35bFd0DGdjJPv3bbmCJAQ7aVVPiNo0UsX8cE242m8rq+naCvWg2U0nfgkna64urrw/XCQAAAAwC2dUiNLFQJXX17h2URq2pUncLTq/yVVldobrUVhfz4F8blT3yC1Skup7dvMIDHHitMV5pT3H7hzWaYydWd6jBVBYZ7FxdiYxkznlFnWshcgEv+jglmrt5txpUHjMkdoS01xdRXybXCQAAAAwy2RWE8iu1u0Eqd9221LBbfRrpuWxDogua3/XLTPNMfZENGGXaYLZVlf/+jjfZBFW2RDWqUoG3b5uKEi0mZZpTER7gIGb/sLICtQVdyoYXqKqowQ1dHV1X4ry9d3Lse0yW7VpnhxLvPk6Pw2xw7yFl8p1JsdfXLbm+DK4TAAAAGGTyGhoauo4cOaK9e/eqtLTUFftaW1tVXV2dNPRvpvPBcvhn1PyYMWO8n8BQs3z5ch08eFBjx47V+PHjvZ8jR470hmsEAADAxVdcXKwJEyaosbExxwZLAAAAAJDzTpw4QRACAAAAkFtGjx5NEAIAAACQewhCAAAAAHIOQQgAAABAziEIAQAAAMg5BCEAAAAAOYcgBAAAACDnEIQAAAAA5JRz584pr6GhoevIkSPau3evSktL3Spfa2urqqur1dXV5UqU8XywHP4ZNT9mzBjvZ5xXXnnFzQHZ4+abb9by5ct18OBBjR07VuPHj/d+jhw5UsOG8d8fAAAALoXi4mJNmDBB27ZtU96LL77Y9fbbbw/aIARkK4IQAADA4BIEoe3bt9M1DgAAAEDuIQgBAAAAyDkEIQAAAAA5hyAEAAAAIOcQhAAAAADkHIIQAAAAgJxDEAIAAACQU+wXqmZfEGpcqOHDh3vTtNoOV2iL/bLU8m6NWjh8ofnnYGTPzZz7wuiz66idZq5rmiIva8C5cwtN0fcXAAAAyB5ZFoTMQ3m51NDZqc7OBhVVzfPDQUet2ufYspTyQcUGinRhpkQlLSsi1jdqTVWzm++r3o6ZqRLVtIfvb0FsaOvWX8cGAAAA+pf9gvvsCkKN9aqrmKMyb6FMS2qkLQ3mSTu/UpV+oTFRhSVuNssUFbnrCfOuuUIVbvHSK9OG9hqV1NWbqAMAAABkp6wKQh3tLSopnOiWTP4pKFJz2wG3FDigtuYiFeS7xUiutaKxVtNcdy/bwOF3QUvt/tVz26SuYR3d5UE9Pn+/hQuDOstVp2ZVFZj5mNaUwiXVKqpaEwoYHapd0aKaJXPcsi/cDbC7LrPttO7yhY32+BHHTDrfoKtg+Fwz6D6YX665JXWqdxv2PJ/oY0efNwAAAHDxDbnBEhoXlqulZolrNUrHPKSvkDbb7l4NFaorH6552ux3/zLLzUmBJLRte42U6HpnHvgLqlTU4LqNmXUt5eHuYM1qKXR1djaoIuhitiHu7Mo0p6I7YKijQVs0V+Upoa5sgzuerbPOdadrXKOqogZX3qkNZWXa0OOY9nxNjUE3twZpReJkg3PdkMG9S9bzfKKOHXPeAAAAwCUwhIKQ3yKyorBduyvTNgc55iF9c6W8LcvmeA/tc4PE4S23qD3xoB7aNr9S1RXN8hqiOtrNVhWaEySH8DpPqM4MlS0xYWpFrbkam21MyKp2xw1LDBhhW12ciYUqqStPP5CBd76ulcbuX14XalHr67mWKNE4F3U+UTLdDgAAABhgWRWEUrvCdXeVsyFonm2yyTAEXYgOmcMOHNvtTFvU0FirFS01WpLaPGO7tiUGjGhXTfA+lAlhu03ZZs3zwkZ8z7MKt6+bYlun0rAtVUH3w7jzSZXpdgAAAMBFMKyrq8vNZgGv1SN4Sd+Opia/FcPrFlatgctAzd2DGHghwLUC5ReoSOGubCa81IVaiM5Lviqri1RV7l1cz9agA21qLimU1xjjnYtXmpBfuVvtJmW0dDdndXPn290d7nwE3QFdF7pezich0+0AAACAAWYzUHZ1jbOtHg1SuetepYbdXvixLUOqK3fdrvypf7/rpkRFbX5Ly/BwCDD/tCOotZS743rv38S9Y2Pf/0kZuCBO2RLVlFSoOirZ2XWqUoE93rw2FQUtK6HvVyqoKnL7ph7TP19TkNg2s0ELQt3phq9QYbt9B8mtijuf1GPHbgcAAABcXPYLVfO2bt3adfToUe3du1elpaVula+1tVXV1dVeYgpkOh8sh39GzY8ZM8b7OXjZEdDsw78fuoBMLV++XAcPHtTYsWM1fvx47+fIkSO9cesBAABw8RUXF2vChAl68cUXh96ocQAAAACQTvZ9oSoAAAAA9AOCUK/sd+LQLQ4AAAAYSghCAAAAAHIOQQgAAABAziEIAQAAAMg5BCEAAAAAOYcgBAAAACDnEIQAAAAA5JTt27crb+vWrV1Hjx7V3r17VVpa6lb5WltbVV1dra6uLleijOeD5fDPqPkxY8Z4P+O88sorbg7IHjfffLOWL1+ugwcPauzYsRo/frz3c+TIkd4XeAEAAODiKy4u1oQJE/S9731v8AchIFsRhAAAAAaXIAjV19fTNQ4AAABA7iEIAQAAAMg5BCEAAAAAOYcgBAAAACDnEIQAAAAA5ByCEAAAAICcQxACAAAAkHOyLwg1LtTw4cO9aVpthyvsUO00v8xOCxtdcZJGLbTro1eqo3aa2XeavCo7ajUtmM/U+eyTljvf0BRz6gPMnkdfrstuv9D8EwAAABi8siwImYfscqmhs1OdnQ0qqprnHtAPqKDalpmpvUYt5XEP4iUqaVkR8VDfqDVVzW7eyK/U7s7dqsx3y5k4n316VaKa9kyua7Dqa4gCAAAALo7sCkKN9aqrmKMyb6FMS2qkLQ32KbtMZX6hCSQFKnKzUYrMSn+fEK/eClW4xUHJu64WtRMqAAAAgAuWVUGoo71FJYUT3ZLNBkVqbjvglpyksNRT4ZJqFVWtCbWsdKh2RYtqlsxxy1a4JSOq211UWXgfN18b1Y3P8LrRBeW1mbWaeNdVnWhxalzYffzu7n7+cRcutN38gtajmG6DoXNIKreSzq/dFTpJ+6VrobLnUq46NauqwGwbHCByf3e/GrvX2c397or+ct+6QQIAAADpDZnBEhIPzfVz1LkhLgZZZZpTUaf64AG6o0FbNFflcV3aGteoqqjB755mJq/qqLIeTABoM+dit2moUHMifJmH/oIqFTX4+242R6/zyqO4EGGvy3YJDB2obIO/v+0iWFEX7u7XrJbCzaZ8g7lSGxoKtGVuu9s2ONfkc/C73YVCXOz52XXmbgXd9RqkFbEJrkwb7LkF3fv8G5dmf3OtK6TNXnmF6sqHa545ur9d6P5ldO8BAACA9IZMEMqv3O0/HM+pN8EhfQtL2RLz4L+i1sQE+1xtHvqrKxX7as/EQpXUlSe36ESV9WACwBL3lF42xwQC162to10tJTUKVuVXVqfpkhd+R6hQK8LXlRg0wra6hJVobpDqbMhrrlB16otL9hzMUecEISK/UtUVzfIa19Kdn7dfOJzV9WyRSyft/uZaN7vfg3e/QtcRvn8Z3XsAAAAgvawKQqld4VK7ynnKNqgheKiPk1+uudqihsZarWjpfuiP5A2CYFtG5nkP715XrKiygWbPuSQIK7Walhg0ol01Jf4mF0eFO66b+twkc4H7X4p7DwAAgCEnu1qEvNaAer+LlPnnmir5rQaNja7MalR9XYlS81GyfFVWF6mq3KsgvjUoxLY4tZvE0RIarSCqrFd20IPmKq1xJ9xRuyJN17gQr3XHXdeBNjWXFMq7RK/czkTwwlNdz+5r3sAL4e6BJhDWuRaidOfn9ovvDteLC90/5LzuPQAAAOBkVxCyrQENUrntVuW9NOOGq57YrhVeWUp5OmVLVFMS0W0sVeh7iwqqivzto8oyVqYN7h0Yu/88ze3uetZDqBuZ926Nuy577qpSgS2f16ai2BYhE/jMDSuqKkicr9+CYs7Bey8oXLd9p8itiz0/fz9zUon64r6XyWffx3LX4G3X1/0jXNC9BwAAAHx5W7du7Tp69Kj27t2r0tJSV+xrbW1VdXW1urq6XIkyng+Wwz+j5seMGeP9zFm2m1tBm6q9wQ0wlCxfvlwHDx7U2LFjNX78eO/nyJEjNWzYkHk1DwAAIKsUFxdrwoQJqq+v17AgkODSsIM1JLq5AQAAABhwNgPxn6YvuuTvwSmvq1DD7jSj1gEAAADodwShi86+txMaNY0ucQAAAMBFRxACAAAAkHMIQgAAAAByDkEIAAAAQM4hCAEAAADIOQQhAAAAADmHIAQAAAAgp+Tl5SnvhRde6Prtb3+rvXv3qrS01K3ytba2qrq62vvCoUCm88Fy+GfU/JgxY7yfcV555RU3B2SPm2++WcuXL9fBgwc1duxYjR8/3vs5cuRIDRvGf38AAAC4FIqLizVhwgQ9//zzgz8IAdmKIAQAADC4hIMQT2QAAAAAcg5BCAAAAEDOIQgBAAAAyDkEIQAAAAA5h1HjgAHAqHEAAACDD6PGARcBQQgAAGBwYdQ4AAAAADmNIAQAAAAg5xCEAAAAAOQcghAAAACAnEMQAgAAAJBzCEIAAAAAcg5BCAAAAEDOyb4g1LhQw4cP96ZptR2usFtH7TQNn1arnmsatdDt50/T1L27XbfQ/DOYD28XfZxkHaqdFtoncXxbV/g4F6I/6wIAAAByW5YFIRMGyqWGzk51djaoqGpeSjBo1JqqZjcfpUQ17XbfTrXXSFXzogKT1b2df5wCDV/ox6QeOmo1bXiB2qqD7c202ZxjzOYAAAAALr3sCkKN9aqrmKMyb6FMS0yY2dLQHWU6aldINTUmxvQuv7JaFc1bFNo9Rpk2mNRUUldvYlaqDtXOq1JRQ6c2+Cfly69UZXgZAAAAwKCSVUGoo71FJYUT3ZLJGwVFam474C901GpeW7U2lPuL/Sq/XHNL6lSfmoQ6GrSluUJzegs9B2yrUUQ3O681KehSF3TNs5K72vVsjHLd9+JaqQAAAACkNUQGS7AtM1s0d0nmzTC29aiuZK7K813B+SopVHc0i9KsqhXSZttlrqFCzVVrXOAxYabAnHPQBa9BWuGFJBuCCrRlbnuiq11Sa5O33usfqM7kFQAAAAAyNCSCUEftPBMcNquy11BjQkmB38pSUFWkht2VyjwHlSjUGNWtuU2uTSpGiWo2u+OUzVGFWtTu5Z12M9d9PsPL6/zWLdfKVB1zMVvm+SGJDAQAAACcnzNnzmRXEErqCmf4XeXavQESmu2ABjZQFFSpublKBZEjx4UHQdjg3jXKgBdOilSQmk3iusxlrMIN/OCmXtONHQiiJOkeAAAAAOibffv2aVhXV5dbzAITC0ODFtgR4qS55ZXaEA4TdmCDkhq196m1Jx3bhc0OiBAVnPJVWV2huvKU93g6alXbWzjKL1CR6lx3uBAXrnqUe0o0d/NuNag8gyG9AQAAAEQ5ffp0lnWNy6/U7gap3Lb8DLfvyezOoDvc+Qh1WRu+QoXtqe/phJRt8MJXiwlD/vZmmmfOsdfmJn80OnOg7v28NGXClblIb8huV546JkLZhnbN3WLWR7Z6AQAAAEjnyiuvVN7zzz/f9c4772jv3r0qLS11q3ytra2qrq5WuNUo0/lgOfwzan7MmDHeT2CoWb58uQ4ePKixY8dq/Pjx3s+RI0dq2LAhMkYJAABAlikuLtaECRO0atWqoTJqHAAAAABkjiAEAAAAIOcQhAAAAADkHIIQAAAAgJxDEAIAAACQcwhCAAAAAHJOr0EoLy/PG+43mBLfeWOmD3zgA4npsssuS0wjRozwhgm20+WXX+5No0aN0hVXXOFNo0eP9obNZuhsAAAAAJdCr98jBOD88T1CAAAAg0f4e4TSBqEop06d0rvvvqu33npLdr8zZ87o3Llzbi2AMNsS+pGPfEQf+9jH9OEPf9hrHbWtrAAAALj4LigIvffeezp27JiOHj2q48ePe8sAotluorYL6Ec/+lHvp10mCAEAAFwaFxSEOjs7vfBz8uRJ76dd7urqcmsBhNn352z4se/G2Z+2WxxBCAAA4NK4oCBkQ4/tCvf+++/TJQ7IQDC4SPBuEEEIAADg0kgKQvX19V32nZ++BKEwWoOAeKmhhxAEAABw6QRBaOXKlX3/HiH7IBeegmG1mZiYek6pfy8AAAAYHBjHFwAAAEDOIQgBAAAAyDkEIQAAAAA5hyAEAAAAIOcQhAAAAADkHIIQAAAAgJxDEAIAAACQcwhCAAAAAHIOQQgAAABAziEIAQAAAMg5BCEAAAAAOYcgBAAAACDnEIQAAAAA5ByCEAAAAICcQxACAAAAkGOk/w/eTn+925ICTQAAAABJRU5ErkJggg==;" vertex="1" parent="1">
          <mxGeometry x="40" y="190" width="834" height="189" as="geometry" />
        </mxCell>
        <mxCell id="OsQy39CXcE1SWKgziEEN-10" value="2" style="shape=image;verticalLabelPosition=bottom;labelBackgroundColor=default;verticalAlign=top;aspect=fixed;imageAspect=0;image=data:image/png,iVBORw0KGgoAAAANSUhEUgAAAz8AAACTCAYAAACgY6dLAAAAAXNSR0IArs4c6QAAAARnQU1BAACxjwv8YQUAAAAJcEhZcwAADsMAAA7DAcdvqGQAABxzSURBVHhe7d1/cJX1oefxTw7W5YeordWMP/a6JbrEAFHqlM1420YhCaByR35py8x2ILp1hRhg7hLCH/beO84uIdwZJU1wdDAwt3e9ovyywUoSaMt0t0PpdlkDBLgQXNtrbaDqIj+9gNnv9znfc/Lk5Jyck3ACOed5v5xn+D6/f5znxOeT7/f5Jmfps9/vOvS//5cO/+mCLkv6yle+otGjR+v666/X8OHDNWzYMDMVAAAAADLHpUuX9MUXX3jDmTNndPHiReWUV1Z15d5wnS6f/b0O/+b/6OyoXD355JO65557lJeXp1tuucWtDgAAAAxd/+N/7tG3/7LIjWWWTD32oXzcn3zyiTo6OnTs2DG99dZb6uzs1LDRt9zxt8NHf1U3DA9p7Nh8/fWKH+mhhx7SnXfeqZEjR7pVAQAAgKHt93/4F/3FX9zlxjJLph77UD5um2VsppkwYYK++93v6vTp0wp9u/BuDT/doRu+MkrPLfsb3XHHHW5xAAAAAMh8NuP86Ec/UmjH1i06/OGnmvsfy90sAAAAAMg+ocvDR3vv+FDjAwAAACCbhWyvbrZzAwAAAADIZiHbnbXt1Q0AAAAAslnOww8/3NXU1ORGE/vd737nSv3z4IMPuhIAAAAweOjq+urLtOMOuX9TYoOMf7Bu/Zd50eGrH35fo449pesPP6kv2+Z48wEAAABgKAh1dXW54sDdN229N0yY1qBvTl+l/zB9uU6fvezmAgAAAMC1l1NcXNy1fft2N5qYbfYW24TNTrvpg+/p/kfXquvSKenSZ9LFk9K/ntQ//dNG3TWlqdc68Rw+fFi//vWv3Zi8P0T0rW99y41dPb/61a+8f7/zne94/wIAACBz0OwtbP369a7UtwULFrjSwA3WcfuPLdH0gehXszcbdvyDdf7Cl+q68IF07qi6zh5S15l2dZ07pLPnL3nzk/ntb3/rBZ/y8vLo8Omnn7q56bdt2zYvbCXz8ccf680333RjAAAAAAZTvMCTzuBj9Sv8DF84TfrPj+r8Dx/Tp8/M8KZ9fs6EnLOHTfA5GA4/5//ZhJ8PdP6L1JrT7d+/3ws8flOnTnUlAAAAAANhw0K8YSjzH1+6g4/Vr/Bz+lJID/79f9eDlf9Vp0zZm3busgk97dK5f1bOhePSFx9LX57T5cvJw4+t9bnzzjvdWHy29qWxsdEbbK1NRHNzs7d+hH/cLmfLkfXsvMh0W6tka5r6qtWxtT7vvfeezp07560faQ4HAAAAYHDFBp10BrZ+hZ9TXw7T+Q//r063va//d2mYN+2MCT/r3tyntRs/UN2bn6jurfNmOOfNS8XIkSNdqTcbVmw4ijSHGzFiRDTIJNPR0RFd76OPPvICzRNPPKGvfe1reuihh/S9733PLdnb7bffrunTp3vHZtfnHSAAAAAg8/Uv/JjA83lbmz7f36bTl8Ph5xtTtyt/xs9UOHOHvjm3WQ8+aYcW799U2NqVRGwtjT94FBYW6rPPPnNjfXvggQdcSV7gOXXqlBsDAAAA+mabXKUyIP1ir2s6r3O/w8/GpiZt/uAPOnU5vGrLZ/8uOvzsxL/Vtj/c4U1PpZe3u+66y6uV6Y/hw4e7EgAAAIBE/CHNPwxl/uNL9P7PlehX+PnmP27WX76xSSVvvqUZb230pl26eFn5t9ytr/+bu/XlxTH60x9Tr2Gxzctss7bY928iTdtsjY3/fZu2tjbdcsstXtk2SfP3CpdqiLJN506fPu3GErPH1letFAAAAID0iRd80h2Acub9l7/tevVv/tqNJma7to7U5kTK9t8NbV/V/fcU6qPPpM5PLuv3R3fr72YPi85PpQbIBpyjR4+6MXnv5OTn53tlG4wiIcQGJX9PcLYzggg7z4Yl+/eB7LtCdv3INvzjtiME28OcDU+x7/3E/p2fSAcJ9957L+/9AAAADHH8nZ+rL9OOO2f6c2u63qrt2dV0PInCz8qf5ejChUu6+MVlXbx42Zu/+gcj+hV+AAAAgCtF+Ln6Mu24Q+eOHHLF5GyYsUOkbK14tEt/N2uY/tv3r/dCjx2syHwAAAAAGApyiound23f/pYbBQAAADITNT9XX8bV/GjY3a4IAAAAANkrNHLsfa4IAAAAANkrdPP1J1wRAAAAALJX6I+HL7kiAAAAAGSvUO6k8a4IAAAAANkrdN2lT1wRAAAAALJX6KNfb3VFAAAAAMheOcXFxV3bt293owAAAEBmsn9zBuiLF37eeecdNzr4cnJyXCl7ZOM5ZSPuvczA9ykzcO9lBr5PmYF7LzPwfcoMyT6nkPsXAAAAALIa4QcAAABAIBB+AAAAAAQC7/ykAW1AMwP3Xmbg+5QZuPcyQ7xzunDhgithKBg+fDjfpwyRjeeUjZJ9TtT8AAAAAAgEwg8AAACAQAj94Ac/cMWBatWSm2/WzUta3XhPx18p0803l+mV425C62LddNNN3lC6NjIxnuNaWxpezhtK15op10qrFkeOww2L45/uALRo8Y0lWtvhRvvSslg33nijGxabNb2Jqa8/5NhjN+eyOHwmsTrWlpjzjDk37xpEzj1W39s7vnaKRo+eoj5vu7RrVWXcfdrpo83xdA+VabynKm+YrIak52mXu0E3+IbK+JduiGnR86NGadTzCe6bhikaNWqKGtx90/K8WdYub4YpkYk9uO35hgSbzgL9uXYdapiS7Jq0qGLkSI30DZPrh+oPI3esFQnOvX6yRox4RLGH31H/iEY8Um+uRmLNFSM0oqLZjSXSrIo420+qo16PDGS9Ph3S2y/Ua/dJNzokDMIxHXpbL7zwgjfU+zZ86O3wtNjpiZaPOLm7Xi/U75ad45Xdst3D2+YsHG9bvnEAQ0aouTnZD+xUTNKk9tXdASeqVXUr9rqyZULEHGnTqVM6dWqTClY8G/9B9Phald40UUeq7HJueFXakZaHQxtkSgfwADxJK/e5Y9m3Uu1zFpst9SXNoaRjrUrstfv8c31uh31jdSztD2jXIkiZe+dgbZx9tqiu2n/vdGhtiQk270oL3JT4Em/v5eX+7Q0Fk7Tq/dM6fdoM76/SwVmVSe6pREHqSphjaDujM2fCQ12Zm5xQS4rBarAVqah9VTTgdDOfc5XvD9x1NOjojLM6e9YOW1VQ9cM461hFqm1zy20tV+PM582WrgYbRrqD2tWR4rUz37l7l7tr0lar9oTXxFy7/ed07pwdtplrPCFhwOhmg8jkND/Qp8Kee02c/bbopR7nHtGsl5Yl+YOJJpzUHHxaTx+Mt900yKvQL87/QhV5bhwpMmHqDWneiy/qxRfnKXfnxnCwOrlbJ8bbaTHTEy0fdUi/3NnpytKtxRVuG+GhsiRXuSUP6z4TjXbXmyB0QCp0ywIYWkKdnd1f5itRUCBtbY55Imp9Vxvmz9d8Nxoef1yl3kipFq806+yIfYo6rrXPrlDBplNaE14wbMxCLfSPX0tj7lWB2nX0aj4AdhzR3kljFf3/X565HkkfVDPDuHHSluaYp4aWd7V+wQJf0MnTwp0m9K15zI0nltr2hhhzT43Twat7T2U4+zNny47Yz7lJjeXlKnejylukRdHvSZ7yi1yxL2UzzPrm+z0YD7JDRErXTmUqi1y7PPszLxVlqt9fq6LGnyYISteed+7vxZ77T71zf9qNRnTU10irV5vIlFjHe5ul2Uu1dLa0OXa7uHYOHVBb4XgTRqz79HCJtL/dpJlbi1Ucnmh8XbflumKi5Z2Tu3dJJSWKLN6TDUa5mlJ8qynfquIKE4jmjg/PAjDkpO2dn7GVy1Swos73m+vjemV1u1ZWdj+sHj/Wrklju399NebeAu09EvM/i+M7tHXvfD2eMOiEa24WLy7VTTe52hevpijSJK27RqZ1sa+pmtdOza47Rxu0VysmRqYZCdZPqHW7CXFVWjgmPNqyONIULdLkytagzNF6s5/qif5mWK72wi3bo3WWrdlx00viVb2UPaYFe6v1bKJqmUTr+6b3aC7Wa3q8Y+7jeNNobGWVxlXX+R6WzH5rD6rGd+/0R6LtrVoyw42HtVb6mp1F25y52pW1ldF5U6JVLbE1Lz3H428vRa1NJpxVR++p3tuy+5rlfT7L7/dv/7gaJidotnasQZPd9Mn9qqpxtTsNldHthte302ep0R5DoZnu7Sy8bGXlZLPcZE02x9LjGFrMNiY3DEqT1fwly1VQ9XKPz7lhVbtqYz7nbh06vKdA9yb7DboNAUWzNC2yXEeDprimX6NGRWo/XI1NS/e8Hk3qeqzjbzIWXu/5523zMjtvprmee1RVaMreQqk0Nbty/b52XjCaYaJNCvKma1ZRo37qNt5S4WsW59UI2VqfJ8LnPaG7GVrv5QZH/tJqc+4v9Tj3+hpz7kv/yo07HfV65nC16qe78bg65GWf6XnmtL30Y6b4eE3WRmiEGR6pP+omWq4JXHP3fNtqzmtiF10+siV/czlXrq+Is1yanNytel9Trrf97bZ88+p37+7ZTC3FeT2agvVY54Sb2Ju/mdoL0QNyNSxueo/jNE6e6FTubV93YyaSmJTTeeLPbizizzrRmavbTGbpc3lznBtPTNHcRL8BMMGp06v1AZAJ0tjhQakem79B70afyZq1VTM11T3M9Yu/hiOuvWof+6pOnVpj9moCzUSzp0iTtE1SrXsaLV3jppmJ8zfUmofUUq2x5UgTNq9qKfH6PbnAZAOSbX7mq5YqW+Oaon2+SQvW2yZXZVpjy2Y/NftsbYV9ZLBBYqK2zNrnlv1c3mSPCRy10qt2+qYF2tvjwT3CbnOfZm2ZGCeIJFrfBJqJWzTLHoM3z56b/R9lvOl5vY+5pU7V4zbFOd50K9NjC9br3cg5dTTLHJ2mJntITSj+9qbF3Iulda7J2ekt5nOr8YUa83B/eEZ43hZzPZe/bO6S5BJvLxEXZGzAmSVtqeu+p3pvq1R1thxpKucta4NPoTbPbovTbM1su0ZaZ6dvKffOofc9Zbkg44WcSt8yZvqRx8Pbja5fprozW1QeaSoX3dleHRi7ziz7c/28ulyN27u30rK9UeXVizSQHwPJlWlGeaOaop/zjvDnnOC+aXl+ptprl5i14nEBxIaOphk6u2uR+xlkwkqh2Wq0SZy0KhpyzDqrpNdcszBFm9TZdapUsNXfZMzftG2P2vNfC88zGyyPNLn7sf3Ovayqgq1u3lnZSYMjtWsXfgfIXZMBHkxZfXeTuPJG2zSsTPW2HGkuVx/ebu/lvMmDoEx/Zc49Es7U8Z537ia/+JhA9MxmzV461Y0nYNY1S4XXNaFvthnrrvwxQWX8Mo3bdl7nz5/XOjPvdTcnbI+W2e+omXd+29N6/YkResYsZZe143uWvWS2EI9Zz/x8Sr7cQBzS23U7lTvPNeeqLFHnG5EQ03PeU9qvNm8dK9m8/ZpQ6bY5T9rlbbCvdXq6b65b16xc2LYrfDyHfqmdufPc9Bc1dwDJ49Dbb6QQWkzI2miO/+FES5n5uzo1ocDW+gDIBKEHvnG7K1650sqVal/9ivdb3ta6FSpY9tzAHnr2Hun527NeJmlm5En2+FG1m4ev7mCyobs2Kdq5gq3tSaCv9Xvwv/MzVrX+94aiHRHYmpME7AP43gWqWhjvycwEjlcXhh+2bA2PDupY3Avgmn7tq9HBOf4AlGD9jmOm5Gpy7PHNWR8+t0TTY+WN1aT1c+LXRKVZWaU5p9q13ufeUletcVXufAYo3vZ63YutkdodW6PiZx7ul7ggUjrDu54pNUdLuL1E/O/85KvGX6uUyraO79DmveWqXhTvW2a2vc6FjrLHzYPmgQTn4IKMF57qfMHAXgM31uf61iTNnu6OwS7buN2FqBZtP7BKkc0MhrIlJlisagh/zi+bwLE8Elr8wrUpq/LbtGtRorvKBRATVIoam9zxGx3254MvGM1s1J7Dke+DWec1t7+8RVpevkfeLG+dcs2InLd/nqdIsxIltLx8s/+ZCTpmSK9Url3eol3hIDajyZx/f95NKlJ+ZGMtFa5Gx9b29CHV5dKgbKk595pwJwYtL5lzr67oce4d9c9o8+x1Sd+zCTd5m+7WzZOt/Fn2kosi5j44WLRakfyUV1Ed06yuSKvXuf1OnWHmFXk1SB5v3PzciXu9zXqRjfa53ACcPKFOFWp85Dn/1mJNKeyUVwFi5+WWKJIBbi2e0v1OS7J55r+dda6W5o22cI1KX+vEinZE8EZ3QPr6bcpteyNuxwTJhWuNdt1WqQqvqVpiJ3dv1P4JTynhYifbtT93SuL5AIac0ITvdP+2+YqNmaqZ2qrm1le0un2lKmM2Peaens3cjh/t2QzOM2aaZk7aoO2p/Ko9ar7rRMENtlbGNmWLdq6wTysnuUXjirN+X7xj3CvvVMx+ujsi2KeaPveTJnkL9arZ0fpo1UZfFnR3kmCHaPVNouk+Zj87zbxX9Wyc2qY0y5uqWdqi5pa1qj1Yo8orfWBOtj3zuU2xtS1e7cr7WnWln9uVbs/cU7PNPeU9IKf72K6qMi1ZdUA1Dcd1vKFGB8yDYbxoljZ507zPeUdLg1a118YJWjb4/NBWz/QRfHxMUHmttt1Xu2OVa6urifGGuDUgHTI/zq6c2f8us4/X9MNBbfbmSXrtfMp+rK09AlwfbE3KngL9e3u5O+o1+Qlpm1ejs1+1iV6eSXW5dLFN88y5v9dSrxpz7kt7nHu4k4M9y8aHm5aNX6Y9e5ZpfK8e32KWM8N42znC601prInJFoWuIwE39KeaxjaNi3ZEUKmSyEs3JphVmGlPaWPcZm+xzdy6m7XZ4LNReurFHsEn/vInvE4OOnfWhcNX3U51du5UnevxzVuufb9yo2kRQCYI/eQf/sEV02GMnltWoBVzV0gzp/Z+6LE1CRu2uyZErVpjF4tti2TWWlg1XxvmxHQnbR4I18YLRF7nAxt6N1XzdxDgvUfkTe0t0fp98bY3SV5u8+/Hq92xhTjsw/ik9a7Z2QCYh/juVTvUbHbUKzjGyrtH4xRnn4mmJ5C3cKf2mbB1MH51VJrkmc99nKrnVEuzpoav5xVJsr2Ow+Zzyw9P92pQvKlJ5Ck/ElAs+56OKw5sez7eOpPCvy1PdVteYGr0gsZQMsZ79+Flvez9UnxQo4+Rp0XLC1Q1s8p8ztPC18zPa0a2XKnknoi8RfZ9GNeEzXvRvzEmDEXs6e40wDYb2+Nqe9w63U3KTLho9NUEpcDWuLSZBNA+qL0uJLt29k3AiBY1NfpqcxJqUcWEKhVsqw/XIpp7eU+Ru5e9UGQLcaS6XNrkqaLanPsT9twjNTcRU1Vvm5RFhgOrVVS0Wgd+0bN2SM1Net1O9y97/oBWF72uJpt+zH0wzoSmaEVQfU1Ms7ch6NbblKs2HYi+VrNbu9pcTZCdZx78f+nm2Q4AorUwyeaZsXBTN5++1vH7s60huk3e2zi2liWmjybb65rtaa3zRMz2vZqhAwpv3nZIoHDTNK+5XJyamrjLF2uuP7RVlig3t0SVFcUKr35SJvvI96oQgAyQ/j9yWlqplZPma9lzcR56xjyn1k3SHNcUTZtaoy9491C6xnUn7Zqi2eFZaVrcCplSrTHLasXE7mVtaipdrJVaoYneukdUEP3teaken+/v8CDB+r34msZ57wi5Yzf7qVG1JtrmY2Y/46L7se+d+DsPsE3WNmlcdfidnX7XpJTdoyORZmo3TvTexdkZtwmdX5k5txqZg4juM3wsiaf3OGbf3xWaWD0uQZO9NCqrVM2kRE0DB6Cv7ZUu0Sot1/22adl/Ouz73Ppignn1Aq2fZZujmaHJ1+32gLbne+fn/s2a/f4ud08l2lapZpjPp7vDgzFa9PMtGr+80L2zM5C/0+N/5yeVjhHK9Hi5WyfRzsYsUvX4RjWOr1bcFnnpVrZEtUXlWh4n4XTY6pjGmeEma25I3qSsTEu8V3hsk7Ay/dh7n6ewexvR6pgiFRwO19CM8t7x+bFZ2gqv0z7TLe+9MxSZF8u+e+Pr8KDl+eh+CqsK4p5TWvVx7ZR3VKvcsdiOGbR1V4IQ6Tou8Jqs1Sh//zm513jM9peqVlWaYOeZe7kgWqNj37tx69nODRIuN4jsPs25Vw+wD+nmptdVFG3yFmGbvhXpdS/9mBDl3uWxtULPaHav3uSuLV9TNDOEm4/dp7neez5uuveuztxoD2hz5xWqzc3bqAm+ZmpJ5pltmp1F9xXutKCvdXzue1gl2qk6u97GEyZ8uOm+v8lTF+1pzcfWDM2T3vCWsVVHFV7gsTU6ZqfRde3gnXuC5fvW3WECgMyRU1xc3PXOO++40cGXk5PjStkjG88pG3HvXT0tlTdo++Op/N2g3jLjc7K9tq1SfluiQJD9+D5lhnjndOHCBVe6ArY5Wt0JTXkxEo58+pqHXoYPH873KUNk4zllo2SfU/prfgAE2/EG1QxyRwcArq1Dv9zZ3RwtRl/zAOBao+YnDfhNQGbg3hts4a63l++1Pcj9fMBN3jLjc6Lmh+9TZoh3TgOr+bEdBdRpZ/SdG9uJQaRmp695SIaan8yRjeeUjZJ9ToSfNODLkBm49zID36fMwL2XGeKdU1qavSFtCD+ZIxvPKRsl+5wIP2nAlyEzcO9lBr5PmYF7LzPwfcoM3HuZge9TZkj2OfHODwAAAIBAIPwAAAAACATCDwAAAIBA8N75WbAg+qcaAQAAACAr5axbt67ruuuu029+8xs3CQAAAACyT86TTz7Z9eijj3rhZ/LkyW4yAAAAAGSXUGdn9K+SAQAAAEDWosMDAAAAAIFA+AEAAAAQCKEHvnG7KwIAAABA9gqN/3aJKwIAAABA9gr9409+4ooAAAAAkL145wcAAABAIBB+AAAAAAQC4QcAAABAIBB+AAAAAAQC4QcAAABAIBB+AAAAAAQC4QcAAABAIBB+AAAAAAQC4QcAAABAIBB+AAAAAAQC4QcAAABAIITuLn3GFQEAAAAge4X+dOSPrggAAAAA2Sv0xe9bXREAAAAAsldIuuiKAAAAAJC96PAAAAAAQCAQfgAAAAAEAuEHAAAAQCAQfgAAAAAEAuEHAAAAQCAQfgAAAAAEAuEHAAAAQCAQfgAAAAAEAuEHAAAAQCAQfgAAAAAEAuEHAAAAQCAQfgAAAAAEAuEHAAAAQCAQfgAAAAAEAuEHAAAAQCCE7i592hUBAAAAIHuFPm7/0BUBAAAAIHuF/vWjXa4IAAAAANkrJHW5IgAAAABkLxN+clwRAAAAALJX6Po7HnZFAAAAAMheodvHjXFFAAAAAMheoQ9bX3dFAAAAAMhe/JFTAAAAAIFA+AEAAAAQCIQfAAAAAIFA+AEAAAAQCIQfAAAAAIFA+AEAAAAQCIQfAAAAAIFA+AEAAAAQCIQfAAAAAIFA+AEAAAAQCIQfAAAAAIFA+AEAAAAQCIQfAAAAAIFA+AEAAAAQCIQfAAAAAIFA+AEAAAAQCIQfAAAAAIFA+AEAAAAQCIQfAAAAAIFA+AEAAAAQCIQfAAAAAIFA+AEAAAAQCIQfAAAAAIFA+AEAAAAQCIQfAAAAAIFA+AEAAAAQCIQfAAAAAIFA+AEAAAAQCIQfAAAAAIFA+AEAAAAQCIQfAAAAAIFA+AEAAAAQCIQfAAAAAIFA+AEAAAAQCIQfAAAAAIFA+AEAAAAQCIQfAAAAAIFA+AEAAAAQCIQfAAAAAIFA+AEAAAAQCIQfAAAAAIFA+AEAAAAQCIQfAAAAAIFA+AEAAAAQCIQfAAAAAAEg/X8Oxkbw1qp3WAAAAABJRU5ErkJggg==;" vertex="1" parent="1">
          <mxGeometry x="43" y="440" width="831" height="147" as="geometry" />
        </mxCell>
        <mxCell id="jGbm4z2PW4_VoI2VGA2P-1" value="&lt;h2 style=&quot;box-sizing: border-box; margin-top: 1.75rem; margin-bottom: 0.5rem; line-height: 1.2; font-size: 16px; color: rgb(3, 155, 229); padding-bottom: 1rem; font-family: &amp;quot;Source Sans Pro&amp;quot;, HelveticaNeue-Light, &amp;quot;Helvetica Neue Light&amp;quot;, &amp;quot;Helvetica Neue&amp;quot;, Helvetica, Arial, &amp;quot;Lucida Grande&amp;quot;, sans-serif; background-color: rgb(255, 255, 255);&quot;&gt;1.&amp;nbsp; Create Stocktake&lt;/h2&gt;" style="text;html=1;align=left;verticalAlign=middle;whiteSpace=wrap;rounded=0;fontSize=16;fontStyle=1" vertex="1" parent="1">
          <mxGeometry x="50" y="680" width="478" height="30" as="geometry" />
        </mxCell>
      </root>
    </mxGraphModel>
  </diagram>
</mxfile>
